<svg xmlns="http://www.w3.org/2000/svg" viewBox="0 0 5000 2916"><defs><style>.cls-1{fill:#62748e;}</style></defs><g id="Layer_2" data-name="Layer 2"><g id="Layer_1-2" data-name="Layer 1"><path class="cls-1" d="M5000,1581.85q-2.31,8.07-4.57,16.8c-3.28,8.75-6.57,18.13-9.89,28.07-3.91,8.53-7.88,17.6-11.95,27.14-4.62,8.18-9.35,16.82-14.24,25.83q-8.07,11.57-16.67,24.15-6.92,8-14.21,16.37l-5,5.75q-10.53,9.61-21.8,19.84-11.84,8.49-24.51,17.44c-8.73,4.82-17.78,9.77-27.05,14.79-287.06,119.06-834.8,303.54-1543,202.7-246.78-194.66-521.26-421.57-826.68-684.87C1768.39,682,1218,266.36,794.71,0h-1.8c423.28,266.15,974.14,682.1,1686.89,1296.58,304.9,262.86,579,489.45,825.48,683.9-6.83-1-13.69-2-20.55-3-240.32-187.5-507.4-406.25-804.31-660.3C1722.1,668.31,1150.37,249.88,722.35,0H720.5c428,249.6,1000.21,668.37,1759.3,1317.86,296.37,253.58,563,472,803,659.29q-10.29-1.56-20.63-3.19c-233.84-180.28-493.46-390.83-781.79-635.54C1663.38,645,1067,226.13,635.49,0h-2.42C1064.5,225.66,1661.34,644.55,2479.8,1339.15c287.78,244.23,547,454.46,780.49,634.51-6.9-1.09-13.79-2.18-20.72-3.33-227.33-173-479.45-375.34-759.15-610.62C1582.69,604.53,956,189.46,524,0h-2.89C953,188.68,1580.17,603.65,2479.81,1360.43c279.11,234.8,530.78,436.76,757.76,609.55-7-1.15-14-2.39-21-3.61-220.73-165.7-465.26-359.67-736.16-585.38C1440.8,514.79,771.92,118,349,0H344.4C766.79,116.16,1436.5,512.44,2479.81,1381.72c270.3,225.21,514.38,418.83,734.74,584.3-7-1.22-13.9-2.36-20.89-3.64-214.16-158.36-451.13-344-713.25-560.11C1058.74,230.05,342.64-39.61,0,73.78v1.69C342-38.55,1057.66,230.39,2479.81,1403c261.49,215.6,498,400.86,711.73,559-7.06-1.29-14.17-2.7-21.25-4-207.5-151-436.69-328-689.88-534.38C1025.18,237.29,322.32,24.46,0,188.12v1.81C321.69,25.59,1024,237.59,2479.81,1424.29c252.56,205.87,481.22,382.53,688.33,533.23-7-1.34-14-2.61-21.06-4-200.9-143.54-422.35-312-666.67-508.68C989.45,244.61,301.66,96.89,0,312.1v1.83c301-215.88,988.29-69,2479.81,1131.64,243.67,196.15,464.59,364.23,665.08,507.52-7.15-1.42-14.37-3-21.56-4.47-194.16-136-407.72-295.77-642.92-482.51C952.38,253,281.33,179.21,0,445.51v1.94c280.63-267,951.06-194.31,2479.82,1019.4C2714.3,1653,2927.29,1812.37,3121,1948.13c-7.13-1.48-14.25-2.93-21.41-4.47-187.43-128.47-393.12-279.53-619.19-456.27C915.59,264,262.31,272.73,0,587v2c261.58-314.91,914.17-324.89,2479.82,899.17,225.32,176.16,430.42,326.81,617.38,455-7.25-1.56-14.54-3.22-21.81-4.84-180.57-120.82-378.3-263.11-595-429.65C881.73,280.06,246,378.14,0,733.49v2.09c245.19-356,880.18-455.51,2479.82,773.85,215.87,165.9,412.95,307.76,593,428.3q-10.78-2.42-21.62-4.92c-173.74-113.16-363.44-246.55-570.78-402.86C855,304.61,234,494.63,0,880.09v2.37C233.07,496.34,853,304.3,2479.82,1530.71c206.53,155.69,395.53,288.62,568.73,401.51q-10.83-2.52-21.69-5.14c-166.92-105.47-348.51-229.83-546.47-375.85C839.22,340.71,227.53,619.54,0,1020.9v2.44C226.64,621.48,837.28,340.47,2479.83,1552c197,145.32,377.84,269.21,544.13,374.37q-11-2.65-22.06-5.43c-159.88-97.63-333.27-213-521.51-348.43C838.75,391.42,227.33,748.6,0,1150.35v2.05c226.5-401.94,837-761.06,2479.83,420.88,187.23,134.7,359.8,249.59,519,346.9-7.15-1.78-14.29-3.56-21.46-5.41-153.05-89.85-318.25-196-497-321C856.74,458.68,233.37,876.16,0,1263.8v1.9c232.55-387.65,855.09-807,2479.84,328.87,177.62,124.17,341.87,229.8,494.13,319.3-7.39-1.91-14.83-3.91-22.25-5.89-145.86-81.88-302.64-178.85-471.34-292.91C893.12,541.88,244.55,998.39,0,1360.9v1.73C243.74,1000.27,891.56,542,2479.85,1615.86c167.52,113.26,323.27,209.64,468.27,291.16-7.09-1.9-14.15-3.74-21.27-5.7-139-74-287.47-161.63-446.48-265C945.9,639,259.43,1113.19,0,1443.35v1.52C258.66,1115,944.56,639.28,2479.85,1637.14c157.6,102.44,304.87,189.41,442.78,263-7.27-2-14.58-4.14-21.87-6.22-131.72-65.9-271.6-144-420.4-236.28C1013,748,276.9,1219.72,0,1513.43v1.4c276.13-293.43,1011.74-766.43,2479.86,143.6,147.2,91.24,285.65,168.66,416.13,234.12-6.83-2-13.61-3.8-20.46-5.82-124.75-57.87-256.3-126.6-395.18-207.83C1091.23,866.38,295.77,1318.53,0,1574v1.26c295.06-255.15,1090.23-708.31,2479.87,104.51,136.75,80,266.35,147.79,389.4,205.11-6.88-2-13.8-4.19-20.7-6.28-117.3-49.64-239.94-108.6-368.23-178.37C1178.89,992.4,315.55,1410.18,0,1626.9v1.15c314.9-216.48,1178.08-635,2479.88,73,125.48,68.24,245.5,126.08,360.46,175-5.57-1.71-11.1-3.33-16.68-5.07a3737.68,3737.68,0,0,1-343.34-149.53C1273.91,1124.45,335.66,1495.63,0,1674.07v1.07c335.12-178.26,1273.32-549.92,2479.9,47.16,112.66,55.75,221.65,103.13,327.16,143.38a3393,3393,0,0,1-326.76-123c-1105.45-481.36-2124.52-167-2480.3-26v1c355.33-140.94,1374.42-455.57,2479.92,25.81a3384,3384,0,0,0,343.42,128.29q27.7,10.41,55.07,20.14c19.41,8,38.73,15.8,57.85,23.29q31,13.79,61.47,26.59c20.5,9.58,40.86,19,61,27.95q31.47,15.47,62.19,29.88,33.18,16.93,65.54,32.8,33.28,17.54,65.68,33.9c22.57,12.22,44.92,24.15,66.88,35.59q34.36,19.08,67.79,37,33.74,19.13,66.45,37c23.13,13.36,45.8,26.17,68.23,38.68,23.57,13.84,46.65,27.09,69.48,40,24,14.29,47.45,28,70.66,41.34,24.23,14.63,48,28.69,71.43,42.37q36.61,22.35,72,43.26,36.9,22.77,72.56,44.08,37.16,23.16,73,44.82,34.57,21.72,67.95,42.07c24.45,15.51,48.35,30.38,71.91,44.86q37.67,24.06,74,46.52c230,147.89,419.1,249.13,573.65,312h2.17c-145.41-58.95-321.52-152-533.7-286.14C4452.74,2779.25,4648,2870.57,4801.69,2916h2.92c-162.59-47.65-372.12-147-639.69-312.7L4148,2592.41c410.8,245.59,680.46,329.43,852,308.9v-.85c-174.24,21-450.15-66.12-873-321.71-7.82-5.11-15.77-10.35-23.68-15.56,450.43,263,729.89,329.41,896.7,277.94v-.94c-168.28,52.19-451.67-16-910.58-286.12-9.22-6.1-18.56-12.34-27.93-18.61C4555,2815.94,4841.4,2857.3,5000,2768.15v-1.05c-159.33,90-448.36,47.71-948.28-238.18-10.42-7-20.85-14-31.41-21.13,542.87,299.47,833.1,306,979.69,171.15v-1.27c-146.85,135.89-438.86,129.07-987.17-175-11-7.5-22.12-15-33.3-22.68,575.4,307.19,865,281.38,1002.78,112.24,6.21-7.63,12.08-15.58,17.69-23.78v-1.69c-5.83,8.58-11.94,16.9-18.43,24.87-138.12,169.56-429.25,194.7-1008.86-116.31-11.34-7.79-22.87-15.81-34.4-23.82,571.51,294.41,859.89,257.21,1000,83.08,25.07-31.16,45.38-66.71,61.72-105.52v-2.49c-16.46,39.55-37,75.76-62.46,107.41-140.35,174.47-430,211.12-1005-86.48q-17.84-12.41-36-25.16c570,282.45,858.05,232.71,1000.85,52.72,50.12-63.17,82.34-142.37,102.6-228.85V2242c-20.17,87.93-52.55,168.48-103.34,232.51-143,180.25-432,229.58-1004.89-55.5-12.33-8.67-24.66-17.34-37.18-26.22,571.28,271.26,859.84,207.27,1005.84,20.4,88.67-113.49,124.72-272.28,139.57-428.82V1974c-14.23,159.7-49.85,322.8-140.32,438.6-146.15,187.07-435.45,250.79-1009.12-22.7q-19.18-13.63-38.66-27.61c576.22,261.11,866.74,180.89,1016.51-14.13,133.13-173.34,155.09-437.23,167.9-632.5L5000,1714v-1l-3.62,1.59q.59-9,1.15-17.72l2.47-1.32v-1.08l-2.4,1.29.29-4.45.84-13,1.27-.83v-1.13l-1.19.78q.57-8.71,1.13-17.18l.06-.05v-14.93q-.49,7.15-1,14.5-4.76,3.79-9.77,8,1.1-8.09,2.18-15.92,4.36-4.47,8.58-8.54v-1.32q-4.11,4-8.37,8.29,1.09-7.86,2.18-15.44,3.13-3.92,6.19-7.56v-1.46c-1.95,2.3-3.92,4.7-5.92,7.17q1.1-7.56,2.2-14.84c1.24-1.93,2.49-3.8,3.72-5.63v-1.68q-1.68,2.47-3.38,5.06c.73-4.77,1.47-9.46,2.21-14l1.17-2.23v-2l-.68,1.28.68-4.09v-7.54l-1.44,3.61c.48-1.76,1-3.51,1.44-5.23Zm-6.81,25.66c-.52,2-1,4.11-1.53,6.2-.82,1.68-1.63,3.38-2.45,5.11Q4991.21,1613,4993.19,1607.51Zm-6.75,19.52q2.09-4.58,4.16-8.94-1.29,5.45-2.6,11.08-2.49,4.1-5,8.38Q4984.71,1632.2,4986.44,1627ZM3907,2439.3c-10-6.64-20.25-13.48-30.45-20.31,8.12,4.37,16.29,8.8,24.31,13,10.59,7.23,21.14,14.42,31.59,21.48C3924.11,2448.89,3915.53,2444.05,3907,2439.3Zm32.79,19.2c9.93,6.69,19.68,13.18,29.49,19.73-7.78-4.42-15.69-9-23.56-13.54q-14.25-9.3-28.63-18.74C3924.73,2450.17,3932.33,2454.39,3939.83,2458.5ZM2966,1921.82c7,2.26,13.9,4.45,20.84,6.65,9.44,5.23,18.91,10.52,28.21,15.55-7-2.56-14.09-5.11-21.17-7.74C2984.63,1931.58,2975.28,1926.69,2966,1921.82Zm20.88,11.9c-7.1-2.65-14.26-5.41-21.4-8.14-8.22-3.93-16.56-8-24.87-12.1q10,3.35,20,6.62Q2973.75,1927,2986.84,1933.72Zm1983.82-260.09q-2,6.55-4.05,13.29-4.47,4-9.13,8.15l5.11-12.45Q4966.68,1678,4970.66,1673.63Zm-7,6.34c1.63-3.94,3.23-7.82,4.83-11.63q3.36-4.72,6.63-9.23-1.89,6.09-3.83,12.39Q4967.56,1675.63,4963.68,1680ZM3758.43,2344.28q-17.44-11.76-35.11-23.76c8.36,4.09,16.74,8.19,25,12.14,11.82,8.2,23.5,16.24,35.16,24.27C3775.15,2352.74,3766.87,2348.6,3758.43,2344.28Zm30.42,16.35c11.39,7.83,22.66,15.5,33.9,23.14q-12.48-6.53-25.15-13.29c-10.94-7.28-21.89-14.56-33-22C3772.78,2352.63,3780.79,2356.6,3788.85,2360.63Zm-708.4-392.57c7.52,2.55,15.06,5.12,22.53,7.58,11.19,6.86,22.25,13.56,33.32,20.27-8-3-16.13-6.12-24.19-9.18C3101.67,1980.65,3091.05,1974.33,3080.45,1968.06Zm26.34,16.62c-7.42-2.83-14.82-5.65-22.29-8.56-10.29-5.75-20.54-11.44-30.91-17.31q11.23,3.92,22.4,7.71C3086.3,1972.63,3096.62,1978.75,3106.79,1984.68ZM4961.44,1704l-.11.36q-2.07,6.86-4.2,13.88l-11.86,6.72,5.43-13.28Zm-10.07,6,.45-1.1q2.44-6,4.84-11.84,4.8-4.32,9.42-8.43-2.07,6.84-4.19,13.86Q4956.75,1706.18,4951.37,1710ZM3199,2019.41c7.71,2.67,15.34,5.21,23,7.8,12,7.94,24,15.87,35.83,23.59-7.8-2.92-15.53-5.72-23.4-8.74C3222.75,2034.63,3210.91,2027,3199,2019.41Zm31.26,21.09c-8-3.09-16.26-6.46-24.36-9.66-11.34-7-22.67-13.93-34.14-21.08,7.85,2.81,15.74,5.68,23.53,8.39Q3212.92,2029.46,3230.29,2040.5Zm89.48,33.72c7.91,2.76,15.91,5.65,23.74,8.31q19.36,13.5,38.44,26.66c-8.06-3-16.23-6.16-24.37-9.27Q3338.82,2087.25,3319.77,2074.22Zm34,24.25c-7.95-3-15.8-6-23.83-9.13-12.09-8-24.35-16.17-36.63-24.37,7.78,2.8,15.39,5.38,23.09,8.08C3328.94,2081.61,3341.42,2090.12,3353.77,2098.47Zm-7-14.81c7.69,2.6,15.2,5,22.82,7.45,13.37,9.5,26.6,18.82,39.78,28.1-7.9-2.85-15.78-5.68-23.76-8.64Q3366.29,2097.26,3346.74,2083.66Zm233.47,128.48q-20.39-14.79-41.13-30c7.89,2.78,15.79,5.58,23.59,8.25q20.85,15.49,41.43,30.66C3596.16,2218.13,3588.25,2215.2,3580.21,2212.14Zm26.63,10.94c13.64,10,27.23,20,40.66,29.81-8.05-3.19-16-6.29-24.17-9.61-13.23-9.5-26.65-19.22-40.1-29C3591.18,2217.34,3599,2220.17,3606.84,2223.08Zm-30-12.26q-12.08-4.64-24.34-9.47c-13.18-9.41-26.53-19-39.91-28.65,7.9,2.88,15.71,5.65,23.53,8.42C3549.77,2191.12,3563.37,2201.06,3576.82,2210.82Zm-67.16-40.21c-13.64-9.83-27.32-19.71-41.16-29.77q11.67,3.91,23.2,7.65c14,10.38,27.92,20.56,41.76,30.69Q3521.63,2175,3509.66,2170.61Zm-3.25-1.21q-11.94-4.4-24-8.94-19.89-14.09-40.06-28.51c7.83,2.72,15.59,5.34,23.34,8Q3486.21,2154.84,3506.41,2169.4Zm-66.88-39.46c-13.59-9.72-27.15-19.42-40.92-29.37,7.66,2.42,15.2,4.69,22.78,7,14,10.31,27.89,20.39,41.74,30.47Q3451.4,2134.09,3439.53,2129.94Zm-3.13-1.11c-7.89-2.76-15.85-5.6-23.82-8.47-13.29-9.35-26.61-18.73-40.1-28.3,7.78,2.54,15.59,5.14,23.29,7.59C3409.44,2109.52,3422.92,2119.17,3436.4,2128.83Zm-24.13-7.56c13,9.12,25.89,18.18,38.66,27.07-8.06-3.15-16.11-6.29-24.26-9.55-12.47-8.5-25.1-17.2-37.77-25.94C3396.77,2115.76,3404.48,2118.47,3412.27,2121.27Zm3.24,1.15c7.92,2.84,15.86,5.69,23.7,8.42q20.05,14.35,39.82,28.37c-8.06-3.05-16.21-6.22-24.36-9.4Q3435.25,2136.31,3415.51,2122.42Zm66.56,38.94c12.87,9.13,25.77,18.28,38.44,27.16-8.12-3.3-16.2-6.57-24.41-10-12.53-8.62-25.28-17.5-38-26.35Q3470.14,2156.85,3482.07,2161.36Zm3.35,1.24c8,3,16,6,23.9,8.9,13.3,9.58,26.58,19.14,39.67,28.49-8.14-3.22-16.35-6.53-24.59-9.87C3511.54,2181.1,3498.49,2171.86,3485.42,2162.6Zm66.71,39.62q19.54,13.92,38.79,27.52-12.32-5.19-24.78-10.56-19-13.14-38.21-26.61Q3540.11,2197.49,3552.13,2202.22Zm3.5,1.36c8.1,3.18,16.21,6.36,24.21,9.42q20.05,14.52,39.83,28.75c-8.23-3.37-16.6-6.91-24.93-10.41Q3575.36,2217.65,3555.63,2203.58Zm67.34,40.56c13.06,9.36,25.91,18.49,38.79,27.64q-12.44-5.4-25.05-11c-12.78-8.92-25.55-17.82-38.51-27C3606.46,2237.25,3614.81,2240.81,3623,2244.14Zm3.47,1.38c8.09,3.28,16,6.4,24,9.56,13.47,9.82,26.72,19.37,40,29-8.18-3.46-16.34-6.88-24.63-10.47C3652.77,2264.29,3639.72,2255,3626.44,2245.52Zm-16.51-21.3c8,2.94,16.05,6,23.94,8.79,13.87,10.35,27.72,20.68,41.38,30.79-8.07-3.11-16.24-6.34-24.4-9.57C3637.35,2244.39,3623.65,2234.31,3609.93,2224.22Zm-18.65-24.28c736.47,242,1063.85-35.64,1239.85-296.13,36.82-54.49,67-108.22,92.95-156.28l13.28-5.83c-35.15,85.17-79.9,186.83-146.34,281.94-171.54,245.53-487.7,447.38-1156.8,208.49Q3612.92,2216.23,3591.28,2199.94Zm40,31.14c-7.94-2.85-16-5.9-24.08-8.87q-20.65-15.2-41.63-30.79c7.75,2.64,15.37,5.12,23,7.64Q3610.1,2215.25,3631.28,2231.08ZM3563,2189.52c-14.21-10.55-28.42-21.11-42.84-31.91,7.61,2.38,15.12,4.62,22.65,6.89,14.62,11.09,29,21.94,43.43,32.79C3578.53,2194.74,3570.82,2192.19,3563,2189.52Zm-2.9-1c-7.83-2.69-15.75-5.48-23.67-8.29-13.91-10.18-27.85-20.39-42-30.81,7.74,2.51,15.48,5,23.13,7.43C3531.91,2167.55,3546,2178,3560.11,2188.51ZM3492,2147.59q-21.11-15.6-42.52-31.54,11.33,3.32,22.54,6.49,21.83,16.5,43.32,32.6C3507.65,2152.72,3499.81,2150.12,3492,2147.59Zm-2.78-.92c-7.72-2.52-15.46-5.05-23.27-7.68-13.9-10.12-27.82-20.26-41.92-30.61,7.64,2.33,15.27,4.65,22.84,6.88Q3468.25,2131.17,3489.24,2146.67Zm-67.53-40c-14-10.29-28.22-20.84-42.45-31.4,7.47,2,14.95,4.09,22.36,6,14.41,10.85,28.81,21.68,43,32.26Q3433.22,2110.2,3421.71,2106.67Zm-2.65-.8c-7.63-2.34-15.25-4.68-22.95-7.12-13.71-9.91-27.61-20.06-41.53-30.23,7.47,2.12,14.82,4.07,22.23,6.09C3391,2085.12,3405.13,2095.64,3419.06,2105.87Zm-25.79-8c-7.74-2.46-15.57-5.05-23.38-7.61q-20.23-14.39-40.81-29.16c7.62,2.24,15.3,4.55,22.86,6.7C3365.8,2077.88,3379.62,2088,3393.27,2097.82Zm-26.3-8.56c-7.71-2.54-15.35-5-23.12-7.63-13.25-9.23-26.53-18.51-39.95-28,7.56,2.31,15,4.38,22.47,6.59Q3346.82,2074.94,3367,2089.26Zm-26.35-8.76c-7.89-2.69-15.92-5.56-23.89-8.35-12.92-8.84-25.86-17.69-39-26.74,7.73,2.44,15.55,5,23.22,7.35C3314.31,2062.15,3327.46,2071.32,3340.62,2080.5Zm-27.25-9.53c-7.76-2.73-15.42-5.31-23.26-8.14q-18.89-12.63-38-25.54c7.62,2.48,15.11,4.78,22.67,7.18C3287.75,2053.43,3300.57,2062.21,3313.37,2071Zm-27-9.53c-8.07-2.92-16.31-6.09-24.45-9.13-12-7.84-24.19-15.86-36.4-23.92,7.82,2.63,15.72,5.38,23.48,7.92Q3267.8,2049,3286.36,2061.44Zm-24.78-8.23q17.55,11.43,34.84,22.56c-7.8-3.17-15.49-6.18-23.37-9.46-11.54-7.21-23.06-14.4-34.75-21.79C3246.12,2047.5,3253.83,2050.32,3261.58,2053.21Zm4.05,1.51c8,3,16.19,6.13,24.16,9,12,8,23.93,16,35.71,23.81-8.1-3.2-16.35-6.62-24.52-9.93Q3283.43,2066.33,3265.63,2054.72Zm64,35.52c11.85,7.81,23.58,15.46,35.28,23.09-8.23-3.5-16.68-7.27-25-10.89-11.52-7.31-23-14.59-34.68-22.08C3313.34,2083.64,3321.58,2087.07,3329.62,2090.24Zm4.32,1.71c7.87,3.09,15.54,5.9,23.34,8.88,12.15,8.21,24.28,16.39,36.26,24.39-8-3.31-15.94-6.55-24-10Q3351.84,2103.75,3333.94,2092Zm27.15,10.33c8.06,3.07,16.2,6.23,24.18,9.19,12.56,8.67,25.11,17.34,37.48,25.77-8.22-3.3-16.59-6.8-24.9-10.23C3385.73,2118.92,3373.41,2110.6,3361.09,2102.28Zm65.26,37.41q18.27,12.43,36.26,24.56c-8.09-3.48-16.11-6.88-24.29-10.48-12.06-7.94-24.13-15.89-36.35-24C3410.13,2133.1,3418.29,2136.45,3426.35,2139.69Zm3.93,1.54q12.1,4.83,24.06,9.47c12.68,8.82,25.34,17.63,37.83,26.22-8.28-3.47-16.72-7.16-25.09-10.75Q3448.83,2153.89,3430.28,2141.23Zm65.48,38.17c12.39,8.51,24.59,16.8,36.82,25.12-8.35-3.72-16.87-7.65-25.33-11.5-12-7.95-23.93-15.91-36.06-24.06C3479.4,2172.47,3487.64,2176,3495.76,2179.4Zm4,1.66c8.14,3.38,16.19,6.66,24.24,9.92,12.71,8.9,25.28,17.63,37.81,26.33-8.21-3.57-16.43-7.13-24.75-10.82C3524.73,2198.09,3512.33,2189.66,3499.8,2181.06Zm66,39c12.27,8.5,24.4,16.84,36.49,25.13-8.22-3.77-16.37-7.46-24.7-11.35q-18-12.11-36.3-24.48Q3553.59,2214.78,3565.77,2220Zm4.28,1.87c8.18,3.52,16.25,6.9,24.33,10.3,12.81,9,25.44,17.86,38.06,26.67-8.37-3.74-16.84-7.6-25.31-11.48C3594.83,2239,3582.52,2230.53,3570.05,2221.9Zm66.3,39.7q18.38,12.84,36.5,25.37c-8.4-3.94-16.87-8-25.38-12.08q-17.78-12-35.86-24.42Q3624.06,2256.13,3636.35,2261.6Zm4.27,1.89c8.31,3.68,16.64,7.38,24.85,10.93q18.89,13.41,37.48,26.49c-8.28-3.8-16.52-7.54-24.92-11.47Q3659.46,2276.63,3640.62,2263.49Zm66.48,40.34c12.26,8.62,24.54,17.25,36.59,25.64-8.51-4.09-17.19-8.39-25.82-12.63-11.59-7.91-23.4-16.07-35.2-24.21C3690.9,2296.47,3699,2300.12,3707.1,2303.83Zm-37.53-27.61c8.16,3.53,16.16,6.84,24.23,10.23q19.65,14.18,39,28c-8.36-3.73-16.83-7.59-25.3-11.46Q3688.66,2289.76,3669.57,2276.22Zm-15.71-19.79c8.08,3.18,16.13,6.33,24.11,9.39C3691.8,2276,3705.4,2286,3719,2296c-8.2-3.36-16.54-6.89-24.85-10.39C3680.79,2275.94,3667.43,2266.31,3653.86,2256.43ZM3636.73,2234c667.72,237.51,983.58,35.65,1155.07-209.81,66.73-95.52,111.59-197.63,146.82-283l13.33-5.88c-35.48,116.18-83.6,261.16-172.47,384.76-165.38,230-472,386-1101.15,144.93C3664.61,2254.81,3650.67,2244.4,3636.73,2234Zm1302.41-494.11q2.82-6.81,5.55-13.5l12-6.82q-2.17,7.17-4.41,14.51C4948,1736,4943.66,1737.9,4939.14,1739.88Zm4.79-14.16-3.25,1.84-8.43,4.78q3.26-6.06,6.41-12l10.59-7.62Zm-2.78,2.67,2.2-1.25q-2.68,6.57-5.46,13.29l-13.07,5.74q3.33-6.2,6.58-12.26Zm-17.74,18.39c-4.19,1.83-8.53,3.72-12.9,5.61q3.84-5.54,7.56-10.94l11.79-6.66Q4926.68,1740.72,4923.41,1746.78Zm-.74,1.36c-25.8,47.77-55.8,101.07-92.33,155.14-176,260.53-503.67,538.19-1241.41,294.89-14.47-10.89-28.92-21.77-43.59-32.91,854.94,256.82,1190.22-160.51,1364.14-411.38C4914,1751.94,4918.39,1750,4922.67,1748.14ZM3543.14,2163.59q-21.82-16.56-44-33.57c820.4,222.24,1198-145.72,1395.73-369.84,4.38-1.88,8.74-3.75,13-5.58C4733.62,2005.63,4397.83,2421.28,3543.14,2163.59Zm-2.51-.76c-7.56-2.29-15.07-4.52-22.71-6.91q-21.55-16.15-43.46-32.71c7.47,2.11,14.89,4.14,22.29,6.16Q3518.86,2146.29,3540.63,2162.83Zm-68.27-41.2c-14.57-11-29.31-22.22-44.1-33.5q11,2.76,21.87,5.38c14.95,11.54,29.85,23,44.57,34.29C3487.28,2125.78,3479.86,2123.75,3472.36,2121.63Zm-2.42-.67c-7.53-2.14-15.11-4.36-22.71-6.6-14.26-10.64-28.72-21.5-43.21-32.4,7.37,1.93,14.68,3.77,22,5.61C3440.74,2098.81,3455.44,2110,3469.94,2121Zm-68-40.55q-21.95-16.51-44.15-33.33,10.82,2.46,21.53,4.8,22.56,17.32,44.75,34.23Q3413.06,2083.32,3402,2080.41Zm-2.4-.65c-7.43-2-14.92-4-22.41-6.05q-21.54-16-43.36-32.29c7.28,1.74,14.57,3.47,21.8,5.13Q3377.73,2063.35,3399.56,2079.76Zm-24.86-6.71c-7.46-2.05-14.9-4.06-22.42-6.2q-21.08-15.39-42.51-31.2c7.3,1.82,14.52,3.5,21.77,5.24Q3353.26,2057.13,3374.7,2073.05Zm-25-7c-7.6-2.16-15.29-4.47-22.94-6.72-13.72-9.86-27.64-20-41.58-30.05,7.42,1.92,14.87,3.89,22.24,5.73C3321.55,2045.48,3335.68,2055.88,3349.65,2066.08Zm-25.65-7.52c-7.57-2.24-15.05-4.37-22.68-6.7-13.38-9.43-27-19.15-40.6-28.85,7.38,2,14.63,3.76,22,5.67C3296.52,2038.72,3310.37,2048.77,3324,2058.56Zm-25.58-7.62c-7.7-2.36-15.54-4.91-23.3-7.37q-19.71-13.63-39.75-27.64c7.57,2.11,15.19,4.31,22.7,6.34C3271.59,2031.91,3285.11,2041.56,3298.42,2050.94Zm-26.29-8.32c-7.61-2.41-15.14-4.7-22.8-7.21-13-8.77-25.89-17.5-39-26.48,7.5,2.16,14.88,4.15,22.33,6.24Q3252.55,2029.08,3272.13,2042.62Zm-26-8.24c-7.85-2.57-15.86-5.39-23.78-8.06-12.51-8.27-25-16.57-37.71-25,7.61,2.28,15.3,4.68,22.86,6.87C3220.52,2017.05,3233.32,2025.69,3246.15,2034.38Zm-27.27-9.25c-7.74-2.62-15.42-5.16-23.22-7.87-12-7.76-24.23-15.68-36.45-23.64,7.52,2.32,14.95,4.51,22.41,6.75Q3200.4,2012.93,3218.88,2025.13ZM3192,2016c-7.92-2.77-16-5.76-24-8.62-11.58-7.23-23.3-14.62-35-22.06,7.69,2.45,15.42,5,23.06,7.34C3168.06,2000.52,3180.09,2008.36,3192,2016Zm-28.1-10.12c-7.67-2.76-15.3-5.48-23-8.33-11.34-6.85-22.65-13.68-34.11-20.7,7.57,2.49,15.08,4.89,22.6,7.3Q3146.7,1995.15,3163.86,2005.88Zm-23.37-7.44c10.46,6.34,20.93,12.68,31.24,18.83-7.76-3.16-15.68-6.55-23.52-9.8-10.22-5.85-20.44-11.7-30.76-17.67C3125.15,1992.71,3132.85,1995.62,3140.49,1998.44Zm4.54,1.64c7.58,2.79,15.09,5.49,22.62,8.18,11.17,7,22.21,13.78,33.25,20.59-7.83-3.1-15.6-6.13-23.49-9.32C3166.71,2013.16,3155.89,2006.64,3145,2000.08Zm60.55,31.65c10.37,6.39,20.73,12.78,31,19-7.58-3.25-15.06-6.38-22.7-9.72q-15.45-9-31.09-18.33C3190.41,2025.76,3198,2028.74,3205.58,2031.73Zm5,2c7.84,3.08,15.75,6.25,23.52,9.23,11.3,7.15,22.46,14.15,33.62,21.13-8.21-3.42-16.62-7.13-24.91-10.66Q3226.85,2043.73,3210.61,2033.73Zm62.14,33.5c10.43,6.53,20.84,13,31.13,19.38-8.05-3.6-16.24-7.4-24.37-11.11-10.14-6.05-20.4-12.25-30.68-18.47C3256.79,2060.41,3264.87,2064,3272.75,2067.23Zm5,2c7.72,3.2,15.3,6.19,23,9.29,11.33,7.29,22.52,14.4,33.71,21.52-7.87-3.44-15.63-6.74-23.58-10.28Q3294.38,2079.64,3277.72,2069.23Zm61.87,34.11c10.5,6.68,21,13.33,31.36,19.82-7.91-3.68-15.8-7.34-23.79-11.12-10.07-6.11-20.28-12.4-30.49-18.69C3324.37,2096.77,3332,2100,3339.59,2103.34Zm5.51,2.4c8,3.48,16.15,7,24.11,10.41,11.2,7.3,22.29,14.45,33.35,21.57q-12.2-5.53-24.53-11.24Q3361.68,2116.25,3345.1,2105.74Zm28.72,12.32c8,3.36,15.83,6.59,23.71,9.85,12,8,23.76,15.73,35.58,23.52-8.23-3.64-16.55-7.4-24.87-11.16C3396.82,2132.93,3385.39,2125.59,3373.82,2118.06Zm64.14,36.57q16.76,11,33.28,21.8-12.31-5.78-24.8-11.76-16.3-10.34-32.88-21C3421.7,2147.35,3429.91,2151.09,3438,2154.63Zm5,2.22c8,3.51,15.84,6.8,23.75,10.19,11.86,8,23.58,15.81,35.29,23.6-8.15-3.73-16.26-7.4-24.5-11.24C3466.07,2172,3454.59,2164.48,3443,2156.85Zm63.92,37c11.27,7.5,22.5,15,33.6,22.26-8.3-4-16.69-8.12-25.09-12.25-10.62-6.8-21.38-13.78-32.16-20.78C3491.22,2186.81,3499,2190.31,3506.9,2193.89Zm5.22,2.38c8.24,3.73,16.49,7.48,24.63,11.09q17.7,12,35.15,23.75c-8.35-3.93-16.79-8-25.24-12Q3529.52,2207.83,3512.12,2196.27Zm65.06,38.38c11,7.36,21.91,14.74,32.68,21.89-8.14-4-16.25-8-24.5-12.15-10.84-7-21.89-14.28-32.91-21.52C3560.71,2226.81,3569,2230.83,3577.18,2234.65Zm5.36,2.49c8.15,3.8,16.16,7.42,24.22,11.1,11.8,8.09,23.57,16.15,35.18,24-8.41-4.06-17-8.27-25.47-12.46C3605.27,2252.38,3593.91,2244.77,3582.54,2237.14Zm64.57,38.59q16.79,11.37,33.38,22.5c-8.19-4.14-16.37-8.26-24.67-12.52-11-7.16-22-14.47-33.13-21.82Q3635,2269.91,3647.11,2275.73Zm5.52,2.63c8.36,4,16.76,8,25,11.91,11.61,8,23.21,16,34.65,23.83-8.38-4.13-16.78-8.29-25.26-12.56C3675.68,2294,3664.16,2286.16,3652.63,2278.36Zm64.85,39.3c11.47,7.81,22.76,15.41,34.08,23.05q-12.43-6.4-25-13c-11-7.25-22-14.51-33.11-21.92C3701.52,2309.85,3709.48,2313.73,3717.48,2317.66Zm-5.83-11.75q12.48,5.67,24.82,11.17c12.56,9,25.13,18,37.48,26.71-8.37-3.92-16.76-7.88-25.24-11.94C3736.49,2323.35,3724.08,2314.64,3711.65,2305.91ZM3697.49,2288c8.22,3.44,16.43,6.88,24.54,10.19q20.1,14.73,39.88,29.08c-8.28-3.59-16.65-7.29-25-11Q3717.3,2302.27,3697.49,2288Zm-16.39-21c627.58,239.6,933.84,83.52,1099.15-146.41,89.16-124,137.33-269.46,172.85-385.83l13.37-5.92c-30.81,144.13-75,330-181.56,474.55-159.48,216.37-458.82,340.36-1062.51,94C3708.7,2287.3,3695,2277.27,3681.1,2267Zm1272.37-533.44q2.26-7.43,4.46-14.68,6.21-3.51,12.11-6.82-1.64,7.73-3.33,15.63Zm4.86-16q2-6.52,3.91-12.92l.47-1.54q5.55-3.94,10.85-7.67l-1,4.63-2.28,10.76Zm4.82-15.94,4.29-14.17q4.91-4.34,9.6-8.41l-3.19,15Q4968.63,1697.73,4963.15,1701.62Zm-7.29-5.1q-4.26,3.84-8.67,7.84l5.83-10.91q3.88-4.42,7.66-8.67Q4958.3,1690.57,4955.86,1696.52Zm-.82,2-4.1,10-1,2.5q-5,3.6-10.24,7.37l2.85-5.34,3.33-6.25Q4950.53,1702.61,4955,1698.55Zm-13.35,14.1-3.76,7-8.88,6.4-.88.64,6.6-9.65.26-.39,8.74-8Zm-12.09,14.23,7.31-5.27-6.21,11.61-11.41,6.45c2.46-3.57,4.9-7.12,7.29-10.62Zm-12.19,13.86c-3.57,2-7.16,4-10.84,6.1,2.67-3,5.28-6,7.88-9l9.86-7.1Zm-1.23,1.78c-2.41,3.5-4.85,7-7.32,10.59-4.1,1.77-8.29,3.58-12.54,5.4,2.81-3.19,5.64-6.39,8.39-9.53Zm-21.89,16.87-11.93,5.09q4.5-4,8.88-8l11-6.14Zm-1.47,1.66c-198.11,224.3-576.14,590.26-1395.74,367.41q-22.17-17-44.73-34.4c787.21,189.14,1206.55-130,1427.8-327.61Q4886.58,1763.72,4892.82,1761.05ZM3450.46,2092.61c-15.11-11.67-30.25-23.36-45.58-35.27,755.39,157.55,1215.88-113.44,1460.5-284.64l12.05-5.09C4655.56,1965.35,4236.09,2282.08,3450.46,2092.61Zm-2.21-.55c-7.28-1.76-14.57-3.54-21.91-5.39-14.88-11.35-29.81-22.75-44.9-34.34q10.72,2.36,21.37,4.57C3418.08,2068.77,3433.18,2080.43,3448.25,2092.06ZM3379.68,2051c-15.1-11.6-30.23-23.24-45.55-35.1,7,1.28,13.89,2.47,20.82,3.69,15.52,12.15,30.85,24.1,46.13,36C3394,2054.05,3386.85,2052.55,3379.68,2051Zm-2.1-.45q-10.77-2.39-21.65-4.88c-14.93-11.32-29.84-22.63-45-34.21,7.07,1.37,14.17,2.78,21.21,4.08C3347.44,2027.36,3362.51,2039,3377.58,2050.53Zm-23.86-5.4q-10.87-2.51-21.84-5.15c-14.66-11-29.31-21.93-44.18-33.14,7.08,1.44,14.13,2.82,21.17,4.19C3324,2022.57,3338.83,2033.83,3353.72,2045.13Zm-24.1-5.68c-7.29-1.75-14.56-3.49-21.9-5.32q-21.61-15.92-43.47-32.15,10.71,2.28,21.37,4.45C3300.42,2017.6,3315,2028.53,3329.62,2039.45Zm-24.3-5.93c-7.39-1.85-14.86-3.81-22.3-5.74q-21.09-15.32-42.5-31,10.8,2.39,21.54,4.69Q3283.84,2017.71,3305.32,2033.52Zm-24.76-6.38c-7.38-1.92-14.7-3.76-22.14-5.76q-20.68-14.76-41.69-29.88c7.22,1.67,14.38,3.24,21.56,4.83Q3259.55,2011.89,3280.56,2027.14Zm-24.78-6.5c-7.55-2-15.19-4.24-22.79-6.37-13.4-9.37-26.95-18.93-40.55-28.55,7.31,1.76,14.64,3.54,21.91,5.22Q3235.18,2005.93,3255.78,2020.64Zm-25.52-7.13c-7.47-2.1-14.87-4.07-22.39-6.26-13.07-9-26.31-18.1-39.6-27.32,7.29,1.81,14.48,3.47,21.73,5.22C3203.5,1994.7,3217,2004.2,3230.26,2013.51Zm-25.26-7.1c-7.62-2.22-15.36-4.63-23-6.94-12.82-8.57-25.68-17.19-38.68-26,7.45,1.92,14.94,3.92,22.35,5.77Q3185.46,1993,3205,2006.41Zm-26.06-7.85c-7.53-2.26-15-4.44-22.58-6.79-12.46-8.13-25-16.3-37.59-24.62,7.32,2,14.53,3.74,21.8,5.63C3153.47,1981.51,3166.2,1990,3178.94,1998.56Zm-25.77-7.75c-7.76-2.42-15.66-5-23.48-7.55-12-7.57-24-15.32-36.16-23.1,7.46,2.07,15,4.25,22.42,6.24Q3134.69,1978.76,3153.17,1990.81Zm-27.11-8.72c-7.57-2.43-15.11-4.82-22.73-7.33q-17.34-10.65-34.93-21.6c7.39,2.12,14.7,4.1,22,6.14C3102.39,1967,3114.3,1974.63,3126.06,1982.09Zm-26.48-8.54c-7.69-2.56-15.49-5.28-23.24-7.91-11.18-6.63-22.38-13.28-33.67-20.05,7.48,2.22,15,4.52,22.46,6.66Q3082.48,1963.07,3099.58,1973.55Zm-27.7-9.45c-7.56-2.59-15.1-5.15-22.71-7.82q-15.87-9-31.94-18.29c7.31,2.24,14.56,4.36,21.83,6.52Q3055.56,1954.42,3071.88,1964.1Zm-27.47-9.46c-7.72-2.72-15.52-5.58-23.3-8.38-9.76-5.28-19.72-10.81-29.64-16.3,7.27,2.29,14.56,4.62,21.78,6.84Q3028.93,1945.84,3044.41,1954.64Zm-23.68-7.51c8.91,4.79,17.71,9.43,26.57,14.15-6.77-2.73-13.54-5.46-20.35-8.26-8.81-4.41-17.59-8.78-26.48-13.3Q3010.63,1943.47,3020.73,1947.13Zm6.45,2.36q10.84,3.88,21.65,7.68c9.86,5.6,19.62,11.07,29.38,16.53-7.42-2.91-14.93-6-22.41-9Q3041.54,1957.18,3027.18,1949.49Zm57,27.52c8.76,4.89,17.52,9.79,26.19,14.56-7.26-3.12-14.64-6.42-22-9.62q-12.15-6.33-24.48-12.89C3070.69,1971.76,3077.42,1974.38,3084.16,1977Zm6.28,2.41q10.7,4.15,21.32,8.19c9.89,5.74,19.62,11.28,29.42,16.91-7.63-3.2-15.23-6.35-22.93-9.63C3109.08,1989.86,3099.75,1984.63,3090.44,1979.42Zm57.44,28.94c8.36,4.81,16.73,9.61,25,14.28-6.5-2.94-13-5.81-19.5-8.81q-13.21-7.11-26.51-14.29Q3137.41,2004,3147.88,2008.36Zm7,3c7.41,3.06,14.83,6.14,22.18,9.11,10,6,20,11.81,30,17.65-7.92-3.48-16.07-7.28-24.07-10.87Q3169,2019.36,3154.9,2011.31Zm58.64,30.6c8.59,5,17.1,10,25.6,14.87-7.22-3.4-14.51-6.88-21.79-10.37-8.13-4.49-16.37-9.13-24.6-13.74C3199.69,2035.76,3206.66,2038.9,3213.54,2041.91Zm6.77,2.9c7.46,3.24,14.82,6.36,22.21,9.52q14.83,9,29.51,17.76c-7.29-3.35-14.54-6.64-21.9-10.08C3240.21,2056.3,3230.33,2050.65,3220.31,2044.81Zm58.89,31.59c8.81,5.25,17.52,10.37,26.25,15.52-6.72-3.29-13.33-6.42-20.11-9.78-8.47-4.79-17-9.69-25.63-14.63C3266.27,2070.56,3272.7,2073.43,3279.2,2076.4Zm7.55,3.44c7.9,3.59,15.92,7.34,23.74,10.82,9.77,6,19.5,12,29.15,17.86-7.75-3.69-15.67-7.61-23.5-11.4C3306.36,2091.38,3296.63,2085.71,3286.75,2079.84Zm60.07,33.08c8.83,5.35,17.54,10.54,26.28,15.79-7.19-3.62-14.47-7.36-21.73-11.07q-12.4-7.16-24.94-14.47Q3336.66,2108.09,3346.82,2112.92Zm7.89,3.69q11.53,5.43,23,10.74,14.52,9.08,28.92,18c-7.32-3.6-14.56-7.1-22-10.79C3374.7,2128.6,3364.76,2122.67,3354.71,2116.61Zm30,14c7.78,3.58,15.44,7,23.14,10.48,10.57,6.8,21.13,13.6,31.54,20.21-8.09-3.89-16.29-7.91-24.48-11.91C3405,2143.29,3394.86,2137,3384.75,2130.66Zm61.34,34.88q14.77,9.35,29.42,18.52c-7.69-3.89-15.48-7.89-23.25-11.88-9.57-5.8-19.14-11.6-28.8-17.52C3431.05,2158.35,3438.57,2162,3446.09,2165.54Zm7,3.31c8,3.82,16.13,7.7,24.07,11.4,10.29,6.71,20.6,13.42,30.73,19.93-7.78-3.84-15.47-7.57-23.34-11.52C3474.15,2182.17,3463.62,2175.52,3453.08,2168.85Zm62,35.91q15,9.61,29.88,19c-7.79-4-15.72-8.24-23.6-12.37-9.59-5.9-19.15-11.76-28.83-17.77C3500.07,2197.41,3507.55,2201.08,3515.05,2204.76Zm7.63,3.77c7.93,3.87,15.78,7.65,23.62,11.41,10.56,6.93,21.09,13.84,31.5,20.6q-12.06-6.11-24.26-12.38Q3538.23,2218.47,3522.68,2208.53Zm62.32,36.71c9.88,6.39,19.58,12.57,29.36,18.84q-11.47-6.06-23.09-12.29c-9.81-6.11-19.57-12.15-29.49-18.4C3569.53,2237.36,3577.33,2241.38,3585,2245.24Zm7.71,3.87c7.87,3.94,15.6,7.71,23.38,11.53q16.24,10.76,32.3,21.26c-8.21-4.24-16.57-8.67-24.88-13Q3608.2,2259.09,3592.71,2249.11Zm62.74,37.44c9.72,6.35,19.32,12.56,28.92,18.78-7.54-4.06-15.08-8.11-22.7-12.27-9.76-6.15-19.51-12.28-29.4-18.57C3640,2278.53,3647.8,2282.62,3655.45,2286.55Zm7.16,3.63q12.07,6.18,24,12.18c10.89,7.27,21.6,14.34,32.35,21.44-8.22-4.32-16.6-8.84-24.93-13.29C3683.6,2303.76,3673.19,2297.07,3662.61,2290.18Zm63.52,38.36q14.38,9.49,28.59,18.78c-7.48-4.09-14.95-8.17-22.52-12.36q-14.37-9.15-28.91-18.48C3710.94,2320.54,3718.57,2324.58,3726.13,2328.54Zm7.52,3.9c8.15,4.24,16.31,8.51,24.35,12.63q16,10.77,31.72,21.25c-8.19-4.39-16.54-9-24.84-13.47C3754.53,2346.11,3744.15,2339.35,3733.65,2332.44Zm63.55,38.85c9.42,6.27,18.85,12.58,28.11,18.67-7.53-4.17-15.07-8.37-22.68-12.65-9.26-5.94-18.64-12-28-18.15Q3786,2365.31,3797.2,2371.29Zm7.86,4.15c8.16,4.32,16.38,8.71,24.43,12.91,10.45,7.09,20.88,14.18,31.16,21.08-8.19-4.45-16.54-9.09-24.84-13.67Q3820.57,2385.76,3805.06,2375.44Zm63.35,39.17q14.48,9.69,28.83,19.22-11.67-6.57-23.51-13.32c-9.18-5.94-18.5-12.05-27.81-18.15Q3857.23,2408.55,3868.41,2414.61Zm.45-.77q-16.23-10.87-32.72-22.06c8.19,4.24,16.25,8.34,24.34,12.46,11.21,7.76,22.39,15.48,33.43,23Q3881.48,2420.67,3868.86,2413.84Zm-38.92-26.27c-11.71-7.94-23.42-15.89-35.3-24q12.59,6.27,25,12.33c11.85,8.29,23.57,16.41,35.26,24.5C3846.58,2396.12,3838.35,2392,3829.94,2387.57Zm-40.66-27.73q-17.84-12.26-35.92-24.79c8.36,4,16.7,7.95,24.95,11.8q18.49,13.07,36.7,25.78C3806.51,2368.46,3797.9,2364.16,3789.28,2359.84Zm-48.76-41c8.33,3.69,16.68,7.4,24.9,10.95,12.86,9.34,25.73,18.69,38.38,27.78-8.31-3.79-16.63-7.59-25.06-11.53C3766.13,2337.14,3753.34,2328,3740.52,2318.86Zm-15.12-19.32c602,244.79,900.88,120.67,1060.28-95.59,106.85-145,151-331.28,181.86-475.58l2.44-1.08,10.94-4.85C4958,1892.67,4923,2117.84,4802,2278.37c-154.31,204.84-448.58,304.48-1036.22,50.62Q3745.73,2314.43,3725.4,2299.54Zm1244.19-573.12-1.8.8q1.71-8,3.35-15.78,6.27-3.53,12.16-6.79-1.1,8.25-2.23,16.68Zm1.82-16.22,2.1-9.94,1.19-5.63q5.63-3.93,10.95-7.58l-1.15,8.63-1,7.8Q4977.61,1706.72,4971.41,1710.2Zm3.58-16.93q1.64-7.74,3.24-15.27,5-4.3,9.74-8.3-1.06,7.93-2.15,16.09Q4980.54,1689.39,4975,1693.27Zm2.38-15.78q-4.6,4-9.4,8.23,2.11-7,4.19-13.75,4.24-4.65,8.33-9Q4978.95,1670.09,4977.37,1677.49Zm-4.55-7.64q2-6.67,4.06-13.14,3.59-4.87,7.05-9.5-1.52,6.84-3,13.91Q4976.91,1665.35,4972.82,1669.85Zm4.94-15.94q2-6.21,3.87-12.2,2.88-4.93,5.7-9.61-1.45,6.33-2.91,12.89Q4981.13,1649.33,4977.76,1653.91Zm5-18.7q-1,3-2,6.13c-1,1.67-2,3.37-2.94,5.09Q4980.3,1640.69,4982.74,1635.21Zm-8.3,19.07q2.51-4.46,5-8.72-1.68,5.28-3.38,10.73-2.9,4-5.86,8.1Q4972.32,1659.25,4974.44,1654.28Zm-4.25,7.59-2.51,6c-1.17,1.64-2.34,3.3-3.53,5Q4967.21,1667.26,4970.19,1661.87Zm-10,18.33q3-4.25,5.86-8.34-2.1,5-4.24,10.25-3.34,3.75-6.78,7.65Zm-4.82,6.93q-1.55,2.86-3.1,5.78-2.07,2.34-4.15,4.73Q4951.76,1692.3,4955.34,1687.13Zm-11.9,17.28c2.3-2.63,4.57-5.24,6.82-7.8-1.71,3.18-3.42,6.39-5.16,9.64l-7.73,7Zm-5.41,6.23-3.72,5.43-4.78,4.37Q4933.83,1715.46,4938,1710.64Zm-13.87,16,2.69-2.45,5.12-4.68-6.08,8.88-8.7,6.28Zm-6,5.51-4.32,5-5.36,3.85Zm-15.83,14.4,8.79-6.32-7,8-9.71,5.44C4897.05,1751.28,4899.7,1748.89,4902.29,1746.54Zm-6.77,4.84-4.84,4.36-5.78,3.21Zm-17.84,12.67c3.35-1.85,6.6-3.66,9.86-5.48l-7.9,7.07-10.54,4.46C4872,1768.06,4874.82,1766.07,4877.68,1764.05Zm-7.45,4.09c-1.74,1.23-3.52,2.47-5.3,3.71l-6.09,2.54C4862.72,1772.28,4866.47,1770.21,4870.23,1768.14Zm-19.71,10.76,10.73-4.48c-245.63,171.38-705.63,439.1-1458.1,281.57q-23-17.86-46.24-36.07C4081.79,2147.33,4582.73,1923.94,4850.52,1778.9Zm-8.41,3.47c-269.83,145.15-768.44,363-1486.81,236.29-15.45-12.1-31.08-24.42-46.73-36.76C4009.45,2081.3,4553,1901.43,4842.11,1782.37ZM3306.76,1981.65c15.59,12.3,31.19,24.61,46.58,36.66-7-1.23-13.86-2.4-20.85-3.7-15.26-11.82-30.75-23.9-46.21-36C3293.11,1979.67,3300,1980.68,3306.76,1981.65Zm-22.38-3.3c15.44,12,30.91,24.12,46.13,35.91-7.06-1.31-14.2-2.76-21.29-4.14-15-11.46-30.24-23.23-45.44-34.95Q3274.1,1976.79,3284.38,1978.35Zm-22.52-3.48c15.16,11.69,30.35,23.41,45.3,34.84-7-1.37-14.1-2.74-21.2-4.18-14.77-11.15-29.74-22.54-44.74-34C3248.12,1972.72,3255,1973.79,3261.86,1974.87Zm-22.64-3.63c15,11.4,29.92,22.74,44.67,33.88-7.14-1.46-14.31-3-21.49-4.52q-21.89-16.26-44.13-33C3225.26,1968.84,3232.26,1970.08,3239.22,1971.24Zm-23-4q22.16,16.63,44,32.84-10.76-2.3-21.58-4.69c-14.3-10.46-28.65-21-43.2-31.74C3202.41,1965,3209.3,1966.07,3216.24,1967.28Zm-22.93-4c14.51,10.73,28.82,21.21,43.09,31.65q-10.83-2.42-21.7-4.9c-14.12-10.16-28.28-20.37-42.62-30.8C3179.15,1960.58,3186.27,1962,3193.31,1963.29Zm-23.37-4.46c14.26,10.38,28.34,20.54,42.38,30.64-7.29-1.69-14.64-3.46-22-5.23-13.73-9.71-27.51-19.47-41.43-29.41C3156,1956.22,3162.93,1957.5,3169.94,1958.83Zm-23.2-4.41c13.83,9.87,27.51,19.58,41.16,29.24-7.29-1.76-14.57-3.48-21.91-5.31q-20.23-14-40.68-28.35C3132.45,1951.47,3139.62,1953,3146.74,1954.42Zm-23.76-4.9q20.31,14.22,40.37,28.15c-7.44-1.86-14.95-3.85-22.44-5.79-13-8.79-26.13-17.82-39.27-26.82C3108.77,1946.59,3115.88,1948.05,3123,1949.52Zm-23.73-5c13,8.93,26.09,17.91,38.93,26.61-7.3-1.89-14.54-3.69-21.88-5.66q-19.18-12.66-38.68-25.71Q3088.45,1942.22,3099.25,1944.56Zm-24.22-5.34q19.33,12.93,38.35,25.48c-7.48-2-15.05-4.2-22.57-6.29-12.39-8-24.79-15.92-37.35-24.1Q3064.26,1936.82,3075,1939.22Zm-24.21-5.51c12.41,8.08,24.67,16,36.91,23.84-7.42-2.07-14.79-4-22.25-6.19-11.94-7.45-24-15-36.08-22.67Q3040.14,1931.26,3050.82,1933.71ZM3026.5,1928c11.94,7.54,23.88,15.08,35.67,22.44-7.53-2.17-15.18-4.54-22.76-6.8q-17.26-10.36-34.77-21C3011.93,1924.4,3019.23,1926.23,3026.5,1928Zm-24.94-6.15c11.51,7,22.89,13.89,34.25,20.72-7.4-2.21-14.77-4.36-22.22-6.64q-16.49-9.54-33.19-19.35C2987.48,1918.38,2994.5,1920.08,3001.56,1921.83Zm-24.55-6.16c10.91,6.4,21.82,12.81,32.6,19-7.43-2.29-15-4.77-22.45-7.13-10.73-5.92-21.35-11.69-32.2-17.77C2962.31,1911.77,2969.69,1913.78,2977,1915.67Zm-25.65-6.8c10.47,5.87,20.76,11.49,31.12,17.23-7.17-2.29-14.33-4.53-21.54-6.88-10.07-5.25-20.1-10.43-30.29-15.84C2937.59,1905.27,2944.45,1907,2951.36,1908.87Zm-24.87-6.66c9.76,5.19,19.43,10.26,29.07,15.29-7.24-2.37-14.57-4.91-21.85-7.35-9.49-4.64-18.94-9.21-28.53-14C2912.28,1898.16,2919.42,1900.26,2926.49,1902.21Zm-26.07-7.41q13.11,6.56,26.07,12.9c-6.57-2.22-13.14-4.44-19.75-6.71-8.63-3.91-17.22-7.74-25.93-11.77C2887.37,1891.14,2893.88,1892.94,2900.42,1894.8Zm-63.87-18.91c3.9,1.2,7.8,2.37,11.69,3.55,3.37,1.43,6.79,3,10.14,4.35C2851.12,1881.18,2843.87,1878.61,2836.55,1875.89Zm42.18,15.24c-7.42-3.07-14.79-6.05-22.26-9.19,6.23,1.87,12.51,3.87,18.73,5.69q11.09,5.14,22.08,10.14C2891.14,1895.64,2884.91,1893.32,2878.73,1891.13Zm19.76,8.06c2.66.93,5.27,1.78,7.92,2.69l13.05,5.87C2912.53,1905,2905.49,1902.06,2898.49,1899.19Zm38.11,15.23c-6.86-3-13.8-6.19-20.72-9.32,5.83,2,11.66,4,17.47,5.93q10.76,5.25,21.45,10.44C2948.74,1919.13,2942.69,1916.8,2936.6,1914.42Zm18.41,8.15c3.35,1.29,6.73,2.62,10.07,3.89,2.39,1.17,4.79,2.36,7.15,3.48C2966.48,1927.47,2960.78,1925.08,2955,1922.57Zm43.14,18.47c-7.49-3.51-14.9-6.89-22.43-10.46,6,2.25,11.83,4.38,17.75,6.58q10.92,5.63,21.71,11.08C3009.54,1945.9,3003.82,1943.43,2998.15,1941Zm22.41,10.41c2,.83,4,1.61,6,2.44l10.84,5.38C3031.83,1956.74,3026.17,1954.06,3020.56,1951.45Zm38.5,17.52c-6.87-3.37-13.82-6.85-20.75-10.31,5.7,2.32,11.43,4.68,17.1,6.95,6.46,3.46,12.93,6.94,19.3,10.28C3069.49,1973.59,3064.3,1971.32,3059.06,1969Zm21.06,10.36c2.62,1.15,5.27,2.34,7.88,3.49l6.38,3.28C3089.6,1983.81,3084.92,1981.65,3080.12,1979.33Zm41.08,19.49c-6.08-3.1-12.23-6.29-18.35-9.44,5.06,2.19,10.05,4.26,15.09,6.41,7.66,4.19,15.19,8.19,22.8,12.3C3134.31,2005.12,3127.69,2001.87,3121.2,1998.82Zm27.15,13.79c1.6.74,3.15,1.42,4.75,2.15l4.74,2.56C3154.67,2015.73,3151.53,2014.21,3148.35,2012.61Zm38.29,19c-7.08-3.73-14.16-7.47-21.31-11.3q8.7,4,17.33,7.83,10.85,6.08,21.66,12.1C3198.46,2037.38,3192.54,2034.46,3186.64,2031.58Zm27.46,14.34,3,1.41c1.25.69,2.51,1.41,3.75,2.09C3218.6,2048.27,3216.33,2047.07,3214.1,2045.92Zm38.36,19.64c-7-3.77-13.89-7.51-20.88-11.33,6.07,2.88,12.22,5.87,18.23,8.68,6.27,3.61,12.56,7.24,18.77,10.78Q3260.56,2069.67,3252.46,2065.56Zm29.34,15.85c1,.51,2.1,1.07,3.14,1.58l2,1.15C3285.25,2083.21,3283.55,2082.34,3281.8,2081.41Zm37.56,19.75c-6.52-3.62-13.1-7.32-19.65-11,5.38,2.63,10.71,5.21,16.06,7.8,6.55,3.86,13.13,7.76,19.6,11.52C3330.07,2106.76,3324.69,2103.94,3319.36,2101.16Zm30.28,16.65,1.35.69,1.58.91Zm37.45,20.3c-6.38-3.61-12.87-7.37-19.32-11.07,5.51,2.78,11.08,5.65,16.55,8.38,5.75,3.46,11.54,6.95,17.22,10.31C3396.71,2143.17,3392,2140.71,3387.09,2138.11Zm32.24,18.06.17.09.2.11Zm-24.95-15.8q10.17,5,20.24,9.94c8.93,5.5,17.73,10.83,26.57,16.22-7.06-3.65-14.2-7.4-21.33-11.14C3411.4,2150.42,3402.94,2145.45,3394.38,2140.37Zm59.09,34.68c-5.35-3.09-10.8-6.31-16.2-9.48,4.93,2.56,9.76,5,14.66,7.49,5.85,3.57,11.73,7.17,17.5,10.64C3464.11,2180.82,3458.82,2178,3453.47,2175.05Zm9.5,3.65c7.07,3.6,14.23,7.32,21.23,10.83,8.44,5.26,16.76,10.38,25.11,15.54-6.56-3.47-13-6.86-19.67-10.4C3480.78,2189.38,3471.93,2184.1,3463,2178.7Zm58.77,35.05c-5.29-3.11-10.68-6.34-16-9.53,5.11,2.71,10.18,5.37,15.26,8,5.85,3.62,11.73,7.26,17.51,10.79Q3530.13,2218.43,3521.74,2213.75Zm11.2,4.81q10.18,5.3,20.25,10.46c8.46,5.35,16.84,10.59,25.2,15.82-6.5-3.51-12.94-6.94-19.51-10.53C3550.27,2229.1,3541.66,2223.89,3532.94,2218.56Zm58.37,35.3c-5.25-3.13-10.61-6.39-15.92-9.6,5.17,2.8,10.35,5.61,15.49,8.36,5.82,3.63,11.66,7.29,17.41,10.84C3602.66,2260.3,3597,2257.08,3591.31,2253.86Zm12.35,5.65c6.57,3.49,13,6.79,19.49,10.2q12.48,8,24.82,15.81c-6.55-3.61-13.06-7.16-19.68-10.84C3620.12,2269.67,3611.93,2264.64,3603.66,2259.51Zm58.24,35.66c-5.31-3.2-10.71-6.53-16.07-9.8,5.14,2.83,10.32,5.71,15.42,8.49,5.79,3.64,11.61,7.32,17.35,10.91Q3670.29,2300,3661.9,2295.17Zm12.12,5.65c6.61,3.58,13.08,7,19.63,10.5,8.06,5.22,16.14,10.46,24.07,15.53-6.48-3.62-12.91-7.19-19.45-10.88Q3686.24,2308.5,3674,2300.82Zm59.35,36.76c-5.48-3.35-11-6.81-16.57-10.21,5,2.79,10,5.63,15,8.38,5.79,3.67,11.62,7.37,17.41,11Q3741.31,2342.21,3733.37,2337.58Zm11.61,5.47c6.56,3.61,13,7.08,19.49,10.61,8.16,5.31,16.33,10.64,24.39,15.84-6.77-3.84-13.47-7.6-20.32-11.52C3760.78,2353.11,3752.86,2348.06,3745,2343.05Zm60.45,37.81c-5.8-3.58-11.68-7.25-17.5-10.86,4.74,2.69,9.52,5.42,14.23,8.07,5.92,3.79,11.75,7.48,17.64,11.24C3815,2386.5,3810.24,2383.7,3805.43,2380.86Zm10.84,5.14c6.43,3.59,12.74,7,19.1,10.54l25,16.32c-6.52-3.75-13-7.39-19.55-11.21C3832.72,2396.52,3824.48,2391.24,3816.27,2386Zm61.71,38.94c-6.3-3.93-12.6-7.85-18.94-11.83,4.77,2.74,9.54,5.48,14.27,8.18,5.74,3.72,11.39,7.34,17.07,11C3886.24,2429.83,3882.15,2427.42,3878,2424.94Zm9.78,4.61c6.35,3.59,12.54,7,18.83,10.51,8.53,5.64,16.91,11.11,25.35,16.64-6.42-3.73-12.81-7.41-19.31-11.23Q3900.24,2437.56,3887.76,2429.55Zm63.25,40.22c-7-4.39-13.84-8.64-20.88-13.1,5.07,2.95,10.1,5.85,15.14,8.75,5.31,3.48,10.64,7,15.87,10.39C3957.74,2473.77,3954.42,2471.83,3951,2469.77Zm32.74,19.53c-8.24-5.3-16.41-10.53-24.75-15.94,6.71,3.84,13.3,7.54,19.93,11.29q12.38,8.26,24.59,16.34C3997,2497.15,3990.36,2493.22,3983.75,2489.3Zm35.74,22.88q-7.87-5-15.85-10.11c4.55,2.68,9,5.25,13.56,7.89,5.81,3.81,11.66,7.67,17.44,11.44C4029.62,2518.37,4024.55,2515.26,4019.49,2512.18Zm69.41,42.59c6,4,11.92,7.83,17.9,11.75-5.26-3.2-10.62-6.53-15.91-9.79-4.5-2.88-9.1-5.86-13.63-8.77C4081.19,2550.29,4085,2552.47,4088.9,2554.77Zm-13.1-8.69c-7-4.18-14.26-8.55-21.38-12.82-7.65-5-15.38-10-23.15-15.1,6.69,3.86,13.36,7.71,20,11.49C4059.46,2535.16,4067.69,2540.69,4075.8,2546.08Zm-34.64-23.17c-7.73-4.45-15.64-9.11-23.47-13.67-9.55-6.27-19.08-12.53-28.74-18.95,7.82,4.4,15.7,8.87,23.43,13.15Q4026.87,2513.3,4041.16,2522.91Zm-36.91-25c-8.21-4.57-16.54-9.3-24.87-14q-15.57-10.37-31.29-20.92c8.08,4.41,16.17,8.83,24.14,13.1C3983,2483.48,3993.61,2490.67,4004.25,2497.91Zm-38.68-26.44c-8.39-4.52-16.8-9.08-25.3-13.74-10.7-7.21-21.58-14.64-32.45-22.07,8.16,4.3,16.2,8.45,24.25,12.61Q3948.92,2460,3965.57,2471.47Zm-39.29-27.2c-8.28-4.31-16.51-8.55-24.91-13q-17.28-11.82-34.87-24c8.35,4.23,16.61,8.35,24.84,12.45C3903.06,2428,3914.75,2436.24,3926.28,2444.27Zm-39.73-27.86q-12.71-6.36-25.63-12.95c-12-8.32-24.07-16.63-36.28-25.15,8.51,4.14,17.09,8.36,25.48,12.36C3862.37,2399.38,3874.47,2407.9,3886.55,2416.41Zm-40.78-28.84c-8.49-4.07-17.11-8.28-25.73-12.5q-18.33-12.81-36.94-26c8.27,3.85,16.39,7.5,24.55,11.22C3820.46,2369.54,3833.14,2378.58,3845.77,2387.57Zm981.89-40c-149.92,195.21-441.15,275.16-1019.6,12-12.79-9.19-25.77-18.59-38.78-28,585.69,252,879.32,152.13,1033.52-52.55C4924,2118,4959,1892.39,4981.94,1722l13.39-5.91C4982.53,1911.19,4960.5,2174.6,4827.66,2347.57ZM4995.4,1715q-6.4,2.81-13.31,5.87,1.14-8.49,2.25-16.8,6.32-3.49,12.2-6.68Q4996,1706.1,4995.4,1715Zm1.54-23.77-.33,5q-5.85,3.17-12.12,6.63l.95-7.11,1.26-9.46q5.69-3.88,11-7.41Zm2-30.53q-.56,8.4-1.12,17-5.31,3.49-10.94,7.33,1.1-8.25,2.18-16.28Q4994.12,1664.56,4998.93,1660.71Zm-10.77,7.59q-4.69,3.93-9.6,8.16,1.62-7.56,3.2-14.89c2.9-3.09,5.75-6.08,8.54-8.94Q4989.24,1660.34,4988.16,1668.3Zm2.36-17.26q-4.11,4.2-8.37,8.73,1.59-7.3,3.16-14.38,3.72-4.91,7.34-9.46Q4991.58,1643.36,4990.52,1651Zm2.39-17q-3.51,4.38-7.11,9.11,1.54-7,3.1-13.67,3.09-5.07,6.12-9.8Q4994,1626.77,4992.91,1634.08Zm2.46-16.64q-2.88,4.44-5.8,9.18,1.49-6.43,3-12.61,2.46-5.07,4.88-9.82Q4996.39,1610.69,4995.37,1617.44Zm4.46-27.56q-1,5.55-1.91,11.32-2.15,4.13-4.31,8.51c.91-3.67,1.81-7.26,2.73-10.78Q4998.08,1594.28,4999.83,1589.88Z"/></g></g></svg>