<svg xmlns="http://www.w3.org/2000/svg" viewBox="0 0 5000 2916"><defs><style>.cls-1{fill:none;}.cls-2{fill:#314158;}</style></defs><g id="Layer_2" data-name="Layer 2"><g id="Layer_1-2" data-name="Layer 1"><path class="cls-1" d="M3236.54,2050.72c-10.23-6.21-20.59-12.6-31-19-7.59-3-15.17-6-22.83-9.06q15.63,9.27,31.09,18.33C3221.48,2044.34,3229,2047.47,3236.54,2050.72Z"/><path class="cls-1" d="M3200.9,2028.85c-11-6.81-22.08-13.62-33.25-20.59-7.53-2.69-15-5.39-22.62-8.18,10.86,6.56,21.68,13.08,32.38,19.45C3185.3,2022.72,3193.07,2025.75,3200.9,2028.85Z"/><path class="cls-1" d="M3106.73,1976.85c11.46,7,22.77,13.85,34.11,20.7,7.72,2.85,15.35,5.57,23,8.33q-17.15-10.73-34.53-21.73C3121.81,1981.74,3114.3,1979.34,3106.73,1976.85Z"/><path class="cls-1" d="M3171.73,2017.27c-10.31-6.15-20.78-12.49-31.24-18.83-7.64-2.82-15.34-5.73-23-8.64,10.32,6,20.54,11.82,30.76,17.67C3156.05,2010.72,3164,2014.11,3171.73,2017.27Z"/><path class="cls-1" d="M3184.66,2001.28c12.67,8.47,25.2,16.77,37.71,25,7.92,2.67,15.93,5.49,23.78,8.06-12.83-8.69-25.63-17.33-38.63-26.23C3200,2006,3192.27,2003.56,3184.66,2001.28Z"/><path class="cls-1" d="M3159.21,1993.62c12.22,8,24.4,15.88,36.45,23.64,7.8,2.71,15.48,5.25,23.22,7.87q-18.52-12.26-37.26-24.76C3174.16,1998.13,3166.73,1995.94,3159.21,1993.62Z"/><path class="cls-1" d="M3133,1985.32c11.74,7.44,23.46,14.83,35,22.06,8,2.86,16,5.85,24,8.62-11.87-7.64-23.9-15.48-35.94-23.34C3148.38,1990.29,3140.65,1987.77,3133,1985.32Z"/><path class="cls-1" d="M3267.75,2064.09c-11.16-7-22.32-14-33.62-21.13-7.77-3-15.68-6.15-23.52-9.23q16.21,10,32.23,19.7C3251.13,2057,3259.54,2060.67,3267.75,2064.09Z"/><path class="cls-1" d="M3433.11,2151.43c-11.82-7.79-23.61-15.55-35.58-23.52-7.88-3.26-15.75-6.49-23.71-9.85,11.57,7.53,23,14.87,34.42,22.21C3416.56,2144,3424.88,2147.79,3433.11,2151.43Z"/><path class="cls-1" d="M3402.56,2137.72c-11.06-7.12-22.15-14.27-33.35-21.57-8-3.37-16.07-6.93-24.11-10.41q16.58,10.5,32.93,20.74Q3390.36,2132.18,3402.56,2137.72Z"/><path class="cls-1" d="M4779.48,2120c88.87-123.6,137-268.58,172.47-384.76l-13.33,5.88c-35.23,85.4-80.09,187.51-146.82,283C4620.31,2269.64,4304.45,2471.5,3636.73,2234c13.94,10.41,27.88,20.82,41.6,31C4307.45,2506.06,4614.1,2350.06,4779.48,2120Z"/><path class="cls-1" d="M3502,2190.64c-11.71-7.79-23.43-15.61-35.29-23.6-7.91-3.39-15.75-6.68-23.75-10.19,11.61,7.63,23.09,15.11,34.54,22.55C3485.76,2183.24,3493.87,2186.91,3502,2190.64Z"/><path class="cls-1" d="M3334.38,2100c-11.19-7.12-22.38-14.23-33.71-21.52-7.65-3.1-15.23-6.09-23-9.29q16.65,10.39,33.08,20.53C3318.75,2093.3,3326.51,2096.6,3334.38,2100Z"/><path class="cls-1" d="M3303.88,2086.61c-10.29-6.35-20.7-12.85-31.13-19.38-7.88-3.28-16-6.82-23.92-10.2,10.28,6.22,20.54,12.42,30.68,18.47C3287.64,2079.21,3295.83,2083,3303.88,2086.61Z"/><path class="cls-1" d="M3210.31,2008.93c13.13,9,26.06,17.71,39,26.48,7.66,2.51,15.19,4.8,22.8,7.21q-19.61-13.56-39.49-27.45C3225.19,2013.08,3217.81,2011.09,3210.31,2008.93Z"/><path class="cls-1" d="M3371,2123.16c-10.36-6.49-20.86-13.14-31.36-19.82-7.63-3.32-15.22-6.57-22.92-10,10.21,6.29,20.42,12.58,30.49,18.69C3355.15,2115.82,3363,2119.48,3371,2123.16Z"/><path class="cls-1" d="M3540.5,2216.15c-11.1-7.3-22.33-14.76-33.6-22.26-7.88-3.58-15.68-7.08-23.65-10.77,10.78,7,21.54,14,32.16,20.78C3523.81,2208,3532.2,2212.15,3540.5,2216.15Z"/><path class="cls-1" d="M3235.37,2015.93q20,14,39.75,27.64c7.76,2.46,15.6,5,23.3,7.37-13.31-9.38-26.83-19-40.35-28.67C3250.56,2020.24,3242.94,2018,3235.37,2015.93Z"/><path class="cls-1" d="M4910.51,1752.39c4.37-1.89,8.71-3.78,12.9-5.61q3.27-6.06,6.45-12l-11.79,6.66Q4914.34,1746.86,4910.51,1752.39Z"/><path class="cls-1" d="M3499.13,2130q22.15,17,44,33.57c854.69,257.69,1190.48-158,1364.68-409-4.22,1.83-8.58,3.7-13,5.58C4697.16,1984.3,4319.53,2352.26,3499.13,2130Z"/><path class="cls-1" d="M3545.34,2165.26c14.67,11.14,29.12,22,43.59,32.91,737.74,243.3,1065.38-34.36,1241.41-294.89,36.53-54.07,66.53-107.37,92.33-155.14-4.28,1.88-8.72,3.8-13.19,5.74C4735.56,2004.75,4400.28,2422.08,3545.34,2165.26Z"/><path class="cls-1" d="M4956.73,1719.56l-12,6.82q-2.74,6.67-5.55,13.5c4.52-2,8.88-3.91,13.18-5.81Q4954.56,1726.74,4956.73,1719.56Z"/><path class="cls-1" d="M4932.25,1732.34l8.43-4.78,3.25-1.84,5.32-13-10.59,7.62Q4935.5,1726.27,4932.25,1732.34Z"/><path class="cls-1" d="M4924.82,1746.17l13.07-5.74q2.77-6.72,5.46-13.29l-2.2,1.25-9.75,5.52Q4928.16,1740,4924.82,1746.17Z"/><path class="cls-1" d="M3474.46,2123.21q21.89,16.54,43.46,32.71c7.64,2.39,15.15,4.62,22.71,6.91q-21.78-16.54-43.88-33.46C3489.35,2127.35,3481.93,2125.32,3474.46,2123.21Z"/><path class="cls-1" d="M3309.77,2035.65q21.39,15.76,42.51,31.2c7.52,2.14,15,4.15,22.42,6.2q-21.43-15.9-43.16-32.16C3324.29,2039.15,3317.07,2037.47,3309.77,2035.65Z"/><path class="cls-1" d="M3428.26,2088.13c14.79,11.28,29.53,22.49,44.1,33.5,7.5,2.12,14.92,4.15,22.34,6.17-14.72-11.27-29.62-22.75-44.57-34.29Q3439.24,2090.89,3428.26,2088.13Z"/><path class="cls-1" d="M3260.72,2023c13.6,9.7,27.22,19.42,40.6,28.85,7.63,2.33,15.11,4.46,22.68,6.7-13.63-9.79-27.48-19.84-41.32-29.88C3275.35,2026.77,3268.1,2025,3260.72,2023Z"/><path class="cls-1" d="M3285.13,2029.31c13.94,10.1,27.86,20.19,41.58,30.05,7.65,2.25,15.34,4.56,22.94,6.72-14-10.2-28.1-20.6-42.28-31C3300,2033.2,3292.55,2031.23,3285.13,2029.31Z"/><path class="cls-1" d="M3404,2082c14.49,10.9,28.95,21.76,43.21,32.4,7.6,2.24,15.18,4.46,22.71,6.6-14.5-11-29.2-22.15-43.93-33.39C3418.7,2085.73,3411.39,2083.89,3404,2082Z"/><path class="cls-1" d="M3333.79,2041.42q21.83,16.32,43.36,32.29c7.49,2.05,15,4.09,22.41,6.05q-21.86-16.44-44-33.21C3348.36,2044.89,3341.07,2043.16,3333.79,2041.42Z"/><path class="cls-1" d="M3357.81,2047.08q22.24,16.86,44.15,33.33,11.11,2.93,22.13,5.7-22.24-17-44.75-34.23Q3368.62,2049.52,3357.81,2047.08Z"/><path class="cls-1" d="M3471.24,2176.43q-16.53-10.77-33.28-21.8c-8.05-3.54-16.26-7.28-24.4-10.94q16.55,10.62,32.88,21Q3458.91,2170.63,3471.24,2176.43Z"/><path class="cls-1" d="M3381.44,2052.33c15.09,11.59,30,23,44.9,34.34,7.34,1.85,14.63,3.63,21.91,5.39-15.07-11.63-30.17-23.29-45.44-35.16Q3392.16,2054.67,3381.44,2052.33Z"/><path class="cls-1" d="M3287.7,2006.84c14.87,11.21,29.52,22.18,44.18,33.14q10.95,2.63,21.84,5.15c-14.89-11.3-29.75-22.56-44.85-34.1C3301.83,2009.66,3294.78,2008.28,3287.7,2006.84Z"/><path class="cls-1" d="M3310.94,2011.44c15.15,11.58,30.06,22.89,45,34.21q10.86,2.49,21.65,4.88c-15.07-11.58-30.14-23.17-45.43-35C3325.11,2014.22,3318,2012.81,3310.94,2011.44Z"/><path class="cls-1" d="M3404.88,2057.34c15.33,11.91,30.47,23.6,45.58,35.27,785.63,189.47,1205.1-127.26,1427-325l-12.05,5.09C4620.76,1943.9,4160.27,2214.89,3404.88,2057.34Z"/><path class="cls-1" d="M3334.13,2015.88c15.32,11.86,30.45,23.5,45.55,35.1,7.17,1.57,14.29,3.07,21.4,4.57-15.28-11.88-30.61-23.83-46.13-36C3348,2018.35,3341.1,2017.16,3334.13,2015.88Z"/><path class="cls-1" d="M3452.35,2094.06q22.5,17.37,44.73,34.4c819.6,222.85,1197.63-143.11,1395.74-367.41q-6.22,2.67-12.67,5.4C4658.9,1964,4239.56,2283.2,3452.35,2094.06Z"/><path class="cls-1" d="M3571.9,2231.11q-17.46-11.73-35.15-23.75c-8.14-3.61-16.39-7.36-24.63-11.09q17.4,11.55,34.54,22.81C3555.11,2223.14,3563.55,2227.18,3571.9,2231.11Z"/><path class="cls-1" d="M4882.36,1764.48l11.93-5.09,7.92-9-11,6.14Q4886.86,1760.47,4882.36,1764.48Z"/><path class="cls-1" d="M3192.44,1985.72c13.6,9.62,27.15,19.18,40.55,28.55,7.6,2.13,15.24,4.33,22.79,6.37q-20.57-14.67-41.43-29.7C3207.08,1989.26,3199.75,1987.48,3192.44,1985.72Z"/><path class="cls-1" d="M3143.29,1973.48c13,8.8,25.86,17.42,38.68,26,7.67,2.31,15.41,4.72,23,6.94q-19.52-13.37-39.36-27.16C3158.23,1977.4,3150.74,1975.4,3143.29,1973.48Z"/><path class="cls-1" d="M3168.27,1979.93c13.29,9.22,26.53,18.37,39.6,27.32,7.52,2.19,14.92,4.16,22.39,6.26-13.3-9.31-26.76-18.81-40.26-28.36C3182.75,1983.4,3175.56,1981.74,3168.27,1979.93Z"/><path class="cls-1" d="M3118.77,1967.15c12.63,8.32,25.13,16.49,37.59,24.62,7.58,2.35,15,4.53,22.58,6.79-12.74-8.52-25.47-17-38.37-25.78C3133.3,1970.89,3126.09,1969.11,3118.77,1967.15Z"/><path class="cls-1" d="M4906.57,1746.84c3.68-2.06,7.27-4.09,10.84-6.1l6.9-10-9.86,7.1C4911.85,1740.79,4909.24,1743.79,4906.57,1746.84Z"/><path class="cls-1" d="M3240.52,1996.82q21.39,15.63,42.5,31c7.44,1.93,14.91,3.89,22.3,5.74q-21.5-15.86-43.26-32Q3251.32,1999.22,3240.52,1996.82Z"/><path class="cls-1" d="M3216.73,1991.5q21,15.09,41.69,29.88c7.44,2,14.76,3.84,22.14,5.76q-21-15.23-42.27-30.81C3231.11,1994.74,3224,1993.17,3216.73,1991.5Z"/><path class="cls-1" d="M3264.25,2002q21.9,16.29,43.47,32.15c7.34,1.83,14.61,3.57,21.9,5.32-14.59-10.92-29.2-21.85-44-33Q3275,2004.27,3264.25,2002Z"/><path class="cls-1" d="M4896.32,1758.51c4.25-1.82,8.44-3.63,12.54-5.4,2.47-3.57,4.91-7.09,7.32-10.59l-11.47,6.46C4902,1752.12,4899.13,1755.32,4896.32,1758.51Z"/><path class="cls-1" d="M3751.56,2340.71c-11.32-7.64-22.61-15.24-34.08-23.05-8-3.93-16-7.81-24.07-11.86,11.13,7.41,22.12,14.67,33.11,21.92Q3739.14,2334.32,3751.56,2340.71Z"/><path class="cls-1" d="M3736.47,2317.08q-12.31-5.48-24.82-11.17c12.43,8.73,24.84,17.44,37.06,25.94,8.48,4.06,16.87,8,25.24,11.94C3761.6,2335.05,3749,2326.06,3736.47,2317.08Z"/><path class="cls-1" d="M3712.29,2314.1c-11.44-7.81-23-15.81-34.65-23.83-8.25-3.87-16.65-7.91-25-11.91,11.53,7.8,23,15.6,34.4,23.18C3695.51,2305.81,3703.91,2310,3712.29,2314.1Z"/><path class="cls-1" d="M4919.29,1739.67l11.41-6.45,6.21-11.61-7.31,5.27-3,2.17C4924.19,1732.55,4921.75,1736.1,4919.29,1739.67Z"/><path class="cls-1" d="M3680.49,2298.23q-16.56-11.1-33.38-22.5-12.14-5.82-24.42-11.84c11.1,7.35,22.18,14.66,33.13,21.82C3664.12,2290,3672.3,2294.09,3680.49,2298.23Z"/><path class="cls-1" d="M3609.86,2256.54c-10.77-7.15-21.73-14.53-32.68-21.89-8.16-3.82-16.47-7.84-24.73-11.78,11,7.24,22.07,14.5,32.91,21.52C3593.61,2248.54,3601.72,2252.51,3609.86,2256.54Z"/><path class="cls-1" d="M3641.94,2272.26c-11.61-7.87-23.38-15.93-35.18-24-8.06-3.68-16.07-7.3-24.22-11.1,11.37,7.63,22.73,15.24,33.93,22.66C3625,2264,3633.53,2268.2,3641.94,2272.26Z"/><path class="cls-1" d="M3722,2298.19c-8.11-3.31-16.32-6.75-24.54-10.19q19.85,14.31,39.37,28.25c8.4,3.73,16.77,7.43,25,11Q3742.11,2312.9,3722,2298.19Z"/><path class="cls-1" d="M4784.91,2203.39c106.57-144.58,150.75-330.42,181.56-474.55l-13.37,5.92c-35.52,116.37-83.69,261.81-172.85,385.83-165.31,229.93-471.57,386-1099.15,146.41,13.9,10.27,27.6,20.3,41.3,30.34C4326.09,2543.75,4625.43,2419.76,4784.91,2203.39Z"/><path class="cls-1" d="M4947.19,1704.36q4.41-4,8.67-7.84,2.45-6,4.82-11.74-3.78,4.24-7.66,8.67Z"/><path class="cls-1" d="M4934.77,1717.09l-6.6,9.65.88-.64,8.88-6.4,3.76-7,2.08-3.9-8.74,8Z"/><path class="cls-1" d="M4942.53,1713.1l-2.85,5.34q5.22-3.76,10.24-7.37l1-2.5,4.1-10q-4.52,4.07-9.18,8.3Z"/><path class="cls-1" d="M4970,1712.06q-5.9,3.3-12.11,6.82-2.19,7.26-4.46,14.68l13.24-5.87Q4968.41,1719.79,4970,1712.06Z"/><path class="cls-1" d="M4972.58,1700.06l1-4.63q-5.3,3.72-10.85,7.67l-.47,1.54q-1.92,6.39-3.91,12.92l12-6.74Z"/><path class="cls-1" d="M4977,1679q-4.7,4.07-9.6,8.41l-4.29,14.17q5.49-3.9,10.7-7.55Z"/><path class="cls-1" d="M3520.17,2157.61c14.42,10.8,28.63,21.36,42.84,31.91,7.81,2.67,15.52,5.22,23.24,7.77-14.41-10.85-28.81-21.7-43.43-32.79C3535.29,2162.23,3527.78,2160,3520.17,2157.61Z"/><path class="cls-1" d="M3647.5,2252.89c-13.43-9.79-27-19.77-40.66-29.81-7.86-2.91-15.66-5.74-23.61-8.77,13.45,9.75,26.87,19.47,40.1,29C3631.48,2246.6,3639.45,2249.7,3647.5,2252.89Z"/><path class="cls-1" d="M3442.33,2132q20.19,14.45,40.06,28.51,12.09,4.56,24,8.94-20.23-14.59-40.74-29.5C3457.92,2137.29,3450.16,2134.67,3442.33,2132Z"/><path class="cls-1" d="M3468.5,2140.84c13.84,10.06,27.52,19.94,41.16,29.77q12,4.38,23.8,8.57c-13.84-10.13-27.72-20.31-41.76-30.69Q3480.17,2144.74,3468.5,2140.84Z"/><path class="cls-1" d="M3539.08,2182.16q20.7,15.15,41.13,30c8,3.06,15.95,6,23.89,8.93q-20.54-15.12-41.43-30.66C3554.87,2187.74,3547,2184.94,3539.08,2182.16Z"/><path class="cls-1" d="M3512.57,2172.7c13.38,9.65,26.73,19.24,39.91,28.65q12.24,4.82,24.34,9.47c-13.45-9.76-27.05-19.7-40.72-29.7C3528.28,2178.35,3520.47,2175.58,3512.57,2172.7Z"/><path class="cls-1" d="M3619.67,2241.75q-19.74-14.17-39.83-28.75c-8-3.06-16.11-6.24-24.21-9.42q19.68,14,39.11,27.76C3603.07,2234.84,3611.44,2238.38,3619.67,2241.75Z"/><path class="cls-1" d="M3409.34,2119.21c-13.18-9.28-26.41-18.6-39.78-28.1-7.62-2.5-15.13-4.85-22.82-7.45q19.58,13.64,38.84,26.91C3393.56,2113.53,3401.44,2116.36,3409.34,2119.21Z"/><path class="cls-1" d="M3293.31,2065c12.28,8.2,24.54,16.38,36.63,24.37,8,3.16,15.88,6.08,23.83,9.13-12.35-8.35-24.83-16.86-37.37-25.42C3308.7,2070.35,3301.09,2067.77,3293.31,2065Z"/><path class="cls-1" d="M3450.93,2148.34c-12.77-8.89-25.7-18-38.66-27.07-7.79-2.8-15.5-5.51-23.37-8.42,12.67,8.74,25.3,17.44,37.77,25.94C3434.82,2142.05,3442.87,2145.19,3450.93,2148.34Z"/><path class="cls-1" d="M3398.61,2100.57c13.77,9.95,27.33,19.65,40.92,29.37q11.85,4.13,23.6,8.11c-13.85-10.08-27.7-20.16-41.74-30.47C3413.81,2105.26,3406.27,2103,3398.61,2100.57Z"/><path class="cls-1" d="M3520.51,2188.52c-12.67-8.88-25.57-18-38.44-27.16q-11.94-4.52-24-9.18c12.74,8.85,25.49,17.73,38,26.35C3504.31,2182,3512.39,2185.22,3520.51,2188.52Z"/><path class="cls-1" d="M3590.92,2229.74q-19.24-13.59-38.79-27.52-12-4.74-24.2-9.65,19.25,13.47,38.21,26.61Q3578.62,2224.57,3590.92,2229.74Z"/><path class="cls-1" d="M3549,2200c-13.09-9.35-26.37-18.91-39.67-28.49-7.91-2.9-15.9-5.89-23.9-8.9,13.07,9.26,26.12,18.5,39,27.52C3532.64,2193.46,3540.85,2196.77,3549,2200Z"/><path class="cls-1" d="M3372.48,2092.06c13.49,9.57,26.81,19,40.1,28.3,8,2.87,15.93,5.71,23.82,8.47-13.48-9.66-27-19.31-40.63-29.18C3388.07,2097.2,3380.26,2094.6,3372.48,2092.06Z"/><path class="cls-1" d="M3479,2159.21q-19.76-14-39.82-28.37c-7.84-2.73-15.78-5.58-23.7-8.42q19.71,13.85,39.16,27.39C3462.82,2153,3471,2156.16,3479,2159.21Z"/><path class="cls-1" d="M3171.79,2009.76c11.47,7.15,22.8,14.11,34.14,21.08,8.1,3.2,16.33,6.57,24.36,9.66q-17.36-11-35-22.35C3187.53,2015.44,3179.64,2012.57,3171.79,2009.76Z"/><path class="cls-1" d="M3382,2109.19q-19.1-13.18-38.44-26.66c-7.83-2.66-15.83-5.55-23.74-8.31q19,13,37.81,25.7C3365.72,2103,3373.89,2106.19,3382,2109.19Z"/><path class="cls-1" d="M3015,1944c-9.3-5-18.77-10.32-28.21-15.55-6.94-2.2-13.88-4.39-20.84-6.65,9.32,4.87,18.67,9.76,27.88,14.46C3000.92,1938.91,3008,1941.46,3015,1944Z"/><path class="cls-1" d="M2940.57,1913.48c8.31,4.08,16.65,8.17,24.87,12.1,7.14,2.73,14.3,5.49,21.4,8.14q-13.07-6.72-26.26-13.62Q2950.6,1916.85,2940.57,1913.48Z"/><path class="cls-1" d="M3969.32,2478.23c-9.81-6.55-19.56-13-29.49-19.73-7.5-4.11-15.1-8.33-22.7-12.55q14.4,9.47,28.63,18.74C3953.63,2469.23,3961.54,2473.81,3969.32,2478.23Z"/><path class="cls-1" d="M4957.48,1695.07q4.65-4.17,9.13-8.15,2-6.74,4.05-13.29-4,4.38-8.07,9Z"/><path class="cls-1" d="M3876.59,2419c10.2,6.83,20.41,13.67,30.45,20.31,8.49,4.75,17.07,9.59,25.45,14.21-10.45-7.06-21-14.25-31.59-21.48C3892.88,2427.79,3884.71,2423.36,3876.59,2419Z"/><path class="cls-1" d="M4993.19,1607.51q-2,5.51-4,11.31c.82-1.73,1.63-3.43,2.45-5.11C4992.17,1611.62,4992.67,1609.56,4993.19,1607.51Z"/><path class="cls-1" d="M3257.86,2050.8c-11.83-7.72-23.82-15.65-35.83-23.59-7.66-2.59-15.29-5.13-23-7.8,11.88,7.63,23.72,15.22,35.43,22.65C3242.33,2045.08,3250.06,2047.88,3257.86,2050.8Z"/><path class="cls-1" d="M4990.6,1618.09q-2.07,4.37-4.16,8.94-1.72,5.16-3.47,10.52,2.53-4.29,5-8.38Q4989.31,1623.53,4990.6,1618.09Z"/><path class="cls-1" d="M3678,2265.82c-8-3.06-16-6.21-24.11-9.39,13.57,9.88,26.93,19.51,40.32,29.17,8.31,3.5,16.65,7,24.85,10.39C3705.4,2286,3691.8,2276,3678,2265.82Z"/><path class="cls-1" d="M4945.27,1725l11.86-6.72q2.13-7,4.2-13.88l.11-.36-10.74,7.68Z"/><path class="cls-1" d="M4966.08,1688.66q-4.62,4.11-9.42,8.43-2.4,5.84-4.84,11.84l-.45,1.1q5.37-3.85,10.52-7.51Q4964,1695.5,4966.08,1688.66Z"/><path class="cls-1" d="M3136.3,1995.91c-11.07-6.71-22.13-13.41-33.32-20.27-7.47-2.46-15-5-22.53-7.58,10.6,6.27,21.22,12.59,31.66,18.67C3120.17,1989.79,3128.3,1992.94,3136.3,1995.91Z"/><path class="cls-1" d="M3723.32,2320.52q17.68,12,35.11,23.76c8.44,4.32,16.72,8.46,25,12.65-11.66-8-23.34-16.07-35.16-24.27C3740.06,2328.71,3731.68,2324.61,3723.32,2320.52Z"/><path class="cls-1" d="M3822.75,2383.77c-11.24-7.64-22.51-15.31-33.9-23.14-8.06-4-16.07-8-24.23-12.17,11.09,7.46,22,14.74,33,22Q3810.26,2377.21,3822.75,2383.77Z"/><path class="cls-1" d="M4975.14,1659.11q-3.27,4.5-6.63,9.23c-1.6,3.81-3.2,7.69-4.83,11.63q3.87-4.34,7.63-8.47Q4973.25,1665.2,4975.14,1659.11Z"/><path class="cls-1" d="M3053.59,1958.81c10.37,5.87,20.62,11.56,30.91,17.31,7.47,2.91,14.87,5.73,22.29,8.56-10.17-5.93-20.49-12-30.8-18.16Q3064.82,1962.71,3053.59,1958.81Z"/><path class="cls-1" d="M3532.58,2204.52c-12.23-8.32-24.43-16.61-36.82-25.12-8.12-3.38-16.36-6.93-24.57-10.44,12.13,8.15,24.1,16.11,36.06,24.06C3515.71,2196.87,3524.23,2200.8,3532.58,2204.52Z"/><path class="cls-1" d="M3296.42,2075.77q-17.33-11.16-34.84-22.56c-7.75-2.89-15.46-5.71-23.28-8.69,11.69,7.39,23.21,14.58,34.75,21.79C3280.93,2069.59,3288.62,2072.6,3296.42,2075.77Z"/><path class="cls-1" d="M3492.17,2176.92c-12.49-8.59-25.15-17.4-37.83-26.22q-12-4.65-24.06-9.47,18.51,12.61,36.8,24.94C3475.45,2169.76,3483.89,2173.45,3492.17,2176.92Z"/><path class="cls-1" d="M3462.61,2164.25q-18-12.14-36.26-24.56c-8.06-3.24-16.22-6.59-24.38-9.94,12.22,8.13,24.29,16.08,36.35,24C3446.5,2157.37,3454.52,2160.77,3462.61,2164.25Z"/><path class="cls-1" d="M3325.5,2087.54c-11.78-7.79-23.75-15.8-35.71-23.81-8-2.88-16.12-6-24.16-9q17.79,11.59,35.35,22.89C3309.15,2080.92,3317.4,2084.34,3325.5,2087.54Z"/><path class="cls-1" d="M3393.54,2125.22c-12-8-24.11-16.18-36.26-24.39-7.8-3-15.47-5.79-23.34-8.88q17.91,11.81,35.58,23.3C3377.6,2118.67,3385.54,2121.91,3393.54,2125.22Z"/><path class="cls-1" d="M3364.9,2113.33c-11.7-7.63-23.43-15.28-35.28-23.09-8-3.17-16.28-6.6-24.4-9.88,11.66,7.49,23.16,14.77,34.68,22.08C3348.22,2106.06,3356.67,2109.83,3364.9,2113.33Z"/><path class="cls-1" d="M3422.75,2137.24c-12.37-8.43-24.92-17.1-37.48-25.77-8-3-16.12-6.12-24.18-9.19,12.32,8.32,24.64,16.64,36.76,24.73C3406.16,2130.44,3414.53,2133.94,3422.75,2137.24Z"/><path class="cls-1" d="M3703,2300.91q-18.6-13.08-37.48-26.49c-8.21-3.55-16.54-7.25-24.85-10.93q18.84,13.14,37.41,26C3686.43,2293.37,3694.67,2297.11,3703,2300.91Z"/><path class="cls-1" d="M3661.76,2271.78c-12.88-9.15-25.73-18.28-38.79-27.64-8.16-3.33-16.51-6.89-24.77-10.35,13,9.14,25.73,18,38.51,27Q3649.31,2266.36,3661.76,2271.78Z"/><path class="cls-1" d="M3693.8,2286.45c-8.07-3.39-16.07-6.7-24.23-10.23q19.11,13.58,37.93,26.78c8.47,3.87,16.94,7.73,25.3,11.46Q3713.45,2300.61,3693.8,2286.45Z"/><path class="cls-1" d="M3632.44,2258.87c-12.62-8.81-25.25-17.64-38.06-26.67-8.08-3.4-16.15-6.78-24.33-10.3,12.47,8.63,24.78,17.07,37.08,25.49C3615.6,2251.27,3624.07,2255.13,3632.44,2258.87Z"/><path class="cls-1" d="M3602.26,2245.16c-12.09-8.29-24.22-16.63-36.49-25.13q-12.18-5.25-24.51-10.7,18.3,12.4,36.3,24.48C3585.89,2237.7,3594,2241.39,3602.26,2245.16Z"/><path class="cls-1" d="M3672.85,2287q-18.09-12.49-36.5-25.37-12.29-5.46-24.74-11.13,18.06,12.36,35.86,24.42C3656,2279,3664.45,2283,3672.85,2287Z"/><path class="cls-1" d="M3561.85,2217.31c-12.53-8.7-25.1-17.43-37.81-26.33-8.05-3.26-16.1-6.54-24.24-9.92,12.53,8.6,24.93,17,37.3,25.43C3545.42,2210.18,3553.64,2213.74,3561.85,2217.31Z"/><path class="cls-1" d="M3743.69,2329.47c-12.05-8.39-24.33-17-36.59-25.64-8.12-3.71-16.2-7.36-24.43-11.2,11.8,8.14,23.61,16.3,35.2,24.21C3726.5,2321.08,3735.18,2325.38,3743.69,2329.47Z"/><path class="cls-1" d="M3565.57,2191.42q21,15.57,41.63,30.79c8,3,16.14,6,24.08,8.87q-21.17-15.81-42.68-32C3580.94,2196.54,3573.32,2194.06,3565.57,2191.42Z"/><path class="cls-1" d="M3093.53,1960.16c12.12,7.78,24.21,15.53,36.16,23.1,7.82,2.51,15.72,5.13,23.48,7.55q-18.51-12.09-37.22-24.41C3108.52,1964.41,3101,1962.23,3093.53,1960.16Z"/><path class="cls-1" d="M3449.5,2116.05q21.43,16,42.52,31.54c7.79,2.53,15.63,5.13,23.34,7.55q-21.51-16.12-43.32-32.6Q3460.82,2119.36,3449.5,2116.05Z"/><path class="cls-1" d="M3494.48,2149.41c14.11,10.42,28.05,20.63,42,30.81,7.92,2.81,15.84,5.6,23.67,8.29-14.09-10.47-28.2-21-42.5-31.67C3510,2154.44,3502.22,2151.92,3494.48,2149.41Z"/><path class="cls-1" d="M4791,2023.64c66.44-95.11,111.19-196.77,146.34-281.94l-13.28,5.83c-25.94,48.06-56.13,101.79-92.95,156.28-176,260.49-503.38,538.11-1239.85,296.13q21.63,16.28,42.94,32.19C4303.32,2471,4619.48,2269.17,4791,2023.64Z"/><path class="cls-1" d="M3690.49,2284.05c-13.29-9.6-26.54-19.15-40-29-8-3.16-15.95-6.28-24-9.56,13.28,9.51,26.33,18.77,39.42,28.06C3674.15,2277.17,3682.31,2280.59,3690.49,2284.05Z"/><path class="cls-1" d="M3633.87,2233c-7.89-2.82-15.95-5.85-23.94-8.79,13.72,10.09,27.42,20.17,40.92,30,8.16,3.23,16.33,6.46,24.4,9.57C3661.59,2253.69,3647.74,2243.36,3633.87,2233Z"/><path class="cls-1" d="M3252.1,2037.29q19.16,12.95,38,25.54c7.84,2.83,15.5,5.41,23.26,8.14-12.8-8.76-25.62-17.54-38.6-26.5C3267.21,2042.07,3259.72,2039.77,3252.1,2037.29Z"/><path class="cls-1" d="M3277.76,2045.41c13.11,9,26,17.9,39,26.74,8,2.79,16,5.66,23.89,8.35-13.16-9.18-26.31-18.35-39.64-27.74C3293.31,2050.41,3285.49,2047.85,3277.76,2045.41Z"/><path class="cls-1" d="M3225.51,2028.39c12.21,8.06,24.37,16.08,36.4,23.92,8.14,3,16.38,6.21,24.45,9.13q-18.57-12.42-37.37-25.13C3241.23,2033.77,3233.33,2031,3225.51,2028.39Z"/><path class="cls-1" d="M3303.9,2053.66c13.42,9.46,26.7,18.74,39.95,28,7.77,2.64,15.41,5.09,23.12,7.63q-20.14-14.33-40.6-29C3318.87,2058,3311.46,2056,3303.9,2053.66Z"/><path class="cls-1" d="M3329.08,2061.05q20.53,14.74,40.81,29.16c7.81,2.56,15.64,5.15,23.38,7.61-13.65-9.87-27.47-19.94-41.33-30.07C3344.38,2065.6,3336.7,2063.29,3329.08,2061.05Z"/><path class="cls-1" d="M3379.26,2075.27c14.23,10.56,28.45,21.11,42.45,31.4q11.51,3.52,22.91,6.9c-14.19-10.58-28.59-21.41-43-32.26C3394.21,2079.36,3386.73,2077.31,3379.26,2075.27Z"/><path class="cls-1" d="M3354.58,2068.52c13.92,10.17,27.82,20.32,41.53,30.23,7.7,2.44,15.32,4.78,22.95,7.12-13.93-10.23-28.09-20.75-42.25-31.26C3369.4,2072.59,3362.05,2070.64,3354.58,2068.52Z"/><path class="cls-1" d="M3424.05,2108.38c14.1,10.35,28,20.49,41.92,30.61,7.81,2.63,15.55,5.16,23.27,7.68q-21-15.55-42.35-31.41C3439.32,2113,3431.69,2110.71,3424.05,2108.38Z"/><path class="cls-1" d="M2836.55,1875.89c7.32,2.72,14.57,5.29,21.83,7.9-3.35-1.4-6.77-2.92-10.14-4.35C2844.35,1878.26,2840.45,1877.09,2836.55,1875.89Z"/><path class="cls-1" d="M3231.58,2054.23c7,3.82,13.92,7.56,20.88,11.33q8.09,4.09,16.12,8.13c-6.21-3.54-12.5-7.17-18.77-10.78C3243.8,2060.1,3237.65,2057.11,3231.58,2054.23Z"/><path class="cls-1" d="M3214.1,2045.92c2.23,1.15,4.5,2.35,6.72,3.5-1.24-.68-2.5-1.4-3.75-2.09Z"/><path class="cls-1" d="M3299.71,2090.18c6.55,3.66,13.13,7.36,19.65,11,5.33,2.78,10.71,5.6,16,8.34-6.47-3.76-13-7.66-19.6-11.52C3310.42,2095.39,3305.09,2092.81,3299.71,2090.18Z"/><path class="cls-1" d="M3165.33,2020.28c7.15,3.83,14.23,7.57,21.31,11.3,5.9,2.88,11.82,5.8,17.68,8.63q-10.8-6-21.66-12.1Q3174,2024.24,3165.33,2020.28Z"/><path class="cls-1" d="M3281.8,2081.41c1.75.93,3.45,1.8,5.19,2.73l-2-1.15C3283.9,2082.48,3282.84,2081.92,3281.8,2081.41Z"/><path class="cls-1" d="M3080.12,1979.33c4.8,2.32,9.48,4.48,14.26,6.77l-6.38-3.28C3085.39,1981.67,3082.74,1980.48,3080.12,1979.33Z"/><path class="cls-1" d="M3102.85,1989.38c6.12,3.15,12.27,6.34,18.35,9.44,6.49,3,13.11,6.3,19.54,9.27-7.61-4.11-15.14-8.11-22.8-12.3C3112.9,1993.64,3107.91,1991.57,3102.85,1989.38Z"/><path class="cls-1" d="M3038.31,1958.66c6.93,3.46,13.88,6.94,20.75,10.31,5.24,2.35,10.43,4.62,15.65,6.92-6.37-3.34-12.84-6.82-19.3-10.28C3049.74,1963.34,3044,1961,3038.31,1958.66Z"/><path class="cls-1" d="M3148.35,2012.61c3.18,1.6,6.32,3.12,9.49,4.71l-4.74-2.56C3151.5,2014,3150,2013.35,3148.35,2012.61Z"/><path class="cls-1" d="M3484.2,2189.53c-7-3.51-14.16-7.23-21.23-10.83,9,5.4,17.81,10.68,26.67,16,6.62,3.54,13.11,6.93,19.67,10.4C3501,2199.91,3492.64,2194.79,3484.2,2189.53Z"/><path class="cls-1" d="M3349.64,2117.81l2.93,1.6-1.58-.91Z"/><path class="cls-1" d="M3437.27,2165.57c5.4,3.17,10.85,6.39,16.2,9.48,5.35,2.92,10.64,5.77,16,8.65-5.77-3.47-11.65-7.07-17.5-10.64C3447,2170.54,3442.2,2168.13,3437.27,2165.57Z"/><path class="cls-1" d="M3163.35,1977.67q-20.05-13.92-40.37-28.15c-7.1-1.47-14.21-2.93-21.34-4.46,13.14,9,26.3,18,39.27,26.82C3148.4,1973.82,3155.91,1975.81,3163.35,1977.67Z"/><path class="cls-1" d="M3367.77,2127c6.45,3.7,12.94,7.46,19.32,11.07,4.87,2.6,9.62,5.06,14.45,7.62-5.68-3.36-11.47-6.85-17.22-10.31C3378.85,2132.69,3373.28,2129.82,3367.77,2127Z"/><polygon class="cls-1" points="3419.33 2156.17 3419.7 2156.37 3419.5 2156.26 3419.33 2156.17"/><path class="cls-1" d="M3414.62,2150.31q-10.1-4.92-20.24-9.94c8.56,5.08,17,10.05,25.48,15,7.13,3.74,14.27,7.49,21.33,11.14C3432.35,2161.14,3423.55,2155.81,3414.62,2150.31Z"/><path class="cls-1" d="M3553.19,2229q-10.08-5.19-20.25-10.46c8.72,5.33,17.33,10.54,25.94,15.75,6.57,3.59,13,7,19.51,10.53C3570,2239.61,3561.65,2234.37,3553.19,2229Z"/><path class="cls-1" d="M2982.48,1926.1c-10.36-5.74-20.65-11.36-31.12-17.23-6.91-1.85-13.77-3.6-20.71-5.49,10.19,5.41,20.22,10.59,30.29,15.84C2968.15,1921.57,2975.31,1923.81,2982.48,1926.1Z"/><path class="cls-1" d="M3020.56,1951.45c5.61,2.61,11.27,5.29,16.83,7.82l-10.84-5.38C3024.55,1953.06,3022.57,1952.28,3020.56,1951.45Z"/><path class="cls-1" d="M3062.17,1950.42c-11.79-7.36-23.73-14.9-35.67-22.44-7.27-1.75-14.57-3.58-21.86-5.39q17.52,10.7,34.77,21C3047,1945.88,3054.64,1948.25,3062.17,1950.42Z"/><path class="cls-1" d="M3035.81,1942.55c-11.36-6.83-22.74-13.68-34.25-20.72-7.06-1.75-14.08-3.45-21.16-5.27q16.67,9.78,33.19,19.35C3021,1938.19,3028.41,1940.34,3035.81,1942.55Z"/><path class="cls-1" d="M3087.73,1957.55c-12.24-7.87-24.5-15.76-36.91-23.84q-10.7-2.48-21.42-5c12.08,7.63,24.14,15.22,36.08,22.67C3072.94,1953.5,3080.31,1955.48,3087.73,1957.55Z"/><path class="cls-1" d="M3138.18,1971.17c-12.84-8.7-25.91-17.68-38.93-26.61q-10.78-2.32-21.63-4.76,19.47,13,38.68,25.71C3123.64,1967.48,3130.88,1969.28,3138.18,1971.17Z"/><path class="cls-1" d="M3113.38,1964.7q-19-12.57-38.35-25.48-10.76-2.42-21.57-4.91c12.56,8.18,25,16.14,37.35,24.1C3098.33,1960.5,3105.9,1962.68,3113.38,1964.7Z"/><path class="cls-1" d="M3009.61,1934.72c-10.78-6.24-21.69-12.65-32.6-19-7.32-1.89-14.7-3.9-22.05-5.85,10.85,6.08,21.47,11.85,32.2,17.77C2994.64,1930,3002.18,1932.43,3009.61,1934.72Z"/><path class="cls-1" d="M2955.56,1917.5c-9.64-5-19.31-10.1-29.07-15.29-7.07-2-14.21-4-21.31-6.06,9.59,4.79,19,9.36,28.53,14C2941,1912.59,2948.32,1915.13,2955.56,1917.5Z"/><path class="cls-1" d="M2915.88,1905.1c6.92,3.13,13.86,6.29,20.72,9.32,6.09,2.38,12.14,4.71,18.2,7q-10.7-5.17-21.45-10.44C2927.54,1909.08,2921.71,1907.09,2915.88,1905.1Z"/><path class="cls-1" d="M2975.72,1930.58c7.53,3.57,14.94,7,22.43,10.46,5.67,2.39,11.39,4.86,17,7.2q-10.79-5.45-21.71-11.08C2987.55,1935,2981.67,1932.83,2975.72,1930.58Z"/><path class="cls-1" d="M2955,1922.57c5.77,2.51,11.47,4.9,17.22,7.37-2.36-1.12-4.76-2.31-7.15-3.48C2961.74,1925.19,2958.36,1923.86,2955,1922.57Z"/><path class="cls-1" d="M2926.49,1907.7q-13-6.36-26.07-12.9c-6.54-1.86-13.05-3.66-19.61-5.58,8.71,4,17.3,7.86,25.93,11.77C2913.35,1903.26,2919.92,1905.48,2926.49,1907.7Z"/><path class="cls-1" d="M2898.49,1899.19c7,2.87,14,5.81,21,8.56l-13.05-5.87C2903.76,1901,2901.15,1900.12,2898.49,1899.19Z"/><path class="cls-1" d="M2856.47,1881.94c7.47,3.14,14.84,6.12,22.26,9.19,6.18,2.19,12.41,4.51,18.55,6.64q-11-5-22.08-10.14C2869,1885.81,2862.7,1883.81,2856.47,1881.94Z"/><path class="cls-1" d="M3505.71,2204.22c5.35,3.19,10.74,6.42,16,9.53q8.4,4.68,16.74,9.29c-5.78-3.53-11.66-7.17-17.51-10.79C3515.89,2209.59,3510.82,2206.93,3505.71,2204.22Z"/><path class="cls-1" d="M3783.1,2349.12q18.6,13.13,36.94,26c8.62,4.22,17.24,8.43,25.73,12.5-12.63-9-25.31-18-38.12-27.23C3799.49,2356.62,3791.37,2353,3783.1,2349.12Z"/><path class="cls-1" d="M4802.8,2279c-154.2,204.68-447.83,304.57-1033.52,52.55,13,9.44,26,18.84,38.78,28,578.45,263.2,869.68,183.25,1019.6-12,132.84-173,154.87-436.38,167.67-631.49l-13.39,5.91C4959,1892.39,4924,2118,4802.8,2279Z"/><path class="cls-1" d="M3575.39,2244.26c5.31,3.21,10.67,6.47,15.92,9.6,5.68,3.22,11.35,6.44,17,9.6-5.75-3.55-11.59-7.21-17.41-10.84C3585.74,2249.87,3580.56,2247.06,3575.39,2244.26Z"/><path class="cls-1" d="M3901.37,2431.28c8.4,4.44,16.63,8.68,24.91,13-11.53-8-23.22-16.24-34.94-24.49-8.23-4.1-16.49-8.22-24.84-12.45Q3884.07,2419.45,3901.37,2431.28Z"/><path class="cls-1" d="M3860.92,2403.46q12.9,6.57,25.63,12.95c-12.08-8.51-24.18-17-36.43-25.74-8.39-4-17-8.22-25.48-12.36C3836.85,2386.83,3848.88,2395.14,3860.92,2403.46Z"/><path class="cls-1" d="M3940.27,2457.73c8.5,4.66,16.91,9.22,25.3,13.74q-16.62-11.44-33.5-23.2c-8.05-4.16-16.09-8.31-24.25-12.61C3918.69,2443.09,3929.57,2450.52,3940.27,2457.73Z"/><path class="cls-1" d="M3979.38,2483.9c8.33,4.71,16.66,9.44,24.87,14-10.64-7.24-21.24-14.43-32-21.83-8-4.27-16.06-8.69-24.14-13.1Q3963.84,2473.57,3979.38,2483.9Z"/><path class="cls-1" d="M4985.44,1695.8l-.95,7.11q6.27-3.47,12.12-6.63l.33-5,.8-12.31q-5.35,3.52-11,7.41Z"/><path class="cls-1" d="M4986.87,1685.07q5.63-3.84,10.94-7.33.57-8.64,1.12-17-4.82,3.84-9.88,8.08Q4988,1676.82,4986.87,1685.07Z"/><path class="cls-1" d="M4989.57,1626.62q2.93-4.74,5.8-9.18,1-6.75,2.07-13.25-2.43,4.75-4.88,9.82Q4991.06,1620.17,4989.57,1626.62Z"/><path class="cls-1" d="M4993.61,1609.71q2.18-4.38,4.31-8.51.94-5.78,1.91-11.32-1.76,4.39-3.49,9C4995.42,1602.45,4994.52,1606,4993.61,1609.71Z"/><path class="cls-1" d="M4978.56,1676.46q4.9-4.23,9.6-8.16,1.08-8,2.14-15.67c-2.79,2.86-5.64,5.85-8.54,8.94Q4980.17,1668.89,4978.56,1676.46Z"/><path class="cls-1" d="M4985.8,1643.19q3.6-4.73,7.11-9.11,1-7.32,2.11-14.36-3,4.72-6.12,9.8Q4987.35,1636.23,4985.8,1643.19Z"/><path class="cls-1" d="M4982.15,1659.77q4.26-4.53,8.37-8.73,1.06-7.68,2.13-15.11-3.61,4.56-7.34,9.46Q4983.74,1652.46,4982.15,1659.77Z"/><path class="cls-1" d="M4982.09,1720.88q6.91-3.06,13.31-5.87.59-8.91,1.14-17.61-5.9,3.18-12.2,6.68Q4983.23,1712.39,4982.09,1720.88Z"/><path class="cls-1" d="M3835.37,2396.54c-6.36-3.51-12.67-6.95-19.1-10.54,8.21,5.24,16.45,10.52,24.56,15.65,6.6,3.82,13,7.46,19.55,11.21Z"/><path class="cls-1" d="M3716.8,2327.37c5.52,3.4,11.09,6.86,16.57,10.21q7.93,4.62,15.81,9.19c-5.79-3.65-11.62-7.35-17.41-11C3726.82,2333,3721.79,2330.16,3716.8,2327.37Z"/><path class="cls-1" d="M3787.93,2370c5.82,3.61,11.7,7.28,17.5,10.86,4.81,2.84,9.59,5.64,14.37,8.45-5.89-3.76-11.72-7.45-17.64-11.24C3797.45,2375.42,3792.67,2372.69,3787.93,2370Z"/><path class="cls-1" d="M3764.47,2353.66c-6.49-3.53-12.93-7-19.49-10.61,7.88,5,15.8,10.06,23.56,14.93,6.85,3.92,13.55,7.68,20.32,11.52C3780.8,2364.3,3772.63,2359,3764.47,2353.66Z"/><path class="cls-1" d="M3068.4,1953.16q17.58,11,34.93,21.6c7.62,2.51,15.16,4.9,22.73,7.33-11.76-7.46-23.67-15.11-35.61-22.79C3083.1,1957.26,3075.79,1955.28,3068.4,1953.16Z"/><path class="cls-1" d="M3645.83,2285.37c5.36,3.27,10.76,6.6,16.07,9.8q8.37,4.83,16.7,9.6c-5.74-3.59-11.56-7.27-17.35-10.91C3656.15,2291.08,3651,2288.2,3645.83,2285.37Z"/><path class="cls-1" d="M3693.65,2311.32c-6.55-3.5-13-6.92-19.63-10.5q12.2,7.66,24.25,15.15c6.54,3.69,13,7.26,19.45,10.88C3709.79,2321.78,3701.71,2316.54,3693.65,2311.32Z"/><path class="cls-1" d="M4017.69,2509.24c7.83,4.56,15.74,9.22,23.47,13.67q-14.28-9.61-28.78-19.47c-7.73-4.28-15.61-8.75-23.43-13.15C3998.61,2496.71,4008.14,2503,4017.69,2509.24Z"/><path class="cls-1" d="M4106.8,2566.52c-6-3.92-11.9-7.79-17.9-11.75-3.9-2.3-7.71-4.48-11.64-6.81,4.53,2.91,9.13,5.89,13.63,8.77C4096.18,2560,4101.54,2563.32,4106.8,2566.52Z"/><path class="cls-1" d="M4054.42,2533.26c7.12,4.27,14.34,8.64,21.38,12.82-8.11-5.39-16.34-10.92-24.56-16.43-6.61-3.78-13.28-7.63-20-11.49C4039,2523.24,4046.77,2528.3,4054.42,2533.26Z"/><path class="cls-1" d="M4003.64,2502.07q8,5.1,15.85,10.11c5.06,3.08,10.13,6.19,15.15,9.22-5.78-3.77-11.63-7.63-17.44-11.44C4012.67,2507.32,4008.19,2504.75,4003.64,2502.07Z"/><path class="cls-1" d="M3930.13,2456.67c7,4.46,13.9,8.71,20.88,13.1,3.41,2.06,6.73,4,10.13,6-5.23-3.39-10.56-6.91-15.87-10.39C3940.23,2462.52,3935.2,2459.62,3930.13,2456.67Z"/><path class="cls-1" d="M3906.59,2440.06c-6.29-3.51-12.48-6.92-18.83-10.51q12.49,8,24.87,15.92c6.5,3.82,12.89,7.5,19.31,11.23C3923.5,2451.17,3915.12,2445.7,3906.59,2440.06Z"/><path class="cls-1" d="M3959,2473.36c8.34,5.41,16.51,10.64,24.75,15.94,6.61,3.92,13.23,7.85,19.77,11.69q-12.2-8.05-24.59-16.34C3972.3,2480.9,3965.71,2477.2,3959,2473.36Z"/><path class="cls-1" d="M3859,2413.11c6.34,4,12.64,7.9,18.94,11.83,4.17,2.48,8.26,4.89,12.4,7.34-5.68-3.65-11.33-7.27-17.07-11C3868.58,2418.59,3863.81,2415.85,3859,2413.11Z"/><path class="cls-1" d="M3623.15,2269.71c-6.51-3.41-12.92-6.71-19.49-10.2,8.27,5.13,16.46,10.16,24.63,15.17,6.62,3.68,13.13,7.23,19.68,10.84Q3635.64,2277.72,3623.15,2269.71Z"/><path class="cls-1" d="M3439.43,2161.35c-10.41-6.61-21-13.41-31.54-20.21-7.7-3.48-15.36-6.9-23.14-10.48,10.11,6.31,20.23,12.63,30.2,18.78C3423.14,2153.44,3431.34,2157.46,3439.43,2161.35Z"/><path class="cls-1" d="M3648.39,2281.9q-16.07-10.53-32.3-21.26c-7.78-3.82-15.51-7.59-23.38-11.53q15.48,10,30.8,19.76C3631.82,2273.23,3640.18,2277.66,3648.39,2281.9Z"/><path class="cls-1" d="M3684.37,2305.33c-9.6-6.22-19.2-12.43-28.92-18.78-7.65-3.93-15.43-8-23.18-12.06,9.89,6.29,19.64,12.42,29.4,18.57C3669.29,2297.22,3676.83,2301.27,3684.37,2305.33Z"/><path class="cls-1" d="M3577.8,2240.54c-10.41-6.76-20.94-13.67-31.5-20.6-7.84-3.76-15.69-7.54-23.62-11.41q15.51,9.9,30.86,19.63Q3565.74,2234.43,3577.8,2240.54Z"/><path class="cls-1" d="M3475.51,2184.06q-14.64-9.17-29.42-18.52c-7.52-3.59-15-7.19-22.63-10.88,9.66,5.92,19.23,11.72,28.8,17.52C3460,2176.17,3467.82,2180.17,3475.51,2184.06Z"/><path class="cls-1" d="M3507.88,2200.18c-10.13-6.51-20.44-13.22-30.73-19.93-7.94-3.7-16-7.58-24.07-11.4,10.54,6.67,21.07,13.32,31.46,19.81C3492.41,2192.61,3500.1,2196.34,3507.88,2200.18Z"/><path class="cls-1" d="M3544.93,2223.77q-14.88-9.43-29.88-19c-7.5-3.68-15-7.35-22.55-11.13,9.68,6,19.24,11.87,28.83,17.77C3529.21,2215.53,3537.14,2219.74,3544.93,2223.77Z"/><path class="cls-1" d="M3614.36,2264.08c-9.78-6.27-19.48-12.45-29.36-18.84-7.67-3.86-15.47-7.88-23.22-11.85,9.92,6.25,19.68,12.29,29.49,18.4Q3602.88,2258,3614.36,2264.08Z"/><path class="cls-1" d="M3187.9,1983.66c-13.65-9.66-27.33-19.37-41.16-29.24-7.12-1.42-14.29-3-21.43-4.42q20.47,14.34,40.68,28.35C3173.33,1980.18,3180.61,1981.9,3187.9,1983.66Z"/><path class="cls-1" d="M3897.24,2433.83q-14.32-9.51-28.83-19.22-11.17-6-22.49-12.25c9.31,6.1,18.63,12.21,27.81,18.15Q3885.55,2427.25,3897.24,2433.83Z"/><path class="cls-1" d="M3719,2323.8c-10.75-7.1-21.46-14.17-32.35-21.44q-11.93-6-24-12.18c10.58,6.89,21,13.58,31.44,20.33C3702.38,2315,3710.76,2319.48,3719,2323.8Z"/><path class="cls-1" d="M3836.14,2391.78q16.47,11.16,32.72,22.06,12.6,6.81,25,13.43c-11-7.55-22.22-15.27-33.43-23C3852.39,2400.12,3844.33,2396,3836.14,2391.78Z"/><path class="cls-1" d="M3754.72,2347.32q-14.19-9.26-28.59-18.78c-7.56-4-15.19-8-22.84-12.06q14.57,9.36,28.91,18.48C3739.77,2339.15,3747.24,2343.23,3754.72,2347.32Z"/><path class="cls-1" d="M3825.31,2390c-9.26-6.09-18.69-12.4-28.11-18.67q-11.23-6-22.61-12.13c9.4,6.12,18.78,12.21,28,18.15C3810.24,2381.59,3817.78,2385.79,3825.31,2390Z"/><path class="cls-1" d="M3789.72,2366.32Q3774,2355.8,3758,2345.07c-8-4.12-16.2-8.39-24.35-12.63,10.5,6.91,20.88,13.67,31.23,20.41C3773.18,2357.37,3781.53,2361.93,3789.72,2366.32Z"/><path class="cls-1" d="M3339.64,2108.52c-9.65-5.87-19.38-11.85-29.15-17.86-7.82-3.48-15.84-7.23-23.74-10.82,9.88,5.87,19.61,11.54,29.39,17.28C3324,2100.91,3331.89,2104.83,3339.64,2108.52Z"/><path class="cls-1" d="M3047.3,1961.28c-8.86-4.72-17.66-9.36-26.57-14.15q-10.09-3.64-20.26-7.41c8.89,4.52,17.67,8.89,26.48,13.3C3033.76,1955.82,3040.53,1958.55,3047.3,1961.28Z"/><path class="cls-1" d="M3078.21,1973.7c-9.76-5.46-19.52-10.93-29.38-16.53q-10.8-3.78-21.65-7.68,14.37,7.69,28.62,15.25C3063.28,1967.74,3070.79,1970.79,3078.21,1973.7Z"/><path class="cls-1" d="M3406.6,2145.33q-14.37-8.88-28.92-18-11.43-5.29-23-10.74c10.05,6.06,20,12,29.93,17.93C3392,2138.23,3399.28,2141.73,3406.6,2145.33Z"/><path class="cls-1" d="M3017.23,1938q16.07,9.27,31.94,18.29c7.61,2.67,15.15,5.23,22.71,7.82q-16.32-9.67-32.82-19.59C3031.79,1942.35,3024.54,1940.23,3017.23,1938Z"/><path class="cls-1" d="M3042.67,1945.59c11.29,6.77,22.49,13.42,33.67,20.05,7.75,2.63,15.55,5.35,23.24,7.91q-17.11-10.53-34.45-21.3C3057.69,1950.11,3050.15,1947.81,3042.67,1945.59Z"/><path class="cls-1" d="M2991.47,1930c9.92,5.49,19.88,11,29.64,16.3,7.78,2.8,15.58,5.66,23.3,8.38q-15.51-8.82-31.16-17.84C3006,1934.58,2998.74,1932.25,2991.47,1930Z"/><path class="cls-1" d="M3141.18,2004.52c-9.8-5.63-19.53-11.17-29.42-16.91q-10.62-4-21.32-8.19c9.31,5.21,18.64,10.44,27.81,15.47C3126,1998.17,3133.55,2001.32,3141.18,2004.52Z"/><path class="cls-1" d="M3110.35,1991.57c-8.67-4.77-17.43-9.67-26.19-14.56-6.74-2.63-13.47-5.25-20.25-8q12.32,6.54,24.48,12.89C3095.71,1985.15,3103.09,1988.45,3110.35,1991.57Z"/><path class="cls-1" d="M3794.64,2363.54c11.88,8.14,23.59,16.09,35.3,24,8.41,4.39,16.64,8.55,24.94,12.8-11.69-8.09-23.41-16.21-35.26-24.5Q3807.22,2369.81,3794.64,2363.54Z"/><path class="cls-1" d="M3373.1,2128.71c-8.74-5.25-17.45-10.44-26.28-15.79q-10.14-4.82-20.39-9.75,12.56,7.34,24.94,14.47C3358.63,2121.35,3365.91,2125.09,3373.1,2128.71Z"/><path class="cls-1" d="M3172.86,2022.64c-8.25-4.67-16.62-9.47-25-14.28q-10.47-4.35-21-8.82,13.3,7.2,26.51,14.29C3159.91,2016.83,3166.36,2019.7,3172.86,2022.64Z"/><path class="cls-1" d="M3305.45,2091.92c-8.73-5.15-17.44-10.27-26.25-15.52-6.5-3-12.93-5.84-19.49-8.89,8.59,4.94,17.16,9.84,25.63,14.63C3292.12,2085.5,3298.73,2088.63,3305.45,2091.92Z"/><path class="cls-1" d="M3272,2072.09q-14.66-8.78-29.51-17.76c-7.39-3.16-14.75-6.28-22.21-9.52,10,5.84,19.9,11.49,29.82,17.2C3257.49,2065.45,3264.74,2068.74,3272,2072.09Z"/><path class="cls-1" d="M3207,2038.07c-10-5.84-19.91-11.69-30-17.65-7.35-3-14.77-6.05-22.18-9.11q14.11,8.06,28.06,15.89C3191,2030.79,3199.11,2034.59,3207,2038.07Z"/><path class="cls-1" d="M3239.14,2056.78c-8.5-4.91-17-9.84-25.6-14.87-6.88-3-13.85-6.15-20.79-9.24,8.23,4.61,16.47,9.25,24.6,13.74C3224.63,2049.9,3231.92,2053.38,3239.14,2056.78Z"/><path class="cls-1" d="M3860.65,2409.43c-10.28-6.9-20.71-14-31.16-21.08-8-4.2-16.27-8.59-24.43-12.91q15.48,10.28,30.75,20.32C3844.11,2400.34,3852.46,2405,3860.65,2409.43Z"/><path class="cls-1" d="M4870.23,1768.14c-3.76,2.07-7.51,4.14-11.39,6.25l6.09-2.54C4866.71,1770.61,4868.49,1769.37,4870.23,1768.14Z"/><path class="cls-1" d="M3356.91,2019.92q23.33,18.27,46.24,36.07c752.47,157.53,1212.47-110.19,1458.1-281.57l-10.73,4.48C4582.73,1923.94,4081.79,2147.33,3356.91,2019.92Z"/><path class="cls-1" d="M4842.11,1782.37C4553,1901.43,4009.45,2081.3,3308.57,1981.9c15.65,12.34,31.28,24.66,46.73,36.76C4073.67,2145.39,4572.28,1927.52,4842.11,1782.37Z"/><path class="cls-1" d="M4879.64,1765.64l7.9-7.07c-3.26,1.82-6.51,3.63-9.86,5.48-2.86,2-5.66,4-8.58,6Z"/><path class="cls-1" d="M4918.12,1732.14l-9.68,8.81,5.36-3.85Z"/><path class="cls-1" d="M4904.1,1748.23l7-8-8.79,6.32c-2.59,2.35-5.24,4.74-7.9,7.13Z"/><path class="cls-1" d="M4895.52,1751.38,4884.9,1759l5.78-3.21Z"/><path class="cls-1" d="M3307.16,2009.71c-14.95-11.43-30.14-23.15-45.3-34.84-6.87-1.08-13.74-2.15-20.64-3.29,15,11.41,30,22.8,44.74,34C3293.06,2007,3300.11,2008.34,3307.16,2009.71Z"/><path class="cls-1" d="M3236.4,1994.94c-14.27-10.44-28.58-20.92-43.09-31.65-7-1.28-14.16-2.71-21.23-4,14.34,10.43,28.5,20.64,42.62,30.8Q3225.59,1992.55,3236.4,1994.94Z"/><path class="cls-1" d="M3353.34,2018.31c-15.39-12-31-24.36-46.58-36.66-6.81-1-13.65-2-20.48-3,15.46,12.06,30.95,24.14,46.21,36C3339.48,2015.91,3346.39,2017.08,3353.34,2018.31Z"/><path class="cls-1" d="M3753.36,2335.05q18.09,12.54,35.92,24.79c8.62,4.32,17.23,8.62,25.73,12.79q-18.26-12.77-36.7-25.78C3770.06,2343,3761.72,2339,3753.36,2335.05Z"/><path class="cls-1" d="M3260.21,2000.12q-21.81-16.21-44-32.84c-6.94-1.21-13.83-2.33-20.81-3.59,14.55,10.75,28.9,21.28,43.2,31.74Q3249.46,1997.83,3260.21,2000.12Z"/><path class="cls-1" d="M3330.51,2014.26c-15.22-11.79-30.69-23.87-46.13-35.91q-10.27-1.55-20.6-3.18c15.2,11.72,30.45,23.49,45.44,34.95C3316.31,2011.5,3323.45,2013,3330.51,2014.26Z"/><path class="cls-1" d="M4925.89,1728.38l6.08-8.88-5.12,4.68-2.69,2.45-7,8Z"/><path class="cls-1" d="M3283.89,2005.12c-14.75-11.14-29.69-22.48-44.67-33.88-7-1.16-14-2.4-20.95-3.61q22.23,16.68,44.13,33C3269.58,2002.13,3276.75,2003.66,3283.89,2005.12Z"/><path class="cls-1" d="M3212.32,1989.47c-14-10.1-28.12-20.26-42.38-30.64-7-1.33-14-2.61-21-4,13.92,9.94,27.7,19.7,41.43,29.41C3197.68,1986,3205,1987.78,3212.32,1989.47Z"/><path class="cls-1" d="M4938,1710.64q-4.19,4.83-8.5,9.8l4.78-4.37Z"/><path class="cls-1" d="M4972.16,1672q-2.07,6.77-4.19,13.75,4.8-4.24,9.4-8.23,1.57-7.4,3.12-14.57Q4976.41,1667.31,4972.16,1672Z"/><path class="cls-1" d="M4984.5,1695.68l1.15-8.63q-5.32,3.66-10.95,7.58l-1.19,5.63-2.1,9.94q6.19-3.48,12.05-6.72Z"/><path class="cls-1" d="M4983.93,1647.21q-3.47,4.62-7.05,9.5-2,6.46-4.06,13.14,4.1-4.5,8.07-8.73Q4982.42,1654.06,4983.93,1647.21Z"/><path class="cls-1" d="M4983.3,1704.65q-5.9,3.27-12.16,6.79-1.65,7.8-3.35,15.78l1.8-.8,11.48-5.09Q4982.21,1712.9,4983.3,1704.65Z"/><path class="cls-1" d="M3765.42,2329.81c-8.22-3.55-16.57-7.26-24.9-10.95,12.82,9.15,25.61,18.28,38.22,27.2,8.43,3.94,16.75,7.74,25.06,11.53C3791.15,2348.5,3778.28,2339.15,3765.42,2329.81Z"/><path class="cls-1" d="M4802,2278.37c120.94-160.53,156-385.7,178.88-555.93l-10.94,4.85-2.44,1.08c-30.83,144.3-75,330.62-181.86,475.58-159.4,216.26-458.28,340.38-1060.28,95.59q20.38,14.92,40.42,29.45C4353.46,2582.85,4647.73,2483.21,4802,2278.37Z"/><path class="cls-1" d="M4988,1669.7q-4.76,4-9.74,8.3-1.59,7.53-3.24,15.27,5.55-3.87,10.83-7.48Q4986.9,1677.63,4988,1669.7Z"/><path class="cls-1" d="M4955.34,1687.13q-3.57,5.16-7.25,10.51,2.08-2.39,4.15-4.73Q4953.8,1690,4955.34,1687.13Z"/><path class="cls-1" d="M4945.1,1706.25c1.74-3.25,3.45-6.46,5.16-9.64-2.25,2.56-4.52,5.17-6.82,7.8l-6.07,8.88Z"/><path class="cls-1" d="M4961.78,1682.11q2.13-5.2,4.24-10.25-2.9,4.1-5.86,8.34l-5.16,9.56Q4958.43,1685.86,4961.78,1682.11Z"/><path class="cls-1" d="M4987.33,1632.1q-2.82,4.68-5.7,9.61-1.92,6-3.87,12.2,3.38-4.59,6.66-8.92Q4985.88,1638.44,4987.33,1632.1Z"/><path class="cls-1" d="M4970.19,1661.87q-3,5.39-6,11c1.19-1.68,2.36-3.34,3.53-5Z"/><path class="cls-1" d="M4976,1656.29q1.71-5.44,3.38-10.73-2.46,4.28-5,8.72-2.13,5-4.28,10.11Q4973.13,1660.25,4976,1656.29Z"/><path class="cls-1" d="M4982.74,1635.21q-2.44,5.47-4.93,11.22c1-1.72,2-3.42,2.94-5.09Q4981.76,1638.24,4982.74,1635.21Z"/><path class="cls-2" d="M5000,1581.85q-2.31,8.07-4.57,16.8c-3.28,8.75-6.57,18.13-9.89,28.07-3.91,8.53-7.88,17.6-11.95,27.14-4.62,8.18-9.35,16.82-14.24,25.83q-8.07,11.57-16.67,24.15-6.92,8-14.21,16.37l-5,5.75q-10.53,9.61-21.8,19.84-11.84,8.49-24.51,17.44c-8.73,4.82-17.78,9.77-27.05,14.79-287.06,119.06-834.8,303.54-1543,202.7-246.78-194.66-521.26-421.57-826.68-684.87C1768.39,682,1218,266.36,794.71,0h-1.8c423.28,266.15,974.14,682.1,1686.89,1296.58,304.9,262.86,579,489.45,825.48,683.9-6.83-1-13.69-2-20.55-3-240.32-187.5-507.4-406.25-804.31-660.3C1722.1,668.31,1150.37,249.88,722.35,0H720.5c428,249.6,1000.21,668.37,1759.3,1317.86,296.37,253.58,563,472,803,659.29q-10.29-1.56-20.63-3.19c-233.84-180.28-493.46-390.83-781.79-635.54C1663.38,645,1067,226.13,635.49,0h-2.42C1064.5,225.66,1661.34,644.55,2479.8,1339.15c287.78,244.23,547,454.46,780.49,634.51-6.9-1.09-13.79-2.18-20.72-3.33-227.33-173-479.45-375.34-759.15-610.62C1582.69,604.53,956,189.46,524,0h-2.89C953,188.68,1580.17,603.65,2479.81,1360.43c279.11,234.8,530.78,436.76,757.76,609.55-7-1.15-14-2.39-21-3.61-220.73-165.7-465.26-359.67-736.16-585.38C1440.8,514.79,771.92,118,349,0H344.4C766.79,116.16,1436.5,512.44,2479.81,1381.72c270.3,225.21,514.38,418.83,734.74,584.3-7-1.22-13.9-2.36-20.89-3.64-214.16-158.36-451.13-344-713.25-560.11C1058.74,230.05,342.64-39.61,0,73.78v1.69C342-38.55,1057.66,230.39,2479.81,1403c261.49,215.6,498,400.86,711.73,559-7.06-1.29-14.17-2.7-21.25-4-207.5-151-436.69-328-689.88-534.38C1025.18,237.29,322.32,24.46,0,188.12v1.81C321.69,25.59,1024,237.59,2479.81,1424.29c252.56,205.87,481.22,382.53,688.33,533.23-7-1.34-14-2.61-21.06-4-200.9-143.54-422.35-312-666.67-508.68C989.45,244.61,301.66,96.89,0,312.1v1.83c301-215.88,988.29-69,2479.81,1131.64,243.67,196.15,464.59,364.23,665.08,507.52-7.15-1.42-14.37-3-21.56-4.47-194.16-136-407.72-295.77-642.92-482.51C952.38,253,281.33,179.21,0,445.51v1.94c280.63-267,951.06-194.31,2479.82,1019.4C2714.3,1653,2927.29,1812.37,3121,1948.13c-7.13-1.48-14.25-2.93-21.41-4.47-187.43-128.47-393.12-279.53-619.19-456.27C915.59,264,262.31,272.73,0,587v2c261.58-314.91,914.17-324.89,2479.82,899.17,225.32,176.16,430.42,326.81,617.38,455-7.25-1.56-14.54-3.22-21.81-4.84-180.57-120.82-378.3-263.11-595-429.65C881.73,280.06,246,378.14,0,733.49v2.09c245.19-356,880.18-455.51,2479.82,773.85,215.87,165.9,412.95,307.76,593,428.3q-10.78-2.42-21.62-4.92c-173.74-113.16-363.44-246.55-570.78-402.86C855,304.61,234,494.63,0,880.09v2.37C233.07,496.34,853,304.3,2479.82,1530.71c206.53,155.69,395.53,288.62,568.73,401.51q-10.83-2.52-21.69-5.14c-166.92-105.47-348.51-229.83-546.47-375.85C839.22,340.71,227.53,619.54,0,1020.9v2.44C226.64,621.48,837.28,340.47,2479.83,1552c197,145.32,377.84,269.21,544.13,374.37q-11-2.65-22.06-5.43c-159.88-97.63-333.27-213-521.51-348.43C838.75,391.42,227.33,748.6,0,1150.35v2.05c226.5-401.94,837-761.06,2479.83,420.88,187.23,134.7,359.8,249.59,519,346.9-7.15-1.78-14.29-3.56-21.46-5.41-153.05-89.85-318.25-196-497-321C856.74,458.68,233.37,876.16,0,1263.8v1.9c232.55-387.65,855.09-807,2479.84,328.87,177.62,124.17,341.87,229.8,494.13,319.3-7.39-1.91-14.83-3.91-22.25-5.89-145.86-81.88-302.64-178.85-471.34-292.91C893.12,541.88,244.55,998.39,0,1360.9v1.73C243.74,1000.27,891.56,542,2479.85,1615.86c167.52,113.26,323.27,209.64,468.27,291.16-7.09-1.9-14.15-3.74-21.27-5.7-139-74-287.47-161.63-446.48-265C945.9,639,259.43,1113.19,0,1443.35v1.52C258.66,1115,944.56,639.28,2479.85,1637.14c157.6,102.44,304.87,189.41,442.78,263-7.27-2-14.58-4.14-21.87-6.22-131.72-65.9-271.6-144-420.4-236.28C1013,748,276.9,1219.72,0,1513.43v1.4c276.13-293.43,1011.74-766.43,2479.86,143.6,147.2,91.24,285.65,168.66,416.13,234.12-6.83-2-13.61-3.8-20.46-5.82-124.75-57.87-256.3-126.6-395.18-207.83C1091.23,866.38,295.77,1318.53,0,1574v1.26c295.06-255.15,1090.23-708.31,2479.87,104.51,136.75,80,266.35,147.79,389.4,205.11-6.88-2-13.8-4.19-20.7-6.28-117.3-49.64-239.94-108.6-368.23-178.37C1178.89,992.4,315.55,1410.18,0,1626.9v1.15c314.9-216.48,1178.08-635,2479.88,73,125.48,68.24,245.5,126.08,360.46,175-5.57-1.71-11.1-3.33-16.68-5.07a3737.68,3737.68,0,0,1-343.34-149.53C1273.91,1124.45,335.66,1495.63,0,1674.07v1.07c335.12-178.26,1273.32-549.92,2479.9,47.16,112.66,55.75,221.65,103.13,327.16,143.38a3393,3393,0,0,1-326.76-123c-1105.45-481.36-2124.52-167-2480.3-26v1c355.33-140.94,1374.42-455.57,2479.92,25.81a3384,3384,0,0,0,343.42,128.29q27.7,10.41,55.07,20.14c19.41,8,38.73,15.8,57.85,23.29q31,13.79,61.47,26.59c20.5,9.58,40.86,19,61,27.95q31.47,15.47,62.19,29.88,33.18,16.93,65.54,32.8,33.28,17.54,65.68,33.9c22.57,12.22,44.92,24.15,66.88,35.59q34.36,19.08,67.79,37,33.74,19.13,66.45,37c23.13,13.36,45.8,26.17,68.23,38.68,23.57,13.84,46.65,27.09,69.48,40,24,14.29,47.45,28,70.66,41.34,24.23,14.63,48,28.69,71.43,42.37q36.61,22.35,72,43.26,36.9,22.77,72.56,44.08,37.16,23.16,73,44.82,34.57,21.72,67.95,42.07c24.45,15.51,48.35,30.38,71.91,44.86q37.67,24.06,74,46.52c230,147.89,419.1,249.13,573.65,312h2.17c-145.41-58.95-321.52-152-533.7-286.14C4452.74,2779.25,4648,2870.57,4801.69,2916h2.92c-162.59-47.65-372.12-147-639.69-312.7L4148,2592.41c410.8,245.59,680.46,329.43,852,308.9v-.85c-174.24,21-450.15-66.12-873-321.71-7.82-5.11-15.77-10.35-23.68-15.56,450.43,263,729.89,329.41,896.7,277.94v-.94c-168.28,52.19-451.67-16-910.58-286.12-9.22-6.1-18.56-12.34-27.93-18.61C4555,2815.94,4841.4,2857.3,5000,2768.15v-1.05c-159.33,90-448.36,47.71-948.28-238.18-10.42-7-20.85-14-31.41-21.13,542.87,299.47,833.1,306,979.69,171.15v-1.27c-146.85,135.89-438.86,129.07-987.17-175-11-7.5-22.12-15-33.3-22.68,575.4,307.19,865,281.38,1002.78,112.24,6.21-7.63,12.08-15.58,17.69-23.78v-1.69c-5.83,8.58-11.94,16.9-18.43,24.87-138.12,169.56-429.25,194.7-1008.86-116.31-11.34-7.79-22.87-15.81-34.4-23.82,571.51,294.41,859.89,257.21,1000,83.08,25.07-31.16,45.38-66.71,61.72-105.52v-2.49c-16.46,39.55-37,75.76-62.46,107.41-140.35,174.47-430,211.12-1005-86.48q-17.84-12.41-36-25.16c570,282.45,858.05,232.71,1000.85,52.72,50.12-63.17,82.34-142.37,102.6-228.85V2242c-20.17,87.93-52.55,168.48-103.34,232.51-143,180.25-432,229.58-1004.89-55.5-12.33-8.67-24.66-17.34-37.18-26.22,571.28,271.26,859.84,207.27,1005.84,20.4,88.67-113.49,124.72-272.28,139.57-428.82V1974c-14.23,159.7-49.85,322.8-140.32,438.6-146.15,187.07-435.45,250.79-1009.12-22.7q-19.18-13.63-38.66-27.61c576.22,261.11,866.74,180.89,1016.51-14.13,133.13-173.34,155.09-437.23,167.9-632.5L5000,1714v-1l-3.62,1.59q.59-9,1.15-17.72l2.47-1.32v-1.08l-2.4,1.29.29-4.45.84-13,1.27-.83v-1.13l-1.19.78q.57-8.71,1.13-17.18l.06-.05v-14.93q-.49,7.15-1,14.5-4.76,3.79-9.77,8,1.1-8.09,2.18-15.92,4.36-4.47,8.58-8.54v-1.32q-4.11,4-8.37,8.29,1.09-7.86,2.18-15.44,3.13-3.92,6.19-7.56v-1.46c-1.95,2.3-3.92,4.7-5.92,7.17q1.1-7.56,2.2-14.84c1.24-1.93,2.49-3.8,3.72-5.63v-1.68q-1.68,2.47-3.38,5.06c.73-4.77,1.47-9.46,2.21-14l1.17-2.23v-2l-.68,1.28.68-4.09v-7.54l-1.44,3.61c.48-1.76,1-3.51,1.44-5.23Zm-6.81,25.66c-.52,2-1,4.11-1.53,6.2-.82,1.68-1.63,3.38-2.45,5.11Q4991.21,1613,4993.19,1607.51Zm-6.75,19.52q2.09-4.58,4.16-8.94-1.29,5.45-2.6,11.08-2.49,4.1-5,8.38Q4984.71,1632.2,4986.44,1627ZM3907,2439.3c-10-6.64-20.25-13.48-30.45-20.31,8.12,4.37,16.29,8.8,24.31,13,10.59,7.23,21.14,14.42,31.59,21.48C3924.11,2448.89,3915.53,2444.05,3907,2439.3Zm32.79,19.2c9.93,6.69,19.68,13.18,29.49,19.73-7.78-4.42-15.69-9-23.56-13.54q-14.25-9.3-28.63-18.74C3924.73,2450.17,3932.33,2454.39,3939.83,2458.5ZM2966,1921.82c7,2.26,13.9,4.45,20.84,6.65,9.44,5.23,18.91,10.52,28.21,15.55-7-2.56-14.09-5.11-21.17-7.74C2984.63,1931.58,2975.28,1926.69,2966,1921.82Zm20.88,11.9c-7.1-2.65-14.26-5.41-21.4-8.14-8.22-3.93-16.56-8-24.87-12.1q10,3.35,20,6.62Q2973.75,1927,2986.84,1933.72Zm1983.82-260.09q-2,6.55-4.05,13.29-4.47,4-9.13,8.15l5.11-12.45Q4966.68,1678,4970.66,1673.63Zm-7,6.34c1.63-3.94,3.23-7.82,4.83-11.63q3.36-4.72,6.63-9.23-1.89,6.09-3.83,12.39Q4967.56,1675.63,4963.68,1680ZM3758.43,2344.28q-17.44-11.76-35.11-23.76c8.36,4.09,16.74,8.19,25,12.14,11.82,8.2,23.5,16.24,35.16,24.27C3775.15,2352.74,3766.87,2348.6,3758.43,2344.28Zm30.42,16.35c11.39,7.83,22.66,15.5,33.9,23.14q-12.48-6.53-25.15-13.29c-10.94-7.28-21.89-14.56-33-22C3772.78,2352.63,3780.79,2356.6,3788.85,2360.63Zm-708.4-392.57c7.52,2.55,15.06,5.12,22.53,7.58,11.19,6.86,22.25,13.56,33.32,20.27-8-3-16.13-6.12-24.19-9.18C3101.67,1980.65,3091.05,1974.33,3080.45,1968.06Zm26.34,16.62c-7.42-2.83-14.82-5.65-22.29-8.56-10.29-5.75-20.54-11.44-30.91-17.31q11.23,3.92,22.4,7.71C3086.3,1972.63,3096.62,1978.75,3106.79,1984.68ZM4961.44,1704l-.11.36q-2.07,6.86-4.2,13.88l-11.86,6.72,5.43-13.28Zm-10.07,6,.45-1.1q2.44-6,4.84-11.84,4.8-4.32,9.42-8.43-2.07,6.84-4.19,13.86Q4956.75,1706.18,4951.37,1710ZM3199,2019.41c7.71,2.67,15.34,5.21,23,7.8,12,7.94,24,15.87,35.83,23.59-7.8-2.92-15.53-5.72-23.4-8.74C3222.75,2034.63,3210.91,2027,3199,2019.41Zm31.26,21.09c-8-3.09-16.26-6.46-24.36-9.66-11.34-7-22.67-13.93-34.14-21.08,7.85,2.81,15.74,5.68,23.53,8.39Q3212.92,2029.46,3230.29,2040.5Zm89.48,33.72c7.91,2.76,15.91,5.65,23.74,8.31q19.36,13.5,38.44,26.66c-8.06-3-16.23-6.16-24.37-9.27Q3338.82,2087.25,3319.77,2074.22Zm34,24.25c-7.95-3-15.8-6-23.83-9.13-12.09-8-24.35-16.17-36.63-24.37,7.78,2.8,15.39,5.38,23.09,8.08C3328.94,2081.61,3341.42,2090.12,3353.77,2098.47Zm-7-14.81c7.69,2.6,15.2,5,22.82,7.45,13.37,9.5,26.6,18.82,39.78,28.1-7.9-2.85-15.78-5.68-23.76-8.64Q3366.29,2097.26,3346.74,2083.66Zm233.47,128.48q-20.39-14.79-41.13-30c7.89,2.78,15.79,5.58,23.59,8.25q20.85,15.49,41.43,30.66C3596.16,2218.13,3588.25,2215.2,3580.21,2212.14Zm26.63,10.94c13.64,10,27.23,20,40.66,29.81-8.05-3.19-16-6.29-24.17-9.61-13.23-9.5-26.65-19.22-40.1-29C3591.18,2217.34,3599,2220.17,3606.84,2223.08Zm-30-12.26q-12.08-4.64-24.34-9.47c-13.18-9.41-26.53-19-39.91-28.65,7.9,2.88,15.71,5.65,23.53,8.42C3549.77,2191.12,3563.37,2201.06,3576.82,2210.82Zm-67.16-40.21c-13.64-9.83-27.32-19.71-41.16-29.77q11.67,3.91,23.2,7.65c14,10.38,27.92,20.56,41.76,30.69Q3521.63,2175,3509.66,2170.61Zm-3.25-1.21q-11.94-4.4-24-8.94-19.89-14.09-40.06-28.51c7.83,2.72,15.59,5.34,23.34,8Q3486.21,2154.84,3506.41,2169.4Zm-66.88-39.46c-13.59-9.72-27.15-19.42-40.92-29.37,7.66,2.42,15.2,4.69,22.78,7,14,10.31,27.89,20.39,41.74,30.47Q3451.4,2134.09,3439.53,2129.94Zm-3.13-1.11c-7.89-2.76-15.85-5.6-23.82-8.47-13.29-9.35-26.61-18.73-40.1-28.3,7.78,2.54,15.59,5.14,23.29,7.59C3409.44,2109.52,3422.92,2119.17,3436.4,2128.83Zm-24.13-7.56c13,9.12,25.89,18.18,38.66,27.07-8.06-3.15-16.11-6.29-24.26-9.55-12.47-8.5-25.1-17.2-37.77-25.94C3396.77,2115.76,3404.48,2118.47,3412.27,2121.27Zm3.24,1.15c7.92,2.84,15.86,5.69,23.7,8.42q20.05,14.35,39.82,28.37c-8.06-3.05-16.21-6.22-24.36-9.4Q3435.25,2136.31,3415.51,2122.42Zm66.56,38.94c12.87,9.13,25.77,18.28,38.44,27.16-8.12-3.3-16.2-6.57-24.41-10-12.53-8.62-25.28-17.5-38-26.35Q3470.14,2156.85,3482.07,2161.36Zm3.35,1.24c8,3,16,6,23.9,8.9,13.3,9.58,26.58,19.14,39.67,28.49-8.14-3.22-16.35-6.53-24.59-9.87C3511.54,2181.1,3498.49,2171.86,3485.42,2162.6Zm66.71,39.62q19.54,13.92,38.79,27.52-12.32-5.19-24.78-10.56-19-13.14-38.21-26.61Q3540.11,2197.49,3552.13,2202.22Zm3.5,1.36c8.1,3.18,16.21,6.36,24.21,9.42q20.05,14.52,39.83,28.75c-8.23-3.37-16.6-6.91-24.93-10.41Q3575.36,2217.65,3555.63,2203.58Zm67.34,40.56c13.06,9.36,25.91,18.49,38.79,27.64q-12.44-5.4-25.05-11c-12.78-8.92-25.55-17.82-38.51-27C3606.46,2237.25,3614.81,2240.81,3623,2244.14Zm3.47,1.38c8.09,3.28,16,6.4,24,9.56,13.47,9.82,26.72,19.37,40,29-8.18-3.46-16.34-6.88-24.63-10.47C3652.77,2264.29,3639.72,2255,3626.44,2245.52Zm-16.51-21.3c8,2.94,16.05,6,23.94,8.79,13.87,10.35,27.72,20.68,41.38,30.79-8.07-3.11-16.24-6.34-24.4-9.57C3637.35,2244.39,3623.65,2234.31,3609.93,2224.22Zm-18.65-24.28c736.47,242,1063.85-35.64,1239.85-296.13,36.82-54.49,67-108.22,92.95-156.28l13.28-5.83c-35.15,85.17-79.9,186.83-146.34,281.94-171.54,245.53-487.7,447.38-1156.8,208.49Q3612.92,2216.23,3591.28,2199.94Zm40,31.14c-7.94-2.85-16-5.9-24.08-8.87q-20.65-15.2-41.63-30.79c7.75,2.64,15.37,5.12,23,7.64Q3610.1,2215.25,3631.28,2231.08ZM3563,2189.52c-14.21-10.55-28.42-21.11-42.84-31.91,7.61,2.38,15.12,4.62,22.65,6.89,14.62,11.09,29,21.94,43.43,32.79C3578.53,2194.74,3570.82,2192.19,3563,2189.52Zm-2.9-1c-7.83-2.69-15.75-5.48-23.67-8.29-13.91-10.18-27.85-20.39-42-30.81,7.74,2.51,15.48,5,23.13,7.43C3531.91,2167.55,3546,2178,3560.11,2188.51ZM3492,2147.59q-21.11-15.6-42.52-31.54,11.33,3.32,22.54,6.49,21.83,16.5,43.32,32.6C3507.65,2152.72,3499.81,2150.12,3492,2147.59Zm-2.78-.92c-7.72-2.52-15.46-5.05-23.27-7.68-13.9-10.12-27.82-20.26-41.92-30.61,7.64,2.33,15.27,4.65,22.84,6.88Q3468.25,2131.17,3489.24,2146.67Zm-67.53-40c-14-10.29-28.22-20.84-42.45-31.4,7.47,2,14.95,4.09,22.36,6,14.41,10.85,28.81,21.68,43,32.26Q3433.22,2110.2,3421.71,2106.67Zm-2.65-.8c-7.63-2.34-15.25-4.68-22.95-7.12-13.71-9.91-27.61-20.06-41.53-30.23,7.47,2.12,14.82,4.07,22.23,6.09C3391,2085.12,3405.13,2095.64,3419.06,2105.87Zm-25.79-8c-7.74-2.46-15.57-5.05-23.38-7.61q-20.23-14.39-40.81-29.16c7.62,2.24,15.3,4.55,22.86,6.7C3365.8,2077.88,3379.62,2088,3393.27,2097.82Zm-26.3-8.56c-7.71-2.54-15.35-5-23.12-7.63-13.25-9.23-26.53-18.51-39.95-28,7.56,2.31,15,4.38,22.47,6.59Q3346.82,2074.94,3367,2089.26Zm-26.35-8.76c-7.89-2.69-15.92-5.56-23.89-8.35-12.92-8.84-25.86-17.69-39-26.74,7.73,2.44,15.55,5,23.22,7.35C3314.31,2062.15,3327.46,2071.32,3340.62,2080.5Zm-27.25-9.53c-7.76-2.73-15.42-5.31-23.26-8.14q-18.89-12.63-38-25.54c7.62,2.48,15.11,4.78,22.67,7.18C3287.75,2053.43,3300.57,2062.21,3313.37,2071Zm-27-9.53c-8.07-2.92-16.31-6.09-24.45-9.13-12-7.84-24.19-15.86-36.4-23.92,7.82,2.63,15.72,5.38,23.48,7.92Q3267.8,2049,3286.36,2061.44Zm-24.78-8.23q17.55,11.43,34.84,22.56c-7.8-3.17-15.49-6.18-23.37-9.46-11.54-7.21-23.06-14.4-34.75-21.79C3246.12,2047.5,3253.83,2050.32,3261.58,2053.21Zm4.05,1.51c8,3,16.19,6.13,24.16,9,12,8,23.93,16,35.71,23.81-8.1-3.2-16.35-6.62-24.52-9.93Q3283.43,2066.33,3265.63,2054.72Zm64,35.52c11.85,7.81,23.58,15.46,35.28,23.09-8.23-3.5-16.68-7.27-25-10.89-11.52-7.31-23-14.59-34.68-22.08C3313.34,2083.64,3321.58,2087.07,3329.62,2090.24Zm4.32,1.71c7.87,3.09,15.54,5.9,23.34,8.88,12.15,8.21,24.28,16.39,36.26,24.39-8-3.31-15.94-6.55-24-10Q3351.84,2103.75,3333.94,2092Zm27.15,10.33c8.06,3.07,16.2,6.23,24.18,9.19,12.56,8.67,25.11,17.34,37.48,25.77-8.22-3.3-16.59-6.8-24.9-10.23C3385.73,2118.92,3373.41,2110.6,3361.09,2102.28Zm65.26,37.41q18.27,12.43,36.26,24.56c-8.09-3.48-16.11-6.88-24.29-10.48-12.06-7.94-24.13-15.89-36.35-24C3410.13,2133.1,3418.29,2136.45,3426.35,2139.69Zm3.93,1.54q12.1,4.83,24.06,9.47c12.68,8.82,25.34,17.63,37.83,26.22-8.28-3.47-16.72-7.16-25.09-10.75Q3448.83,2153.89,3430.28,2141.23Zm65.48,38.17c12.39,8.51,24.59,16.8,36.82,25.12-8.35-3.72-16.87-7.65-25.33-11.5-12-7.95-23.93-15.91-36.06-24.06C3479.4,2172.47,3487.64,2176,3495.76,2179.4Zm4,1.66c8.14,3.38,16.19,6.66,24.24,9.92,12.71,8.9,25.28,17.63,37.81,26.33-8.21-3.57-16.43-7.13-24.75-10.82C3524.73,2198.09,3512.33,2189.66,3499.8,2181.06Zm66,39c12.27,8.5,24.4,16.84,36.49,25.13-8.22-3.77-16.37-7.46-24.7-11.35q-18-12.11-36.3-24.48Q3553.59,2214.78,3565.77,2220Zm4.28,1.87c8.18,3.52,16.25,6.9,24.33,10.3,12.81,9,25.44,17.86,38.06,26.67-8.37-3.74-16.84-7.6-25.31-11.48C3594.83,2239,3582.52,2230.53,3570.05,2221.9Zm66.3,39.7q18.38,12.84,36.5,25.37c-8.4-3.94-16.87-8-25.38-12.08q-17.78-12-35.86-24.42Q3624.06,2256.13,3636.35,2261.6Zm4.27,1.89c8.31,3.68,16.64,7.38,24.85,10.93q18.89,13.41,37.48,26.49c-8.28-3.8-16.52-7.54-24.92-11.47Q3659.46,2276.63,3640.62,2263.49Zm66.48,40.34c12.26,8.62,24.54,17.25,36.59,25.64-8.51-4.09-17.19-8.39-25.82-12.63-11.59-7.91-23.4-16.07-35.2-24.21C3690.9,2296.47,3699,2300.12,3707.1,2303.83Zm-37.53-27.61c8.16,3.53,16.16,6.84,24.23,10.23q19.65,14.18,39,28c-8.36-3.73-16.83-7.59-25.3-11.46Q3688.66,2289.76,3669.57,2276.22Zm-15.71-19.79c8.08,3.18,16.13,6.33,24.11,9.39C3691.8,2276,3705.4,2286,3719,2296c-8.2-3.36-16.54-6.89-24.85-10.39C3680.79,2275.94,3667.43,2266.31,3653.86,2256.43ZM3636.73,2234c667.72,237.51,983.58,35.65,1155.07-209.81,66.73-95.52,111.59-197.63,146.82-283l13.33-5.88c-35.48,116.18-83.6,261.16-172.47,384.76-165.38,230-472,386-1101.15,144.93C3664.61,2254.81,3650.67,2244.4,3636.73,2234Zm1302.41-494.11q2.82-6.81,5.55-13.5l12-6.82q-2.17,7.17-4.41,14.51C4948,1736,4943.66,1737.9,4939.14,1739.88Zm4.79-14.16-3.25,1.84-8.43,4.78q3.26-6.06,6.41-12l10.59-7.62Zm-2.78,2.67,2.2-1.25q-2.68,6.57-5.46,13.29l-13.07,5.74q3.33-6.2,6.58-12.26Zm-17.74,18.39c-4.19,1.83-8.53,3.72-12.9,5.61q3.84-5.54,7.56-10.94l11.79-6.66Q4926.68,1740.72,4923.41,1746.78Zm-.74,1.36c-25.8,47.77-55.8,101.07-92.33,155.14-176,260.53-503.67,538.19-1241.41,294.89-14.47-10.89-28.92-21.77-43.59-32.91,854.94,256.82,1190.22-160.51,1364.14-411.38C4914,1751.94,4918.39,1750,4922.67,1748.14ZM3543.14,2163.59q-21.82-16.56-44-33.57c820.4,222.24,1198-145.72,1395.73-369.84,4.38-1.88,8.74-3.75,13-5.58C4733.62,2005.63,4397.83,2421.28,3543.14,2163.59Zm-2.51-.76c-7.56-2.29-15.07-4.52-22.71-6.91q-21.55-16.15-43.46-32.71c7.47,2.11,14.89,4.14,22.29,6.16Q3518.86,2146.29,3540.63,2162.83Zm-68.27-41.2c-14.57-11-29.31-22.22-44.1-33.5q11,2.76,21.87,5.38c14.95,11.54,29.85,23,44.57,34.29C3487.28,2125.78,3479.86,2123.75,3472.36,2121.63Zm-2.42-.67c-7.53-2.14-15.11-4.36-22.71-6.6-14.26-10.64-28.72-21.5-43.21-32.4,7.37,1.93,14.68,3.77,22,5.61C3440.74,2098.81,3455.44,2110,3469.94,2121Zm-68-40.55q-21.95-16.51-44.15-33.33,10.82,2.46,21.53,4.8,22.56,17.32,44.75,34.23Q3413.06,2083.32,3402,2080.41Zm-2.4-.65c-7.43-2-14.92-4-22.41-6.05q-21.54-16-43.36-32.29c7.28,1.74,14.57,3.47,21.8,5.13Q3377.73,2063.35,3399.56,2079.76Zm-24.86-6.71c-7.46-2.05-14.9-4.06-22.42-6.2q-21.08-15.39-42.51-31.2c7.3,1.82,14.52,3.5,21.77,5.24Q3353.26,2057.13,3374.7,2073.05Zm-25-7c-7.6-2.16-15.29-4.47-22.94-6.72-13.72-9.86-27.64-20-41.58-30.05,7.42,1.92,14.87,3.89,22.24,5.73C3321.55,2045.48,3335.68,2055.88,3349.65,2066.08Zm-25.65-7.52c-7.57-2.24-15.05-4.37-22.68-6.7-13.38-9.43-27-19.15-40.6-28.85,7.38,2,14.63,3.76,22,5.67C3296.52,2038.72,3310.37,2048.77,3324,2058.56Zm-25.58-7.62c-7.7-2.36-15.54-4.91-23.3-7.37q-19.71-13.63-39.75-27.64c7.57,2.11,15.19,4.31,22.7,6.34C3271.59,2031.91,3285.11,2041.56,3298.42,2050.94Zm-26.29-8.32c-7.61-2.41-15.14-4.7-22.8-7.21-13-8.77-25.89-17.5-39-26.48,7.5,2.16,14.88,4.15,22.33,6.24Q3252.55,2029.08,3272.13,2042.62Zm-26-8.24c-7.85-2.57-15.86-5.39-23.78-8.06-12.51-8.27-25-16.57-37.71-25,7.61,2.28,15.3,4.68,22.86,6.87C3220.52,2017.05,3233.32,2025.69,3246.15,2034.38Zm-27.27-9.25c-7.74-2.62-15.42-5.16-23.22-7.87-12-7.76-24.23-15.68-36.45-23.64,7.52,2.32,14.95,4.51,22.41,6.75Q3200.4,2012.93,3218.88,2025.13ZM3192,2016c-7.92-2.77-16-5.76-24-8.62-11.58-7.23-23.3-14.62-35-22.06,7.69,2.45,15.42,5,23.06,7.34C3168.06,2000.52,3180.09,2008.36,3192,2016Zm-28.1-10.12c-7.67-2.76-15.3-5.48-23-8.33-11.34-6.85-22.65-13.68-34.11-20.7,7.57,2.49,15.08,4.89,22.6,7.3Q3146.7,1995.15,3163.86,2005.88Zm-23.37-7.44c10.46,6.34,20.93,12.68,31.24,18.83-7.76-3.16-15.68-6.55-23.52-9.8-10.22-5.85-20.44-11.7-30.76-17.67C3125.15,1992.71,3132.85,1995.62,3140.49,1998.44Zm4.54,1.64c7.58,2.79,15.09,5.49,22.62,8.18,11.17,7,22.21,13.78,33.25,20.59-7.83-3.1-15.6-6.13-23.49-9.32C3166.71,2013.16,3155.89,2006.64,3145,2000.08Zm60.55,31.65c10.37,6.39,20.73,12.78,31,19-7.58-3.25-15.06-6.38-22.7-9.72q-15.45-9-31.09-18.33C3190.41,2025.76,3198,2028.74,3205.58,2031.73Zm5,2c7.84,3.08,15.75,6.25,23.52,9.23,11.3,7.15,22.46,14.15,33.62,21.13-8.21-3.42-16.62-7.13-24.91-10.66Q3226.85,2043.73,3210.61,2033.73Zm62.14,33.5c10.43,6.53,20.84,13,31.13,19.38-8.05-3.6-16.24-7.4-24.37-11.11-10.14-6.05-20.4-12.25-30.68-18.47C3256.79,2060.41,3264.87,2064,3272.75,2067.23Zm5,2c7.72,3.2,15.3,6.19,23,9.29,11.33,7.29,22.52,14.4,33.71,21.52-7.87-3.44-15.63-6.74-23.58-10.28Q3294.38,2079.64,3277.72,2069.23Zm61.87,34.11c10.5,6.68,21,13.33,31.36,19.82-7.91-3.68-15.8-7.34-23.79-11.12-10.07-6.11-20.28-12.4-30.49-18.69C3324.37,2096.77,3332,2100,3339.59,2103.34Zm5.51,2.4c8,3.48,16.15,7,24.11,10.41,11.2,7.3,22.29,14.45,33.35,21.57q-12.2-5.53-24.53-11.24Q3361.68,2116.25,3345.1,2105.74Zm28.72,12.32c8,3.36,15.83,6.59,23.71,9.85,12,8,23.76,15.73,35.58,23.52-8.23-3.64-16.55-7.4-24.87-11.16C3396.82,2132.93,3385.39,2125.59,3373.82,2118.06Zm64.14,36.57q16.76,11,33.28,21.8-12.31-5.78-24.8-11.76-16.3-10.34-32.88-21C3421.7,2147.35,3429.91,2151.09,3438,2154.63Zm5,2.22c8,3.51,15.84,6.8,23.75,10.19,11.86,8,23.58,15.81,35.29,23.6-8.15-3.73-16.26-7.4-24.5-11.24C3466.07,2172,3454.59,2164.48,3443,2156.85Zm63.92,37c11.27,7.5,22.5,15,33.6,22.26-8.3-4-16.69-8.12-25.09-12.25-10.62-6.8-21.38-13.78-32.16-20.78C3491.22,2186.81,3499,2190.31,3506.9,2193.89Zm5.22,2.38c8.24,3.73,16.49,7.48,24.63,11.09q17.7,12,35.15,23.75c-8.35-3.93-16.79-8-25.24-12Q3529.52,2207.83,3512.12,2196.27Zm65.06,38.38c11,7.36,21.91,14.74,32.68,21.89-8.14-4-16.25-8-24.5-12.15-10.84-7-21.89-14.28-32.91-21.52C3560.71,2226.81,3569,2230.83,3577.18,2234.65Zm5.36,2.49c8.15,3.8,16.16,7.42,24.22,11.1,11.8,8.09,23.57,16.15,35.18,24-8.41-4.06-17-8.27-25.47-12.46C3605.27,2252.38,3593.91,2244.77,3582.54,2237.14Zm64.57,38.59q16.79,11.37,33.38,22.5c-8.19-4.14-16.37-8.26-24.67-12.52-11-7.16-22-14.47-33.13-21.82Q3635,2269.91,3647.11,2275.73Zm5.52,2.63c8.36,4,16.76,8,25,11.91,11.61,8,23.21,16,34.65,23.83-8.38-4.13-16.78-8.29-25.26-12.56C3675.68,2294,3664.16,2286.16,3652.63,2278.36Zm64.85,39.3c11.47,7.81,22.76,15.41,34.08,23.05q-12.43-6.4-25-13c-11-7.25-22-14.51-33.11-21.92C3701.52,2309.85,3709.48,2313.73,3717.48,2317.66Zm-5.83-11.75q12.48,5.67,24.82,11.17c12.56,9,25.13,18,37.48,26.71-8.37-3.92-16.76-7.88-25.24-11.94C3736.49,2323.35,3724.08,2314.64,3711.65,2305.91ZM3697.49,2288c8.22,3.44,16.43,6.88,24.54,10.19q20.1,14.73,39.88,29.08c-8.28-3.59-16.65-7.29-25-11Q3717.3,2302.27,3697.49,2288Zm-16.39-21c627.58,239.6,933.84,83.52,1099.15-146.41,89.16-124,137.33-269.46,172.85-385.83l13.37-5.92c-30.81,144.13-75,330-181.56,474.55-159.48,216.37-458.82,340.36-1062.51,94C3708.7,2287.3,3695,2277.27,3681.1,2267Zm1272.37-533.44q2.26-7.43,4.46-14.68,6.21-3.51,12.11-6.82-1.64,7.73-3.33,15.63Zm4.86-16q2-6.52,3.91-12.92l.47-1.54q5.55-3.94,10.85-7.67l-1,4.63-2.28,10.76Zm4.82-15.94,4.29-14.17q4.91-4.34,9.6-8.41l-3.19,15Q4968.63,1697.73,4963.15,1701.62Zm-7.29-5.1q-4.26,3.84-8.67,7.84l5.83-10.91q3.88-4.42,7.66-8.67Q4958.3,1690.57,4955.86,1696.52Zm-.82,2-4.1,10-1,2.5q-5,3.6-10.24,7.37l2.85-5.34,3.33-6.25Q4950.53,1702.61,4955,1698.55Zm-13.35,14.1-3.76,7-8.88,6.4-.88.64,6.6-9.65.26-.39,8.74-8Zm-12.09,14.23,7.31-5.27-6.21,11.61-11.41,6.45c2.46-3.57,4.9-7.12,7.29-10.62Zm-12.19,13.86c-3.57,2-7.16,4-10.84,6.1,2.67-3,5.28-6,7.88-9l9.86-7.1Zm-1.23,1.78c-2.41,3.5-4.85,7-7.32,10.59-4.1,1.77-8.29,3.58-12.54,5.4,2.81-3.19,5.64-6.39,8.39-9.53Zm-21.89,16.87-11.93,5.09q4.5-4,8.88-8l11-6.14Zm-1.47,1.66c-198.11,224.3-576.14,590.26-1395.74,367.41q-22.17-17-44.73-34.4c787.21,189.14,1206.55-130,1427.8-327.61Q4886.58,1763.72,4892.82,1761.05ZM3450.46,2092.61c-15.11-11.67-30.25-23.36-45.58-35.27,755.39,157.55,1215.88-113.44,1460.5-284.64l12.05-5.09C4655.56,1965.35,4236.09,2282.08,3450.46,2092.61Zm-2.21-.55c-7.28-1.76-14.57-3.54-21.91-5.39-14.88-11.35-29.81-22.75-44.9-34.34q10.72,2.36,21.37,4.57C3418.08,2068.77,3433.18,2080.43,3448.25,2092.06ZM3379.68,2051c-15.1-11.6-30.23-23.24-45.55-35.1,7,1.28,13.89,2.47,20.82,3.69,15.52,12.15,30.85,24.1,46.13,36C3394,2054.05,3386.85,2052.55,3379.68,2051Zm-2.1-.45q-10.77-2.39-21.65-4.88c-14.93-11.32-29.84-22.63-45-34.21,7.07,1.37,14.17,2.78,21.21,4.08C3347.44,2027.36,3362.51,2039,3377.58,2050.53Zm-23.86-5.4q-10.87-2.51-21.84-5.15c-14.66-11-29.31-21.93-44.18-33.14,7.08,1.44,14.13,2.82,21.17,4.19C3324,2022.57,3338.83,2033.83,3353.72,2045.13Zm-24.1-5.68c-7.29-1.75-14.56-3.49-21.9-5.32q-21.61-15.92-43.47-32.15,10.71,2.28,21.37,4.45C3300.42,2017.6,3315,2028.53,3329.62,2039.45Zm-24.3-5.93c-7.39-1.85-14.86-3.81-22.3-5.74q-21.09-15.32-42.5-31,10.8,2.39,21.54,4.69Q3283.84,2017.71,3305.32,2033.52Zm-24.76-6.38c-7.38-1.92-14.7-3.76-22.14-5.76q-20.68-14.76-41.69-29.88c7.22,1.67,14.38,3.24,21.56,4.83Q3259.55,2011.89,3280.56,2027.14Zm-24.78-6.5c-7.55-2-15.19-4.24-22.79-6.37-13.4-9.37-26.95-18.93-40.55-28.55,7.31,1.76,14.64,3.54,21.91,5.22Q3235.18,2005.93,3255.78,2020.64Zm-25.52-7.13c-7.47-2.1-14.87-4.07-22.39-6.26-13.07-9-26.31-18.1-39.6-27.32,7.29,1.81,14.48,3.47,21.73,5.22C3203.5,1994.7,3217,2004.2,3230.26,2013.51Zm-25.26-7.1c-7.62-2.22-15.36-4.63-23-6.94-12.82-8.57-25.68-17.19-38.68-26,7.45,1.92,14.94,3.92,22.35,5.77Q3185.46,1993,3205,2006.41Zm-26.06-7.85c-7.53-2.26-15-4.44-22.58-6.79-12.46-8.13-25-16.3-37.59-24.62,7.32,2,14.53,3.74,21.8,5.63C3153.47,1981.51,3166.2,1990,3178.94,1998.56Zm-25.77-7.75c-7.76-2.42-15.66-5-23.48-7.55-12-7.57-24-15.32-36.16-23.1,7.46,2.07,15,4.25,22.42,6.24Q3134.69,1978.76,3153.17,1990.81Zm-27.11-8.72c-7.57-2.43-15.11-4.82-22.73-7.33q-17.34-10.65-34.93-21.6c7.39,2.12,14.7,4.1,22,6.14C3102.39,1967,3114.3,1974.63,3126.06,1982.09Zm-26.48-8.54c-7.69-2.56-15.49-5.28-23.24-7.91-11.18-6.63-22.38-13.28-33.67-20.05,7.48,2.22,15,4.52,22.46,6.66Q3082.48,1963.07,3099.58,1973.55Zm-27.7-9.45c-7.56-2.59-15.1-5.15-22.71-7.82q-15.87-9-31.94-18.29c7.31,2.24,14.56,4.36,21.83,6.52Q3055.56,1954.42,3071.88,1964.1Zm-27.47-9.46c-7.72-2.72-15.52-5.58-23.3-8.38-9.76-5.28-19.72-10.81-29.64-16.3,7.27,2.29,14.56,4.62,21.78,6.84Q3028.93,1945.84,3044.41,1954.64Zm-23.68-7.51c8.91,4.79,17.71,9.43,26.57,14.15-6.77-2.73-13.54-5.46-20.35-8.26-8.81-4.41-17.59-8.78-26.48-13.3Q3010.63,1943.47,3020.73,1947.13Zm6.45,2.36q10.84,3.88,21.65,7.68c9.86,5.6,19.62,11.07,29.38,16.53-7.42-2.91-14.93-6-22.41-9Q3041.54,1957.18,3027.18,1949.49Zm57,27.52c8.76,4.89,17.52,9.79,26.19,14.56-7.26-3.12-14.64-6.42-22-9.62q-12.15-6.33-24.48-12.89C3070.69,1971.76,3077.42,1974.38,3084.16,1977Zm6.28,2.41q10.7,4.15,21.32,8.19c9.89,5.74,19.62,11.28,29.42,16.91-7.63-3.2-15.23-6.35-22.93-9.63C3109.08,1989.86,3099.75,1984.63,3090.44,1979.42Zm57.44,28.94c8.36,4.81,16.73,9.61,25,14.28-6.5-2.94-13-5.81-19.5-8.81q-13.21-7.11-26.51-14.29Q3137.41,2004,3147.88,2008.36Zm7,3c7.41,3.06,14.83,6.14,22.18,9.11,10,6,20,11.81,30,17.65-7.92-3.48-16.07-7.28-24.07-10.87Q3169,2019.36,3154.9,2011.31Zm58.64,30.6c8.59,5,17.1,10,25.6,14.87-7.22-3.4-14.51-6.88-21.79-10.37-8.13-4.49-16.37-9.13-24.6-13.74C3199.69,2035.76,3206.66,2038.9,3213.54,2041.91Zm6.77,2.9c7.46,3.24,14.82,6.36,22.21,9.52q14.83,9,29.51,17.76c-7.29-3.35-14.54-6.64-21.9-10.08C3240.21,2056.3,3230.33,2050.65,3220.31,2044.81Zm58.89,31.59c8.81,5.25,17.52,10.37,26.25,15.52-6.72-3.29-13.33-6.42-20.11-9.78-8.47-4.79-17-9.69-25.63-14.63C3266.27,2070.56,3272.7,2073.43,3279.2,2076.4Zm7.55,3.44c7.9,3.59,15.92,7.34,23.74,10.82,9.77,6,19.5,12,29.15,17.86-7.75-3.69-15.67-7.61-23.5-11.4C3306.36,2091.38,3296.63,2085.71,3286.75,2079.84Zm60.07,33.08c8.83,5.35,17.54,10.54,26.28,15.79-7.19-3.62-14.47-7.36-21.73-11.07q-12.4-7.16-24.94-14.47Q3336.66,2108.09,3346.82,2112.92Zm7.89,3.69q11.53,5.43,23,10.74,14.52,9.08,28.92,18c-7.32-3.6-14.56-7.1-22-10.79C3374.7,2128.6,3364.76,2122.67,3354.71,2116.61Zm30,14c7.78,3.58,15.44,7,23.14,10.48,10.57,6.8,21.13,13.6,31.54,20.21-8.09-3.89-16.29-7.91-24.48-11.91C3405,2143.29,3394.86,2137,3384.75,2130.66Zm61.34,34.88q14.77,9.35,29.42,18.52c-7.69-3.89-15.48-7.89-23.25-11.88-9.57-5.8-19.14-11.6-28.8-17.52C3431.05,2158.35,3438.57,2162,3446.09,2165.54Zm7,3.31c8,3.82,16.13,7.7,24.07,11.4,10.29,6.71,20.6,13.42,30.73,19.93-7.78-3.84-15.47-7.57-23.34-11.52C3474.15,2182.17,3463.62,2175.52,3453.08,2168.85Zm62,35.91q15,9.61,29.88,19c-7.79-4-15.72-8.24-23.6-12.37-9.59-5.9-19.15-11.76-28.83-17.77C3500.07,2197.41,3507.55,2201.08,3515.05,2204.76Zm7.63,3.77c7.93,3.87,15.78,7.65,23.62,11.41,10.56,6.93,21.09,13.84,31.5,20.6q-12.06-6.11-24.26-12.38Q3538.23,2218.47,3522.68,2208.53Zm62.32,36.71c9.88,6.39,19.58,12.57,29.36,18.84q-11.47-6.06-23.09-12.29c-9.81-6.11-19.57-12.15-29.49-18.4C3569.53,2237.36,3577.33,2241.38,3585,2245.24Zm7.71,3.87c7.87,3.94,15.6,7.71,23.38,11.53q16.24,10.76,32.3,21.26c-8.21-4.24-16.57-8.67-24.88-13Q3608.2,2259.09,3592.71,2249.11Zm62.74,37.44c9.72,6.35,19.32,12.56,28.92,18.78-7.54-4.06-15.08-8.11-22.7-12.27-9.76-6.15-19.51-12.28-29.4-18.57C3640,2278.53,3647.8,2282.62,3655.45,2286.55Zm7.16,3.63q12.07,6.18,24,12.18c10.89,7.27,21.6,14.34,32.35,21.44-8.22-4.32-16.6-8.84-24.93-13.29C3683.6,2303.76,3673.19,2297.07,3662.61,2290.18Zm63.52,38.36q14.38,9.49,28.59,18.78c-7.48-4.09-14.95-8.17-22.52-12.36q-14.37-9.15-28.91-18.48C3710.94,2320.54,3718.57,2324.58,3726.13,2328.54Zm7.52,3.9c8.15,4.24,16.31,8.51,24.35,12.63q16,10.77,31.72,21.25c-8.19-4.39-16.54-9-24.84-13.47C3754.53,2346.11,3744.15,2339.35,3733.65,2332.44Zm63.55,38.85c9.42,6.27,18.85,12.58,28.11,18.67-7.53-4.17-15.07-8.37-22.68-12.65-9.26-5.94-18.64-12-28-18.15Q3786,2365.31,3797.2,2371.29Zm7.86,4.15c8.16,4.32,16.38,8.71,24.43,12.91,10.45,7.09,20.88,14.18,31.16,21.08-8.19-4.45-16.54-9.09-24.84-13.67Q3820.57,2385.76,3805.06,2375.44Zm63.35,39.17q14.48,9.69,28.83,19.22-11.67-6.57-23.51-13.32c-9.18-5.94-18.5-12.05-27.81-18.15Q3857.23,2408.55,3868.41,2414.61Zm.45-.77q-16.23-10.87-32.72-22.06c8.19,4.24,16.25,8.34,24.34,12.46,11.21,7.76,22.39,15.48,33.43,23Q3881.48,2420.67,3868.86,2413.84Zm-38.92-26.27c-11.71-7.94-23.42-15.89-35.3-24q12.59,6.27,25,12.33c11.85,8.29,23.57,16.41,35.26,24.5C3846.58,2396.12,3838.35,2392,3829.94,2387.57Zm-40.66-27.73q-17.84-12.26-35.92-24.79c8.36,4,16.7,7.95,24.95,11.8q18.49,13.07,36.7,25.78C3806.51,2368.46,3797.9,2364.16,3789.28,2359.84Zm-48.76-41c8.33,3.69,16.68,7.4,24.9,10.95,12.86,9.34,25.73,18.69,38.38,27.78-8.31-3.79-16.63-7.59-25.06-11.53C3766.13,2337.14,3753.34,2328,3740.52,2318.86Zm-15.12-19.32c602,244.79,900.88,120.67,1060.28-95.59,106.85-145,151-331.28,181.86-475.58l2.44-1.08,10.94-4.85C4958,1892.67,4923,2117.84,4802,2278.37c-154.31,204.84-448.58,304.48-1036.22,50.62Q3745.73,2314.43,3725.4,2299.54Zm1244.19-573.12-1.8.8q1.71-8,3.35-15.78,6.27-3.53,12.16-6.79-1.1,8.25-2.23,16.68Zm1.82-16.22,2.1-9.94,1.19-5.63q5.63-3.93,10.95-7.58l-1.15,8.63-1,7.8Q4977.61,1706.72,4971.41,1710.2Zm3.58-16.93q1.64-7.74,3.24-15.27,5-4.3,9.74-8.3-1.06,7.93-2.15,16.09Q4980.54,1689.39,4975,1693.27Zm2.38-15.78q-4.6,4-9.4,8.23,2.11-7,4.19-13.75,4.24-4.65,8.33-9Q4978.95,1670.09,4977.37,1677.49Zm-4.55-7.64q2-6.67,4.06-13.14,3.59-4.87,7.05-9.5-1.52,6.84-3,13.91Q4976.91,1665.35,4972.82,1669.85Zm4.94-15.94q2-6.21,3.87-12.2,2.88-4.93,5.7-9.61-1.45,6.33-2.91,12.89Q4981.13,1649.33,4977.76,1653.91Zm5-18.7q-1,3-2,6.13c-1,1.67-2,3.37-2.94,5.09Q4980.3,1640.69,4982.74,1635.21Zm-8.3,19.07q2.51-4.46,5-8.72-1.68,5.28-3.38,10.73-2.9,4-5.86,8.1Q4972.32,1659.25,4974.44,1654.28Zm-4.25,7.59-2.51,6c-1.17,1.64-2.34,3.3-3.53,5Q4967.21,1667.26,4970.19,1661.87Zm-10,18.33q3-4.25,5.86-8.34-2.1,5-4.24,10.25-3.34,3.75-6.78,7.65Zm-4.82,6.93q-1.55,2.86-3.1,5.78-2.07,2.34-4.15,4.73Q4951.76,1692.3,4955.34,1687.13Zm-11.9,17.28c2.3-2.63,4.57-5.24,6.82-7.8-1.71,3.18-3.42,6.39-5.16,9.64l-7.73,7Zm-5.41,6.23-3.72,5.43-4.78,4.37Q4933.83,1715.46,4938,1710.64Zm-13.87,16,2.69-2.45,5.12-4.68-6.08,8.88-8.7,6.28Zm-6,5.51-4.32,5-5.36,3.85Zm-15.83,14.4,8.79-6.32-7,8-9.71,5.44C4897.05,1751.28,4899.7,1748.89,4902.29,1746.54Zm-6.77,4.84-4.84,4.36-5.78,3.21Zm-17.84,12.67c3.35-1.85,6.6-3.66,9.86-5.48l-7.9,7.07-10.54,4.46C4872,1768.06,4874.82,1766.07,4877.68,1764.05Zm-7.45,4.09c-1.74,1.23-3.52,2.47-5.3,3.71l-6.09,2.54C4862.72,1772.28,4866.47,1770.21,4870.23,1768.14Zm-19.71,10.76,10.73-4.48c-245.63,171.38-705.63,439.1-1458.1,281.57q-23-17.86-46.24-36.07C4081.79,2147.33,4582.73,1923.94,4850.52,1778.9Zm-8.41,3.47c-269.83,145.15-768.44,363-1486.81,236.29-15.45-12.1-31.08-24.42-46.73-36.76C4009.45,2081.3,4553,1901.43,4842.11,1782.37ZM3306.76,1981.65c15.59,12.3,31.19,24.61,46.58,36.66-7-1.23-13.86-2.4-20.85-3.7-15.26-11.82-30.75-23.9-46.21-36C3293.11,1979.67,3300,1980.68,3306.76,1981.65Zm-22.38-3.3c15.44,12,30.91,24.12,46.13,35.91-7.06-1.31-14.2-2.76-21.29-4.14-15-11.46-30.24-23.23-45.44-34.95Q3274.1,1976.79,3284.38,1978.35Zm-22.52-3.48c15.16,11.69,30.35,23.41,45.3,34.84-7-1.37-14.1-2.74-21.2-4.18-14.77-11.15-29.74-22.54-44.74-34C3248.12,1972.72,3255,1973.79,3261.86,1974.87Zm-22.64-3.63c15,11.4,29.92,22.74,44.67,33.88-7.14-1.46-14.31-3-21.49-4.52q-21.89-16.26-44.13-33C3225.26,1968.84,3232.26,1970.08,3239.22,1971.24Zm-23-4q22.16,16.63,44,32.84-10.76-2.3-21.58-4.69c-14.3-10.46-28.65-21-43.2-31.74C3202.41,1965,3209.3,1966.07,3216.24,1967.28Zm-22.93-4c14.51,10.73,28.82,21.21,43.09,31.65q-10.83-2.42-21.7-4.9c-14.12-10.16-28.28-20.37-42.62-30.8C3179.15,1960.58,3186.27,1962,3193.31,1963.29Zm-23.37-4.46c14.26,10.38,28.34,20.54,42.38,30.64-7.29-1.69-14.64-3.46-22-5.23-13.73-9.71-27.51-19.47-41.43-29.41C3156,1956.22,3162.93,1957.5,3169.94,1958.83Zm-23.2-4.41c13.83,9.87,27.51,19.58,41.16,29.24-7.29-1.76-14.57-3.48-21.91-5.31q-20.23-14-40.68-28.35C3132.45,1951.47,3139.62,1953,3146.74,1954.42Zm-23.76-4.9q20.31,14.22,40.37,28.15c-7.44-1.86-14.95-3.85-22.44-5.79-13-8.79-26.13-17.82-39.27-26.82C3108.77,1946.59,3115.88,1948.05,3123,1949.52Zm-23.73-5c13,8.93,26.09,17.91,38.93,26.61-7.3-1.89-14.54-3.69-21.88-5.66q-19.18-12.66-38.68-25.71Q3088.45,1942.22,3099.25,1944.56Zm-24.22-5.34q19.33,12.93,38.35,25.48c-7.48-2-15.05-4.2-22.57-6.29-12.39-8-24.79-15.92-37.35-24.1Q3064.26,1936.82,3075,1939.22Zm-24.21-5.51c12.41,8.08,24.67,16,36.91,23.84-7.42-2.07-14.79-4-22.25-6.19-11.94-7.45-24-15-36.08-22.67Q3040.14,1931.26,3050.82,1933.71ZM3026.5,1928c11.94,7.54,23.88,15.08,35.67,22.44-7.53-2.17-15.18-4.54-22.76-6.8q-17.26-10.36-34.77-21C3011.93,1924.4,3019.23,1926.23,3026.5,1928Zm-24.94-6.15c11.51,7,22.89,13.89,34.25,20.72-7.4-2.21-14.77-4.36-22.22-6.64q-16.49-9.54-33.19-19.35C2987.48,1918.38,2994.5,1920.08,3001.56,1921.83Zm-24.55-6.16c10.91,6.4,21.82,12.81,32.6,19-7.43-2.29-15-4.77-22.45-7.13-10.73-5.92-21.35-11.69-32.2-17.77C2962.31,1911.77,2969.69,1913.78,2977,1915.67Zm-25.65-6.8c10.47,5.87,20.76,11.49,31.12,17.23-7.17-2.29-14.33-4.53-21.54-6.88-10.07-5.25-20.1-10.43-30.29-15.84C2937.59,1905.27,2944.45,1907,2951.36,1908.87Zm-24.87-6.66c9.76,5.19,19.43,10.26,29.07,15.29-7.24-2.37-14.57-4.91-21.85-7.35-9.49-4.64-18.94-9.21-28.53-14C2912.28,1898.16,2919.42,1900.26,2926.49,1902.21Zm-26.07-7.41q13.11,6.56,26.07,12.9c-6.57-2.22-13.14-4.44-19.75-6.71-8.63-3.91-17.22-7.74-25.93-11.77C2887.37,1891.14,2893.88,1892.94,2900.42,1894.8Zm-63.87-18.91c3.9,1.2,7.8,2.37,11.69,3.55,3.37,1.43,6.79,3,10.14,4.35C2851.12,1881.18,2843.87,1878.61,2836.55,1875.89Zm42.18,15.24c-7.42-3.07-14.79-6.05-22.26-9.19,6.23,1.87,12.51,3.87,18.73,5.69q11.09,5.14,22.08,10.14C2891.14,1895.64,2884.91,1893.32,2878.73,1891.13Zm19.76,8.06c2.66.93,5.27,1.78,7.92,2.69l13.05,5.87C2912.53,1905,2905.49,1902.06,2898.49,1899.19Zm38.11,15.23c-6.86-3-13.8-6.19-20.72-9.32,5.83,2,11.66,4,17.47,5.93q10.76,5.25,21.45,10.44C2948.74,1919.13,2942.69,1916.8,2936.6,1914.42Zm18.41,8.15c3.35,1.29,6.73,2.62,10.07,3.89,2.39,1.17,4.79,2.36,7.15,3.48C2966.48,1927.47,2960.78,1925.08,2955,1922.57Zm43.14,18.47c-7.49-3.51-14.9-6.89-22.43-10.46,6,2.25,11.83,4.38,17.75,6.58q10.92,5.63,21.71,11.08C3009.54,1945.9,3003.82,1943.43,2998.15,1941Zm22.41,10.41c2,.83,4,1.61,6,2.44l10.84,5.38C3031.83,1956.74,3026.17,1954.06,3020.56,1951.45Zm38.5,17.52c-6.87-3.37-13.82-6.85-20.75-10.31,5.7,2.32,11.43,4.68,17.1,6.95,6.46,3.46,12.93,6.94,19.3,10.28C3069.49,1973.59,3064.3,1971.32,3059.06,1969Zm21.06,10.36c2.62,1.15,5.27,2.34,7.88,3.49l6.38,3.28C3089.6,1983.81,3084.92,1981.65,3080.12,1979.33Zm41.08,19.49c-6.08-3.1-12.23-6.29-18.35-9.44,5.06,2.19,10.05,4.26,15.09,6.41,7.66,4.19,15.19,8.19,22.8,12.3C3134.31,2005.12,3127.69,2001.87,3121.2,1998.82Zm27.15,13.79c1.6.74,3.15,1.42,4.75,2.15l4.74,2.56C3154.67,2015.73,3151.53,2014.21,3148.35,2012.61Zm38.29,19c-7.08-3.73-14.16-7.47-21.31-11.3q8.7,4,17.33,7.83,10.85,6.08,21.66,12.1C3198.46,2037.38,3192.54,2034.46,3186.64,2031.58Zm27.46,14.34,3,1.41c1.25.69,2.51,1.41,3.75,2.09C3218.6,2048.27,3216.33,2047.07,3214.1,2045.92Zm38.36,19.64c-7-3.77-13.89-7.51-20.88-11.33,6.07,2.88,12.22,5.87,18.23,8.68,6.27,3.61,12.56,7.24,18.77,10.78Q3260.56,2069.67,3252.46,2065.56Zm29.34,15.85c1,.51,2.1,1.07,3.14,1.58l2,1.15C3285.25,2083.21,3283.55,2082.34,3281.8,2081.41Zm37.56,19.75c-6.52-3.62-13.1-7.32-19.65-11,5.38,2.63,10.71,5.21,16.06,7.8,6.55,3.86,13.13,7.76,19.6,11.52C3330.07,2106.76,3324.69,2103.94,3319.36,2101.16Zm30.28,16.65,1.35.69,1.58.91Zm37.45,20.3c-6.38-3.61-12.87-7.37-19.32-11.07,5.51,2.78,11.08,5.65,16.55,8.38,5.75,3.46,11.54,6.95,17.22,10.31C3396.71,2143.17,3392,2140.71,3387.09,2138.11Zm32.24,18.06.17.09.2.11Zm-24.95-15.8q10.17,5,20.24,9.94c8.93,5.5,17.73,10.83,26.57,16.22-7.06-3.65-14.2-7.4-21.33-11.14C3411.4,2150.42,3402.94,2145.45,3394.38,2140.37Zm59.09,34.68c-5.35-3.09-10.8-6.31-16.2-9.48,4.93,2.56,9.76,5,14.66,7.49,5.85,3.57,11.73,7.17,17.5,10.64C3464.11,2180.82,3458.82,2178,3453.47,2175.05Zm9.5,3.65c7.07,3.6,14.23,7.32,21.23,10.83,8.44,5.26,16.76,10.38,25.11,15.54-6.56-3.47-13-6.86-19.67-10.4C3480.78,2189.38,3471.93,2184.1,3463,2178.7Zm58.77,35.05c-5.29-3.11-10.68-6.34-16-9.53,5.11,2.71,10.18,5.37,15.26,8,5.85,3.62,11.73,7.26,17.51,10.79Q3530.13,2218.43,3521.74,2213.75Zm11.2,4.81q10.18,5.3,20.25,10.46c8.46,5.35,16.84,10.59,25.2,15.82-6.5-3.51-12.94-6.94-19.51-10.53C3550.27,2229.1,3541.66,2223.89,3532.94,2218.56Zm58.37,35.3c-5.25-3.13-10.61-6.39-15.92-9.6,5.17,2.8,10.35,5.61,15.49,8.36,5.82,3.63,11.66,7.29,17.41,10.84C3602.66,2260.3,3597,2257.08,3591.31,2253.86Zm12.35,5.65c6.57,3.49,13,6.79,19.49,10.2q12.48,8,24.82,15.81c-6.55-3.61-13.06-7.16-19.68-10.84C3620.12,2269.67,3611.93,2264.64,3603.66,2259.51Zm58.24,35.66c-5.31-3.2-10.71-6.53-16.07-9.8,5.14,2.83,10.32,5.71,15.42,8.49,5.79,3.64,11.61,7.32,17.35,10.91Q3670.29,2300,3661.9,2295.17Zm12.12,5.65c6.61,3.58,13.08,7,19.63,10.5,8.06,5.22,16.14,10.46,24.07,15.53-6.48-3.62-12.91-7.19-19.45-10.88Q3686.24,2308.5,3674,2300.82Zm59.35,36.76c-5.48-3.35-11-6.81-16.57-10.21,5,2.79,10,5.63,15,8.38,5.79,3.67,11.62,7.37,17.41,11Q3741.31,2342.21,3733.37,2337.58Zm11.61,5.47c6.56,3.61,13,7.08,19.49,10.61,8.16,5.31,16.33,10.64,24.39,15.84-6.77-3.84-13.47-7.6-20.32-11.52C3760.78,2353.11,3752.86,2348.06,3745,2343.05Zm60.45,37.81c-5.8-3.58-11.68-7.25-17.5-10.86,4.74,2.69,9.52,5.42,14.23,8.07,5.92,3.79,11.75,7.48,17.64,11.24C3815,2386.5,3810.24,2383.7,3805.43,2380.86Zm10.84,5.14c6.43,3.59,12.74,7,19.1,10.54l25,16.32c-6.52-3.75-13-7.39-19.55-11.21C3832.72,2396.52,3824.48,2391.24,3816.27,2386Zm61.71,38.94c-6.3-3.93-12.6-7.85-18.94-11.83,4.77,2.74,9.54,5.48,14.27,8.18,5.74,3.72,11.39,7.34,17.07,11C3886.24,2429.83,3882.15,2427.42,3878,2424.94Zm9.78,4.61c6.35,3.59,12.54,7,18.83,10.51,8.53,5.64,16.91,11.11,25.35,16.64-6.42-3.73-12.81-7.41-19.31-11.23Q3900.24,2437.56,3887.76,2429.55Zm63.25,40.22c-7-4.39-13.84-8.64-20.88-13.1,5.07,2.95,10.1,5.85,15.14,8.75,5.31,3.48,10.64,7,15.87,10.39C3957.74,2473.77,3954.42,2471.83,3951,2469.77Zm32.74,19.53c-8.24-5.3-16.41-10.53-24.75-15.94,6.71,3.84,13.3,7.54,19.93,11.29q12.38,8.26,24.59,16.34C3997,2497.15,3990.36,2493.22,3983.75,2489.3Zm35.74,22.88q-7.87-5-15.85-10.11c4.55,2.68,9,5.25,13.56,7.89,5.81,3.81,11.66,7.67,17.44,11.44C4029.62,2518.37,4024.55,2515.26,4019.49,2512.18Zm69.41,42.59c6,4,11.92,7.83,17.9,11.75-5.26-3.2-10.62-6.53-15.91-9.79-4.5-2.88-9.1-5.86-13.63-8.77C4081.19,2550.29,4085,2552.47,4088.9,2554.77Zm-13.1-8.69c-7-4.18-14.26-8.55-21.38-12.82-7.65-5-15.38-10-23.15-15.1,6.69,3.86,13.36,7.71,20,11.49C4059.46,2535.16,4067.69,2540.69,4075.8,2546.08Zm-34.64-23.17c-7.73-4.45-15.64-9.11-23.47-13.67-9.55-6.27-19.08-12.53-28.74-18.95,7.82,4.4,15.7,8.87,23.43,13.15Q4026.87,2513.3,4041.16,2522.91Zm-36.91-25c-8.21-4.57-16.54-9.3-24.87-14q-15.57-10.37-31.29-20.92c8.08,4.41,16.17,8.83,24.14,13.1C3983,2483.48,3993.61,2490.67,4004.25,2497.91Zm-38.68-26.44c-8.39-4.52-16.8-9.08-25.3-13.74-10.7-7.21-21.58-14.64-32.45-22.07,8.16,4.3,16.2,8.45,24.25,12.61Q3948.92,2460,3965.57,2471.47Zm-39.29-27.2c-8.28-4.31-16.51-8.55-24.91-13q-17.28-11.82-34.87-24c8.35,4.23,16.61,8.35,24.84,12.45C3903.06,2428,3914.75,2436.24,3926.28,2444.27Zm-39.73-27.86q-12.71-6.36-25.63-12.95c-12-8.32-24.07-16.63-36.28-25.15,8.51,4.14,17.09,8.36,25.48,12.36C3862.37,2399.38,3874.47,2407.9,3886.55,2416.41Zm-40.78-28.84c-8.49-4.07-17.11-8.28-25.73-12.5q-18.33-12.81-36.94-26c8.27,3.85,16.39,7.5,24.55,11.22C3820.46,2369.54,3833.14,2378.58,3845.77,2387.57Zm981.89-40c-149.92,195.21-441.15,275.16-1019.6,12-12.79-9.19-25.77-18.59-38.78-28,585.69,252,879.32,152.13,1033.52-52.55C4924,2118,4959,1892.39,4981.94,1722l13.39-5.91C4982.53,1911.19,4960.5,2174.6,4827.66,2347.57ZM4995.4,1715q-6.4,2.81-13.31,5.87,1.14-8.49,2.25-16.8,6.32-3.49,12.2-6.68Q4996,1706.1,4995.4,1715Zm1.54-23.77-.33,5q-5.85,3.17-12.12,6.63l.95-7.11,1.26-9.46q5.69-3.88,11-7.41Zm2-30.53q-.56,8.4-1.12,17-5.31,3.49-10.94,7.33,1.1-8.25,2.18-16.28Q4994.12,1664.56,4998.93,1660.71Zm-10.77,7.59q-4.69,3.93-9.6,8.16,1.62-7.56,3.2-14.89c2.9-3.09,5.75-6.08,8.54-8.94Q4989.24,1660.34,4988.16,1668.3Zm2.36-17.26q-4.11,4.2-8.37,8.73,1.59-7.3,3.16-14.38,3.72-4.91,7.34-9.46Q4991.58,1643.36,4990.52,1651Zm2.39-17q-3.51,4.38-7.11,9.11,1.54-7,3.1-13.67,3.09-5.07,6.12-9.8Q4994,1626.77,4992.91,1634.08Zm2.46-16.64q-2.88,4.44-5.8,9.18,1.49-6.43,3-12.61,2.46-5.07,4.88-9.82Q4996.39,1610.69,4995.37,1617.44Zm4.46-27.56q-1,5.55-1.91,11.32-2.15,4.13-4.31,8.51c.91-3.67,1.81-7.26,2.73-10.78Q4998.08,1594.28,4999.83,1589.88Z"/></g></g></svg>