<?xml version="1.0" encoding="UTF-8"?>
<svg version="1.1" xmlns="http://www.w3.org/2000/svg" width="512" height="512">
<path d="M0 0 C3.33790735 1.11263578 3.97187624 1.90490039 6.125 4.5625 C20.78529973 21.69672531 41.73815936 32.12153244 64 35 C73.27282382 35.68326608 82.580896 35.61023535 91.87394381 35.60750484 C95.44138203 35.61067787 99.00866448 35.63638506 102.57601929 35.65948486 C109.3009102 35.6997178 116.02570499 35.72030762 122.75069749 35.73345876 C130.41973619 35.74944107 138.08861382 35.78790243 145.75755811 35.82805204 C161.50499057 35.91000217 177.25239034 35.964373 193 36 C193.00546844 36.85325111 193.00546844 36.85325111 193.01104736 37.72373962 C193.05306422 43.67829315 193.12254242 49.6320896 193.20751953 55.58618164 C193.23563462 57.80420333 193.25689591 60.02232346 193.27099609 62.24047852 C193.2925566 65.44077606 193.33927507 68.63990187 193.390625 71.83984375 C193.39246796 73.31226784 193.39246796 73.31226784 193.39434814 74.81443787 C193.53946147 81.73426085 194.6679689 88.24885342 199.41143799 93.588974 C204.72389104 98.2833973 209.51944905 99.4772155 216.4375 99.3125 C221.93509308 98.64206182 226.18306557 96.21518975 229.875 92.125 C234.24941689 85.69203398 234.32675875 79.66886922 234.4140625 72.1328125 C234.43342865 71.09808807 234.4527948 70.06336365 234.4727478 68.99728394 C234.53231842 65.70660533 234.57883905 62.41589132 234.625 59.125 C234.66320048 56.88800595 234.70225341 54.65102628 234.7421875 52.4140625 C234.83800138 46.94283642 234.92311431 41.47152305 235 36 C235.97235879 35.99780016 235.97235879 35.99780016 236.96436119 35.99555588 C252.81835658 35.95832501 268.67209971 35.89909755 284.52591515 35.81609726 C292.19306106 35.77647446 299.86010683 35.74399766 307.52734375 35.72900391 C314.21873013 35.71589963 320.90989459 35.68871506 327.60115588 35.64538693 C331.13636366 35.62296676 334.67129977 35.60707741 338.20658493 35.60811615 C370.47543431 35.60713212 395.26222401 30.0373699 419.40625 7.61328125 C422.04394205 5.05748527 422.04394205 5.05748527 424.21875 2.16796875 C424.8065625 1.45253906 425.394375 0.73710937 426 0 C426.66 0 427.32 0 428 0 C428.07009873 24.63473643 428.12299245 49.26945789 428.15543652 73.90427399 C428.17090164 85.34279211 428.19198445 96.78124823 428.22631836 108.21972656 C428.25623149 118.19016165 428.27557758 128.16055184 428.28226548 138.13103056 C428.28617448 143.40972165 428.29535392 148.6882843 428.31719017 153.9669342 C428.33758546 158.93762531 428.34382761 163.90813531 428.33932304 168.87886429 C428.34014688 170.70092885 428.34609435 172.52299961 428.35761642 174.34502792 C428.3726083 176.83851543 428.36892945 179.33132492 428.36076355 181.8248291 C428.36950207 182.54080655 428.3782406 183.25678399 428.38724393 183.99445772 C428.33431709 190.00007232 426.92729379 195.24323799 423.45703125 200.20703125 C422.91433594 200.73683594 422.37164062 201.26664063 421.8125 201.8125 C421.28269531 202.35519531 420.75289063 202.89789063 420.20703125 203.45703125 C412.23397165 209.03111717 403.52145534 208.42670588 394.21669006 208.38768005 C392.59927435 208.39185552 390.98186157 208.39733421 389.36445421 208.40399987 C384.93042901 208.41844514 380.49658983 208.41421262 376.06255448 208.40683305 C371.27650277 208.40210145 366.49049131 208.41461115 361.70445251 208.42485046 C352.33246343 208.44204368 342.96054138 208.44287742 333.58854062 208.43763756 C325.97104752 208.43359576 318.35357423 208.43503954 310.73608208 208.44038582 C309.6518229 208.44113424 308.56756372 208.44188266 307.4504482 208.44265376 C305.24776804 208.44418524 303.0450879 208.44572359 300.84240776 208.44726873 C280.18785079 208.46099556 259.5333317 208.4555547 238.87877559 208.44408352 C219.98366978 208.43415 201.08866187 208.44709355 182.19357116 208.47101771 C162.7898213 208.49540075 143.38611707 208.50501859 123.9823522 208.49836498 C113.08948923 208.49487112 102.19670157 208.49711594 91.30385017 208.51461601 C82.0314727 208.52932797 72.75922359 208.52998651 63.48684866 208.5125451 C58.75660027 208.50402466 54.02658127 208.50191111 49.29634476 208.51719666 C44.96420259 208.53102243 40.6324868 208.52630783 36.30036943 208.50695742 C34.73518413 208.50319063 33.16996485 208.50613896 31.60480977 208.51656907 C21.7691172 208.57744082 13.86832721 208.12749481 6.125 201.5625 C0.83245335 195.18031139 -0.15282224 190.44127526 -0.12025452 182.30584717 C-0.12110894 181.52655452 -0.12196337 180.74726187 -0.12284368 179.9443543 C-0.12449183 177.3310436 -0.11898797 174.71779698 -0.11352539 172.10449219 C-0.11324335 170.23200482 -0.11340158 168.35951734 -0.1139679 166.48703003 C-0.11425521 161.40064259 -0.1083691 156.31427866 -0.10139394 151.22789669 C-0.09514946 145.91342729 -0.09455573 140.59895737 -0.09336853 135.28448486 C-0.09025845 125.21939496 -0.0820494 115.1543159 -0.07201904 105.08923078 C-0.06084789 93.63107453 -0.05534492 82.17291777 -0.05032361 70.71475744 C-0.03986654 47.14316561 -0.02227333 23.57158341 0 0 Z " fill="#000000" transform="translate(42,262)"/>
<path d="M0 0 C2.05778099 -0.0020258 4.11556128 -0.00494143 6.17333984 -0.00869751 C10.46654153 -0.01309705 14.75955476 -0.00676667 19.05273438 0.00732422 C24.52284755 0.02441451 29.99251895 0.01456054 35.46261597 -0.00339317 C39.70600644 -0.01429537 43.94929422 -0.0107553 48.19268799 -0.0030098 C50.20827285 -0.00102554 52.22386739 -0.00340378 54.23944092 -0.01044846 C82.76076786 -0.08828643 82.76076786 -0.08828643 94.625 9.3984375 C95.25019531 9.85089844 95.87539063 10.30335937 96.51953125 10.76953125 C104.38987422 16.82232225 109.06693816 26.39084181 111.19311523 35.95361328 C111.79240185 40.73367777 111.74756709 45.45314274 111.72265625 50.265625 C111.72053383 51.81771164 111.72053383 51.81771164 111.71836853 53.40115356 C111.71279039 56.69194482 111.70024188 59.98266696 111.6875 63.2734375 C111.68248218 65.51041568 111.67791976 67.74739493 111.67382812 69.984375 C111.66282812 75.45575258 111.64611177 80.9270901 111.625 86.3984375 C112.19484367 86.39475033 112.76468735 86.39106316 113.35179901 86.38726425 C127.24096281 86.29878499 141.13007698 86.23292139 155.01946259 86.19118881 C161.73638555 86.17059579 168.45311996 86.14253816 175.16992188 86.09667969 C181.65383401 86.05317086 188.13755043 86.02928936 194.62159729 86.01892853 C197.09350159 86.01154631 199.56539536 85.99713058 202.03721619 85.97551727 C205.50356062 85.94641749 208.96909965 85.94248441 212.43554688 85.94433594 C213.96332764 85.92276428 213.96332764 85.92276428 215.52197266 85.90075684 C223.38835264 85.94612637 228.76236577 87.59941736 234.4375 93.1484375 C239.9815755 101.38534967 240.06918614 108.70609897 240.0234375 118.3984375 C240.02546446 119.76115067 240.02838104 121.12386276 240.03213501 122.48657227 C240.03654118 125.33767054 240.03019103 128.18848565 240.01611328 131.03955078 C239.99915038 134.64588347 240.0090694 138.25154606 240.0264349 141.85785484 C240.14301105 170.33473852 237.48640661 194.11700257 216.625 215.3984375 C215.95984375 216.0996875 215.2946875 216.8009375 214.609375 217.5234375 C200.12270111 231.6783555 179.40919083 236.55424945 159.79870605 236.53887939 C158.61091128 236.54185052 157.4231165 236.54482164 156.19932795 236.5478828 C152.91483463 236.55503928 149.63037327 236.55774026 146.34587336 236.55848026 C142.79829484 236.56033745 139.25072752 236.56788819 135.70315552 236.57461548 C127.95074556 236.58817336 120.19834079 236.59421978 112.44592094 236.59862614 C107.59987657 236.60139333 102.75383417 236.60563159 97.90779114 236.61013031 C84.47554398 236.62232052 71.04329841 236.63261976 57.61104584 236.6360054 C56.32251103 236.63633475 56.32251103 236.63633475 55.00794521 236.63667075 C54.14692899 236.63688903 53.28591276 236.63710731 52.39880514 236.6373322 C50.65421645 236.63777566 48.90962775 236.63822222 47.16503906 236.63867188 C45.86698954 236.63900402 45.86698954 236.63900402 44.5427168 236.63934287 C30.53384187 236.64328736 16.52501906 236.66073182 2.51616424 236.6840314 C-11.88613991 236.70779082 -26.28841796 236.72020937 -40.69074202 236.72137332 C-48.76912241 236.7222876 -56.8474349 236.72797715 -64.92579651 236.74619293 C-71.80743952 236.76165613 -78.68899365 236.766678 -85.57065076 236.75845483 C-89.07633598 236.75456996 -92.58184254 236.75537072 -96.08750534 236.76951218 C-129.36487442 236.88099624 -129.36487442 236.88099624 -143.625 230.2109375 C-144.28773926 229.90905518 -144.95047852 229.60717285 -145.63330078 229.29614258 C-164.07223779 220.58154441 -177.11225619 205.27623115 -184.375 186.3984375 C-188.04689801 175.21444815 -188.54563103 164.55561714 -188.578125 152.86328125 C-188.58095238 152.17327089 -188.58377975 151.48326054 -188.58669281 150.77234077 C-188.60159793 147.12678785 -188.6108844 143.48127368 -188.61523438 139.83569336 C-188.62073292 136.0878213 -188.64481452 132.34030993 -188.67320633 128.59255123 C-188.69188641 125.69192984 -188.69704096 122.7913949 -188.69857025 119.89071846 C-188.70158084 118.50931369 -188.70955507 117.12790985 -188.72275543 115.74656487 C-188.80272499 106.7422276 -188.65991569 99.76828185 -182.625 92.6484375 C-182.17640625 92.09671875 -181.7278125 91.545 -181.265625 90.9765625 C-175.19888308 85.91258784 -168.83970994 85.97828911 -161.29907227 86.05786133 C-159.65893913 86.05720421 -159.65893913 86.05720421 -157.985672 86.05653381 C-154.387399 86.05861648 -150.78959742 86.0819236 -147.19140625 86.10546875 C-144.69034581 86.11106654 -142.18928207 86.11533578 -139.68821716 86.11833191 C-133.78806896 86.12859875 -127.8880936 86.1522201 -121.98801607 86.18238038 C-114.60727504 86.21928556 -107.22651289 86.23533311 -99.84570312 86.25195312 C-86.6887169 86.28409223 -73.53186911 86.334692 -60.375 86.3984375 C-60.38388245 85.81342972 -60.39276489 85.22842194 -60.4019165 84.62568665 C-60.49116579 78.47638836 -60.5510522 72.32727727 -60.59472656 66.17749023 C-60.61470626 63.88965365 -60.64189951 61.60186724 -60.67675781 59.31420898 C-60.94196606 41.44775308 -60.68547905 27.46755641 -48.375 13.3984375 C-34.92859604 -0.39274605 -18.01577474 -0.0629673 0 0 Z M-16.375 44.3984375 C-16.375 58.2584375 -16.375 72.1184375 -16.375 86.3984375 C11.345 86.3984375 39.065 86.3984375 67.625 86.3984375 C67.625 72.5384375 67.625 58.6784375 67.625 44.3984375 C39.905 44.3984375 12.185 44.3984375 -16.375 44.3984375 Z " fill="#000000" transform="translate(230.375,41.6015625)"/>
</svg>
